<?xml version="1.0" standalone="no"?>
<!DOCTYPE svg PUBLIC "-//W3C//DTD SVG 1.1//EN" "http://www.w3.org/Graphics/SVG/1.1/DTD/svg11.dtd" >
<svg xmlns="http://www.w3.org/2000/svg" xmlns:xlink="http://www.w3.org/1999/xlink" version="1.1">
<metadata>
Created by FontForge 20160407 at Tue Oct 25 10:19:45 2016
 By Jimmy Warting
Copyright (c) 2014 by www.moslemebrahimi.com. All rights reserved.
</metadata>
<defs>
<font id="IRANSans" horiz-adv-x="0" >
  <font-face 
    font-family="IRANSans"
    font-weight="400"
    font-stretch="normal"
    units-per-em="2048"
    panose-1="2 4 5 3 5 2 1 2 2 3"
    ascent="1638"
    descent="-410"
    x-height="1062"
    cap-height="1466"
    bbox="-697 -1315 3911 2611"
    underline-thickness="102"
    underline-position="-511"
    unicode-range="U+0020-FEFC"
  />
<missing-glyph horiz-adv-x="1229" 
d="M102 1444h1024v-1806h-1024v1806zM1012 -248v1577h-795v-1577h795z" />
    <glyph glyph-name="uniFDF2" unicode="&#x627;&#xfedf;&#xfee0;&#x6c1;" horiz-adv-x="2633" arabic-form="isolated" 
d="M1611 26q-56 24 -93 58q-111 -87 -272 -87h-41v-3q-32 0 -67 3h-12v1q-56 0 -103 33q-79 38 -131 121q-119 -18 -220 -18q-257 0 -358 125q-54 62 -54 162q0 54 19 93l1 5q116 242 468 380q-3 29 -6 68l-2 15l-1 14q-1 16 -2 26q-1 11 -2 21q-1 8 -2 15l-1 13l196 17
q55 -645 103 -772q47 -124 120 -125q15 -1 31 -1h28q97 0 133 28q33 26 46 57q3 8 3 56q0 171 -42 838l198 21q62 -866 62 -868q0 -55 26 -92q29 -41 79 -42h13l12 -1q150 0 165 95q5 32 5 58q0 10 -75 902l194 44q69 -903 69 -1006v-5q-2 -83 -68 -181q-63 -93 -248 -93
h-15q-20 -2 -30 -2q-62 0 -126 27zM461 438q-2 -14 -2 -19q0 -54 75 -74q30 -8 72 -11q31 -2 76 -2q63 0 141 9q-36 203 -53 355q-229 -105 -309 -258zM1322 1260q-122 0 -122 174v19q2 42 5 60q5 26 6 27l78 -17l-2 -11l-2 -12q-2 -14 -2 -24v-25l-1 -27q0 -82 40 -82
q47 0 75 73q10 27 17 64q5 27 8 57l83 -3q0 -33 9 -70q3 -15 8 -32l9 -31q7 -22 18 -36q15 -19 34 -19q29 0 40 28q7 20 7 66q0 43 -18 90q-12 32 -36 74l70 40l3 -6q2 -4 3 -7q3 -4 5 -8q23 -39 37 -82q18 -54 18 -101q0 -148 -95 -172q-12 -3 -20 -3h-8q-5 -1 -6 -1
q-40 0 -77 29q-35 28 -49 69q-49 -101 -135 -101zM1394 1657q19 66 19 139v7q-2 77 -19 141l73 23q15 -54 18 -143l1 -8v-9q0 -75 -20 -172zM2423 -13l-197 11q20 309 20 612q0 464 -47 882q-1 12 -3 23l-2 16l-1 6v4l-1 4l196 30q1 -5 15 -121q40 -333 40 -810
q0 -386 -20 -657z" />
    <glyph glyph-name="uniFDFC" unicode="&#x631;&#xfef3;&#xfe8e;&#x644;" horiz-adv-x="2976" arabic-form="isolated" 
d="M1833 -101q5 -5 11 -12l4 -5l4 -4q27 -31 62 -66l31 -32l31 -31l-77 -77q-6 -6 -20 -23l-11 -13q-6 -7 -10 -12l-4 -5l-5 -6l-12 -12q-15 -15 -25 -15q-8 0 -21 13l-11 11l-4 6l-4 4l-9 11l-10 12q-12 15 -18 21l-43 43l-22 21l-22 22l39 39l26 27l26 29q35 39 53 57
q11 11 19 11t22 -14zM1266 1514l1 -6v-12l-1 -6v-8q20 -370 38 -949l6 -156l2 -70l2 -70q1 -89 4 -139q2 -50 2 -74q0 -303 -136 -460q-193 -226 -512 -236h-21q-281 0 -449 196q-137 159 -137 381q0 348 154 549l75 -63l37 -31l37 -32q-106 -142 -106 -388q0 -261 199 -367
q91 -48 192 -48q114 0 214 46q90 42 151 112q103 118 103 325v4l-1 3q0 271 -15 640l-7 157l-7 158q-10 206 -14 315q-2 78 -10 229q15 1 47 2q31 1 46 2q9 0 20 1l22 3q30 4 44 4q20 0 20 -12zM1961 184q157 0 229 29q101 40 108 150l1 13v13q0 86 -26 177q-18 65 -56 150
l-13 28l-12 28l-25 53q7 13 38 25l13 5l13 4q14 5 20 8l24 12l24 12q31 14 47 23q0 -29 23 -69l9 -15l9 -16q11 -17 15 -29q22 -58 33 -88q17 -50 29 -92q28 -106 31 -208v-9q0 -184 -112 -289q-106 -99 -291 -109q-54 -3 -107 -3q-17 0 -69 -2h-11l-11 -1q-269 0 -374 168
q-46 73 -46 199v25q2 66 2 100q2 104 2 154v102l-1 52q-1 52 -1 156q0 285 -25 467q-9 25 -9 55q0 8 15 12q5 1 13 2h5l5 1l30 6q25 4 64 11l63 12q38 -201 41 -482v-199l-1 -96q-2 -127 -2 -190q0 -24 -3 -64l-2 -33l-2 -32v-26q0 -195 155 -195q31 0 56 -4q7 1 21 1
q10 0 31 -1l15 -1h15zM2801 656l18 -56q23 -69 36 -114q39 -136 51 -244q4 -37 4 -81q0 -208 -128 -391q-173 -247 -537 -430l-17 38l-18 38q-21 43 -39 75l-3 5l-4 6q-4 6 -4 10t6 9l5 3l6 3q294 151 433 345q65 90 86 184q12 58 12 104q0 42 -8 93q-27 162 -107 398l48 15
l47 15l96 30zM2240 -330q-7 -7 -16 -17l-17 -20q-22 -26 -33 -37q-12 -12 -20 -12q-9 0 -22 13l-11 11l-4 6l-4 4l-9 11l-10 12q-12 15 -18 21l-86 86l39 39l26 27l26 29q35 39 53 57q11 11 19 11t22 -14q5 -5 11 -12l4 -5l4 -4q4 -4 9 -10l10 -12q13 -16 18 -21
q44 -42 86 -86z" />
    <glyph glyph-name="uniFEF5" unicode="&#xfedf;&#xfe82;" horiz-adv-x="1350" arabic-form="isolated" 
d="M1268 750l7 -63q6 -73 6 -129q0 -178 -97 -346q-112 -193 -426 -268q-89 -19 -184 -22h-18l-18 -1q-75 0 -150 12l34 195q50 -10 113 -10h26q74 3 153 20q-30 162 -120 372q-147 343 -394 704q-19 29 -21 30l163 114q10 -20 35 -54l11 -15l11 -16l22 -33
q248 -388 371 -688q74 -180 110 -344q62 39 109 112t65 156q8 33 8 73q0 19 -1 28l-103 930l196 19q0 -1 6 -40q44 -288 80 -672zM5 1472l4 11q2 7 3 10q67 165 191 185l11 2q6 1 11 1h21q56 0 131 -30l29 -11q16 -6 30 -10q34 -10 67 -12h6q40 0 81 34q15 13 31 31l13 16
l6 7l5 7l114 -74q-6 -6 -16 -21l-9 -13l-10 -12q-46 -51 -90 -78q-61 -37 -130 -37h-6q-52 2 -114 23l-26 9l-25 9q-30 11 -50 17q-16 5 -35 5q-46 0 -77 -42q-13 -17 -24 -42q-7 -16 -18 -45l-132 41q4 4 8 19z" />
    <glyph glyph-name="uniFEF6" unicode="&#xfee0;&#xfe82;" horiz-adv-x="1470" arabic-form="final" 
d="M989 310q53 70 53 156q0 9 -2 29q-30 449 -82 969l-2 20l-2 14l-1 12l196 21q0 -19 5 -53l3 -31q3 -18 4 -32q8 -89 22 -247l12 -126l11 -126q27 -301 38 -509q9 -172 149 -201q12 -2 25 -6l4 -1l4 -1q3 -1 5 -1l30 -1h9q42 0 71 -28q28 -28 28 -70q0 -41 -29 -70
q-29 -28 -70 -28h-49q-108 0 -211 72q-44 31 -83 94q-137 -153 -396 -217q-94 -20 -185 -23h-35q-75 0 -150 12l34 195q50 -10 113 -10l13 1h13q79 3 153 19q-35 186 -123 388q-59 133 -174 340q-93 167 -216 348q-4 6 -8 13q-3 4 -6 9l-6 8l161 114q0 -1 7 -10l3 -5l4 -5
q4 -7 9 -14q283 -424 427 -773q75 -181 110 -343q73 43 114 97zM20 1483l4 11q2 7 3 10q67 165 191 185l11 2q6 1 11 1h21q56 0 131 -30l29 -11q16 -6 30 -10q34 -10 67 -12h6q40 0 81 34q15 13 31 31l13 16l6 7l5 7l114 -74q-6 -6 -16 -21l-9 -13l-10 -12q-46 -51 -90 -78
q-61 -37 -130 -37h-6q-52 2 -114 23l-26 9l-25 9q-30 11 -50 17q-16 5 -35 5q-46 0 -77 -42q-13 -17 -24 -42q-7 -16 -18 -45l-132 41q4 4 8 19z" />
    <glyph glyph-name="uniFEF7" unicode="&#xfedf;&#xfe84;" horiz-adv-x="1247" arabic-form="isolated" 
d="M1166 750l7 -63q6 -73 6 -129q0 -178 -97 -346q-112 -193 -426 -268q-89 -19 -184 -22h-18l-18 -1q-75 0 -150 12l34 195q50 -10 113 -10h26q74 3 153 20q-30 162 -120 372q-147 343 -394 704q-19 29 -21 30l163 114q10 -20 35 -54l11 -15l11 -16l22 -33
q248 -388 371 -688q74 -180 110 -344q62 39 109 112t65 156q8 33 8 73q0 19 -1 28l-103 930l196 19q0 -1 6 -40q44 -288 80 -672zM116 1634q37 -25 79 -25q37 0 77 18q14 7 32 17l15 9l14 9q24 14 43 29l59 -78q-58 -42 -242 -142l-227 -126l-48 87l179 100q-57 24 -94 72
q-41 54 -41 122q0 95 68 154q65 58 163 58q31 0 64 -6l28 -6l28 -7l-28 -92q-48 13 -92 13q-35 0 -62 -12v2q-71 -31 -71 -104q0 -15 8 -36l-1 1q13 -33 49 -57z" />
    <glyph glyph-name="uniFEF8" unicode="&#xfee0;&#xfe84;" horiz-adv-x="1470" arabic-form="final" 
d="M989 310q53 70 53 156q0 9 -2 29q-30 449 -82 969l-2 20l-2 14l-1 12l196 21q0 -19 5 -53l3 -31q3 -18 4 -32q8 -89 22 -247l12 -126l11 -126q27 -301 38 -509q9 -172 149 -201q12 -2 25 -6l4 -1l4 -1q3 -1 5 -1l30 -1h9q42 0 71 -28q28 -28 28 -70q0 -41 -29 -70
q-29 -28 -70 -28h-49q-108 0 -211 72q-44 31 -83 94q-137 -153 -396 -217q-94 -20 -185 -23h-35q-75 0 -150 12l34 195q50 -10 113 -10l13 1h13q79 3 153 19q-35 186 -123 388q-59 133 -174 340q-93 167 -216 348q-4 6 -8 13q-3 4 -6 9l-6 8l161 114q0 -1 7 -10l3 -5l4 -5
q4 -7 9 -14q283 -424 427 -773q75 -181 110 -343q73 43 114 97zM214 1665q37 -25 79 -25q37 0 77 18q14 7 32 17l15 9l14 9q24 14 43 29l59 -78q-58 -42 -242 -142l-227 -126l-48 87l179 100q-57 24 -94 72q-41 54 -41 122q0 95 68 154q65 58 163 58q31 0 64 -6l28 -6l28 -7
l-28 -92q-48 13 -92 13q-35 0 -62 -12v2q-71 -31 -71 -104q0 -15 8 -36l-1 1q13 -33 49 -57z" />
    <glyph glyph-name="uniFEF9" unicode="&#xfedf;&#xfe88;" horiz-adv-x="1247" arabic-form="isolated" 
d="M1166 750l7 -63q6 -73 6 -129q0 -178 -97 -346q-112 -193 -426 -268q-89 -19 -184 -22h-18l-18 -1q-75 0 -150 12l34 195q50 -10 113 -10h26q74 3 153 20q-30 162 -120 372q-147 343 -394 704q-19 29 -21 30l163 114q10 -20 35 -54l11 -15l11 -16l22 -33
q248 -388 371 -688q74 -180 110 -344q62 39 109 112t65 156q8 33 8 73q0 19 -1 28l-103 930l196 19q0 -1 6 -40q44 -288 80 -672zM617 -477q37 -25 79 -25q37 0 77 18q14 7 32 17l15 9l14 9q24 14 43 29l59 -78q-58 -42 -242 -142l-227 -126l-48 87l179 100q-57 24 -94 72
q-41 54 -41 122q0 95 68 154q65 58 163 58q31 0 64 -6l28 -6l28 -7l-28 -92q-48 13 -92 13q-35 0 -62 -12v2q-71 -31 -71 -104q0 -15 8 -36l-1 1q13 -33 49 -57z" />
    <glyph glyph-name="uniFEFA" unicode="&#xfee0;&#xfe88;" horiz-adv-x="1470" arabic-form="final" 
d="M989 310q53 70 53 156q0 9 -2 29q-30 449 -82 969l-2 20l-2 14l-1 12l196 21q0 -19 5 -53l3 -31q3 -18 4 -32q8 -89 22 -247l12 -126l11 -126q27 -301 38 -509q9 -172 149 -201q12 -2 25 -6l4 -1l4 -1q3 -1 5 -1l30 -1h9q42 0 71 -28q28 -28 28 -70q0 -41 -29 -70
q-29 -28 -70 -28h-49q-108 0 -211 72q-44 31 -83 94q-137 -153 -396 -217q-94 -20 -185 -23h-35q-75 0 -150 12l34 195q50 -10 113 -10l13 1h13q79 3 153 19q-35 186 -123 388q-59 133 -174 340q-93 167 -216 348q-4 6 -8 13q-3 4 -6 9l-6 8l161 114q0 -1 7 -10l3 -5l4 -5
q4 -7 9 -14q283 -424 427 -773q75 -181 110 -343q73 43 114 97zM769 -435q37 -25 79 -25q37 0 77 18q14 7 32 17l15 9l14 9q24 14 43 29l59 -78q-58 -42 -242 -142l-227 -126l-48 87l179 100q-57 24 -94 72q-41 54 -41 122q0 95 68 154q65 58 163 58q31 0 64 -6l28 -6l28 -7
l-28 -92q-48 13 -92 13q-35 0 -62 -12v2q-71 -31 -71 -104q0 -15 8 -36l-1 1q13 -33 49 -57z" />
    <glyph glyph-name="uniFEFB" unicode="&#xfedf;&#xfe8e;" horiz-adv-x="1247" arabic-form="isolated" 
d="M1166 750l7 -63q6 -73 6 -129q0 -178 -97 -346q-112 -193 -426 -268q-89 -19 -184 -22h-18l-18 -1q-75 0 -150 12l34 195q50 -10 113 -10h26q74 3 153 20q-30 162 -120 372q-147 343 -394 704q-19 29 -21 30l163 114q10 -20 35 -54l11 -15l11 -16l22 -33
q248 -388 371 -688q74 -180 110 -344q62 39 109 112t65 156q8 33 8 73q0 19 -1 28l-103 930l196 19q0 -1 6 -40q44 -288 80 -672z" />
    <glyph glyph-name="uniFEFC" unicode="&#xfee0;&#xfe8e;" horiz-adv-x="1461" arabic-form="final" 
d="M989 310q53 70 53 156q0 9 -2 29q-30 449 -82 969l-2 20l-2 14l-1 12l196 21q0 -19 5 -53l3 -31q3 -18 4 -32q8 -89 22 -247l12 -126l11 -126q27 -301 38 -509q9 -172 149 -201q12 -2 25 -6l4 -1l4 -1q3 -1 5 -1l30 -1h9q42 0 71 -28q28 -28 28 -70q0 -41 -29 -70
q-29 -28 -70 -28h-49q-108 0 -211 72q-44 31 -83 94q-137 -153 -396 -217q-94 -20 -185 -23h-35q-75 0 -150 12l34 195q50 -10 113 -10l13 1h13q79 3 153 19q-35 186 -123 388q-59 133 -174 340q-93 167 -216 348q-4 6 -8 13q-3 4 -6 9l-6 8l161 114q0 -1 7 -10l3 -5l4 -5
q4 -7 9 -14q283 -424 427 -773q75 -181 110 -343q73 43 114 97z" />
    <glyph glyph-name="uniFEDF_uniFB51.rlig" unicode="&#xfedf;&#xfb51;" horiz-adv-x="1247" 
d="M1166 750l7 -63q6 -73 6 -129q0 -178 -97 -346q-112 -193 -426 -268q-89 -19 -184 -22h-18l-18 -1q-75 0 -150 12l34 195q50 -10 113 -10h26q74 3 153 20q-30 162 -120 372q-147 343 -394 704q-19 29 -21 30l163 114q10 -20 35 -54l11 -15l11 -16l22 -33
q248 -388 371 -688q74 -180 110 -344q62 39 109 112t65 156q8 33 8 73q0 19 -1 28l-103 930l196 19q0 -1 6 -40q44 -288 80 -672zM492 1642q68 25 73 82q0 31 -24 49q-23 17 -56 17q-6 0 -20 -2q-60 -10 -110 -61q-41 -41 -68 -101q27 -3 61 -3h4l4 -1q85 0 136 20z
M323 1786q73 69 168 69q97 0 131 -87q11 -26 11 -53q0 -75 -92 -119q-80 -39 -189 -39q-74 0 -113 12q-48 14 -74 51q-14 10 -34 10q-24 0 -56 -15q-12 -6 -25 -14l-10 -6l-9 -6l-18 68q48 25 97 35q8 2 24 2q58 0 90 -45q49 90 99 137z" />
    <glyph glyph-name="uniFEE0_uniFB51.rlig" unicode="&#xfee0;&#xfb51;" horiz-adv-x="1470" 
d="M989 310q53 70 53 156q0 9 -2 29q-30 449 -82 969l-2 20l-2 14l-1 12l196 21q0 -19 5 -53l3 -31q3 -18 4 -32q8 -89 22 -247l12 -126l11 -126q27 -301 38 -509q9 -172 149 -201q12 -2 25 -6l4 -1l4 -1q3 -1 5 -1l30 -1h9q42 0 71 -28q28 -28 28 -70q0 -41 -29 -70
q-29 -28 -70 -28h-49q-108 0 -211 72q-44 31 -83 94q-137 -153 -396 -217q-94 -20 -185 -23h-35q-75 0 -150 12l34 195q50 -10 113 -10l13 1h13q79 3 153 19q-35 186 -123 388q-59 133 -174 340q-93 167 -216 348q-4 6 -8 13q-3 4 -6 9l-6 8l161 114q0 -1 7 -10l3 -5l4 -5
q4 -7 9 -14q283 -424 427 -773q75 -181 110 -343q73 43 114 97zM517 1632q68 25 73 82q0 31 -24 49q-23 17 -56 17q-6 0 -20 -2q-60 -10 -110 -61q-41 -41 -68 -101q27 -3 61 -3h4l4 -1q85 0 136 20zM348 1776q73 69 168 69q97 0 131 -87q11 -26 11 -53q0 -75 -92 -119
q-80 -39 -189 -39q-74 0 -113 12q-48 14 -74 51q-14 10 -34 10q-24 0 -56 -15q-12 -6 -25 -14l-10 -6l-9 -6l-18 68q48 25 97 35q8 2 24 2q58 0 90 -45q49 90 99 137z" />
    <glyph glyph-name="uni066E.init" unicode="&#x66e;" horiz-adv-x="700" 
d="M-7 0q-40 0 -69 29t-29 69q0 41 29 69q29 29 69 29h103q16 -1 46 -1q106 0 169 25q70 28 101 94q14 31 14 78q0 86 -32 194q-22 73 -65 175l-33 75l178 88l3 -5q1 -4 3 -7l4 -8q54 -116 92 -242q47 -157 47 -266q0 -93 -30 -162q-44 -101 -134 -161q-94 -63 -223 -70
q-51 -3 -97 -3h-146z" />
    <glyph glyph-name="uni066E.medi" unicode="&#x66e;" horiz-adv-x="705" 
d="M4 0q-42 0 -70 28t-28 70q0 41 28 70q28 28 70 28h17q157 0 234 52q86 58 86 188q0 135 -46 297l188 53q54 -179 54 -350v-5q0 -103 37 -164q43 -71 130 -71q42 0 71 -28q28 -28 28 -70t-28 -70t-70 -28q-178 0 -274 124q-127 -124 -410 -124h-17z" />
    <glyph glyph-name="uni066E.fina" unicode="&#x66e;" horiz-adv-x="2316" 
d="M2386 28q-29 -28 -70 -28h-8q-260 3 -385 164q-40 48 -62 109q-264 -276 -833 -276q-620 3 -793 295q-67 116 -67 256q0 166 96 358l173 -95l-9 -20q-47 -102 -54 -208v-11l-1 -11q0 -94 39 -159q119 -202 616 -206q436 0 634 161q129 100 205 353l190 -52q-2 -8 -5 -21
l-5 -22q-7 -29 -11 -50q-13 -61 -13 -99v-6q9 -263 293 -263q41 0 70 -29t29 -70t-29 -70z" />
    <glyph glyph-name="uni066F.init" unicode="&#x66f;" horiz-adv-x="895" 
d="M381 563q34 -11 85 -15q34 -2 96 -2q34 0 78 2q-20 257 -160 362q-23 17 -52 17q-20 0 -40 -18q-14 -13 -30 -36q-63 -93 -63 -199q0 -83 86 -111zM-3 0q-40 0 -69 29t-29 69q0 42 29 70t71 28q202 0 371 38q172 39 221 96l16 18h-101q-156 0 -258 59q-107 62 -139 179
q-10 35 -11 74v17q0 104 47 215q63 147 167 203q56 30 116 30q132 0 240 -117q173 -190 173 -497q0 -38 -5 -85h-1q-21 -140 -83 -214q-172 -204 -738 -212h-17z" />
    <glyph glyph-name="uni066F.medi" unicode="&#x66f;" horiz-adv-x="970" 
d="M627 508q0 132 -83 206q-30 27 -63 27q-35 0 -68 -24q-25 -19 -49 -51q-62 -83 -62 -197q0 -49 44 -93q47 -47 144 -90q137 60 137 222zM-54 0q-42 0 -70 28t-28 70q0 43 28 70q27 28 70 28q160 0 290 15q-130 114 -130 258q0 191 111 329q111 140 255 140h11
q130 -6 219 -85q81 -73 114 -191q18 -64 18 -131v-23q-7 -170 -115 -288q120 -24 287 -24q41 0 70 -28q29 -29 29 -70q0 -43 -28 -70q-28 -28 -71 -28h-9q-271 0 -500 71q-184 -71 -543 -71h-8z" />
    <glyph glyph-name="uni066F.fina" unicode="&#x66f;" horiz-adv-x="1570" 
d="M965 218q40 -13 102 -18q24 -1 56 -2l57 -2h93q-14 304 -187 431q-28 21 -64 21q-35 0 -75 -49q-34 -41 -51 -87q-15 -40 -22 -72q-11 -45 -11 -85q0 -104 102 -137zM409 -325q128 -113 348 -113q301 0 433 252q49 97 66 183h-24q-255 0 -368 50q-90 40 -143 116
q-57 82 -57 191q0 115 52 238q65 156 181 221q59 33 125 33q143 0 260 -129q174 -187 188 -520q13 -1 45 -1h56q41 0 70 -28q29 -29 29 -70q0 -42 -28 -70q-29 -28 -71 -28h-114q-24 -165 -106 -305q-80 -135 -196 -217q-166 -115 -398 -115q-264 0 -440 131
q-172 129 -222 353q-16 71 -16 155q0 146 49 297q40 124 107 251l175 -93q-112 -211 -130 -387q-3 -36 -3 -68q0 -210 132 -327z" />
    <glyph glyph-name="uni0672.fina" unicode="&#x672;" horiz-adv-x="662" 
d="M735 28q-29 -28 -70 -28q-337 0 -397 252q-11 45 -11 128v48l1 15l1 17q1 44 1 72v220q0 47 -1 86v82l-1 83q0 94 -3 167q-8 187 -31 308l196 36q36 -206 36 -652q1 -39 1 -86v-285q-1 -34 -1 -46v-84q0 -69 20 -102q21 -33 74 -49q44 -13 106 -14h9q42 0 71 -28
q28 -28 28 -70q0 -41 -29 -70zM216 1868q0 128 119 183q35 16 79 16q114 0 192 -84l-56 -69q-28 28 -56 43q-37 20 -80 20q-49 0 -79 -30q-29 -30 -29 -79q0 -57 43 -92q42 -33 103 -33h10q77 5 139 20l12 -87l-52 -15q-31 -9 -55 -14q-64 -14 -126 -14h-5q-48 0 -123 13
q-14 2 -37 9l-19 5l-18 5q-12 3 -23 3q-28 0 -57 -15q-24 -12 -42 -30l-11 -11q-6 -7 -12 -11l-48 65l15 14l17 16q20 19 37 31q46 33 94 33q14 0 29 -3q37 -7 99 -30q-60 57 -60 141z" />
    <glyph glyph-name="uni0673.fina" unicode="&#x673;" horiz-adv-x="629" 
d="M696 28q-29 -28 -70 -28q-393 0 -407 322q-1 15 -1 31v46q0 15 1 60t1 73q0 18 1 65v155q0 47 -1 86v82l-1 83q0 94 -3 167q-8 187 -31 308l196 36q22 -128 30 -314q6 -129 6 -338q1 -39 1 -86v-364l-1 -5v-46q0 -86 30 -116q45 -46 170 -48h9q42 0 71 -28q28 -29 28 -71
q0 -41 -29 -70zM268 -317q0 128 119 183q35 16 79 16q114 0 192 -84l-56 -69q-28 28 -56 43q-37 20 -80 20q-49 0 -79 -30q-29 -30 -29 -79q0 -57 43 -92q42 -33 103 -33h10q77 5 139 20l12 -87l-52 -15q-31 -9 -55 -14q-64 -14 -126 -14h-5q-48 0 -123 13q-14 2 -37 9
l-19 5l-18 5q-12 3 -23 3q-28 0 -57 -15q-24 -12 -42 -30l-11 -11q-6 -7 -12 -11l-48 65l15 14l17 16q20 19 37 31q46 33 94 33q14 0 29 -3q37 -7 99 -30q-60 57 -60 141z" />
    <glyph glyph-name="uni0675.fina" unicode="&#x675;" horiz-adv-x="640" 
d="M715 28q-29 -28 -70 -28q-337 0 -397 252q-11 45 -11 128v19q0 16 2 61q0 21 1 34v258q0 47 -1 86v82l-1 83q0 94 -3 167q-8 187 -31 308l196 36q36 -206 36 -652q1 -39 1 -86v-285q-1 -34 -1 -46v-84q0 -69 20 -102q21 -33 74 -49q44 -13 106 -14h9q42 0 71 -28
q28 -28 28 -70q0 -41 -29 -70zM214 1858q37 -25 79 -25q37 0 77 18q14 7 32 17l15 9l14 9q24 14 43 29l59 -78q-58 -42 -242 -142l-227 -126l-48 87l179 100q-57 24 -94 72q-41 54 -41 122q0 95 68 154q65 58 163 58q31 0 64 -6l28 -6l28 -7l-28 -92q-48 13 -92 13
q-35 0 -62 -12v2q-71 -31 -71 -104q0 -15 8 -36l-1 1q13 -33 49 -57z" />
    <glyph glyph-name="uni0676.fina" unicode="&#x676;" horiz-adv-x="1051" 
d="M1114 28q-29 -28 -71 -28h-90q-58 -285 -299 -476q-224 -179 -530 -226l-46 193q295 60 485 210q85 67 137 147q52 79 62 152h-30q-21 -1 -33 -1l-18 1h-19q-314 0 -433 147q-65 82 -65 214q0 202 121 358q101 128 234 128q142 0 261 -128q182 -201 188 -523h75
q44 0 72 -28t28 -71q0 -42 -29 -69zM458 623q-11 -10 -22 -26q-8 -11 -18 -27q-57 -96 -57 -207q0 -105 90 -141q61 -24 206 -24h21q64 2 92 4q-12 243 -137 384l-11 11l-11 10q-13 13 -26 21q-32 22 -66 22q-33 0 -61 -27zM372 1199q37 -25 79 -25q37 0 77 18q14 7 32 17
l15 9l14 9q24 14 43 29l59 -78q-58 -42 -242 -142l-227 -126l-48 87l179 100q-57 24 -94 72q-41 54 -41 122q0 95 68 154q65 58 163 58q31 0 64 -6l28 -6l28 -7l-28 -92q-48 13 -92 13q-35 0 -62 -12v2q-71 -31 -71 -104q0 -15 8 -36l-1 1q13 -33 49 -57z" />
    <glyph glyph-name="uni0677.fina" unicode="&#x677;" horiz-adv-x="1078" 
d="M1145 28q-29 -28 -71 -28h-90q-58 -285 -299 -476q-224 -179 -530 -226l-46 193q295 60 485 210q85 67 137 147q52 79 62 152h-30l-16 -1h-17l-18 1h-19q-314 0 -433 147q-65 82 -65 214q0 202 121 358q101 128 234 128q142 0 261 -128q182 -201 188 -523h75q44 0 72 -28
t28 -71q0 -42 -29 -69zM489 623q-11 -10 -22 -26q-8 -11 -18 -27q-57 -96 -57 -207q0 -105 90 -141q61 -24 206 -24h21q64 2 92 4q-12 243 -137 384l-11 11l-11 10q-13 13 -26 21q-32 22 -66 22q-33 0 -61 -27zM654 1715l-13 5l-11 4q-119 -119 -337 -173l-24 84
q175 49 272 122q-66 30 -95 50q-47 34 -62 80q-7 21 -7 42q0 31 16 61q13 24 35 46q54 54 122 54q31 0 55 -12q88 -42 88 -165q0 -56 -18 -114q5 -1 14 -4l8 -2l6 -2l-25 -83q-9 2 -24 7zM500 1985q-21 -16 -32 -39q-3 0 -5 -11q-1 -10 1 -17q7 -28 43 -49q11 -6 32 -16
l16 -7l15 -8l24 -11q5 21 7 41q4 27 4 49q0 88 -55 88q-26 0 -50 -20zM500 1242q37 -25 79 -25q37 0 77 18q14 7 32 17l15 9l14 9q24 14 43 29l59 -78q-58 -42 -242 -142l-227 -126l-48 87l179 100q-57 24 -94 72q-41 54 -41 122q0 95 68 154q65 58 163 58q31 0 64 -6l28 -6
l28 -7l-28 -92q-48 13 -92 13q-35 0 -62 -12v2q-71 -31 -71 -104q0 -15 8 -36l-1 1q13 -33 49 -57z" />
    <glyph glyph-name="uni0678.fina" unicode="&#x678;" horiz-adv-x="1685" 
d="M1477 0q109 -91 109 -210q-2 -155 -139 -266q-219 -176 -617 -176q-490 0 -635 242q-97 142 -97 361q0 154 50 348q43 166 121 353l183 -74q-128 -315 -152 -535q-5 -41 -5 -94q0 -392 421 -402l31 -1h30q31 -1 53 -1q255 0 440 95q53 27 81 57q38 41 38 93q0 18 -16 36
q-6 7 -15 15l-16 13q-56 45 -159 82q-75 27 -189 54q-29 7 -41 9l-22 4l15 194l770 -1q41 0 70 -28q29 -29 29 -70t-29 -70q-29 -28 -70 -28h-239zM737 618q37 -25 79 -25q37 0 77 18q14 7 32 17l15 9l14 9q24 14 43 29l59 -78q-58 -42 -242 -142l-227 -126l-48 87l179 100
q-57 24 -94 72q-41 54 -41 122q0 95 68 154q65 58 163 58q31 0 64 -6l28 -6l28 -7l-28 -92q-48 13 -92 13q-35 0 -62 -12v2q-71 -31 -71 -104q0 -15 8 -36l-1 1q13 -33 49 -57z" />
    <glyph glyph-name="uni067A.init" unicode="&#x67a;" horiz-adv-x="827" arabic-form="initial" 
d="M0 0q-41 0 -70 28q-28 28 -28 70t28 70q29 28 70 28h135l25 -1l14 1h13q124 0 205 23q103 29 134 95q14 31 14 78q0 86 -32 194q-22 73 -65 175l-33 75l178 88l3 -5q1 -4 3 -7l4 -8q54 -116 92 -242q47 -157 47 -266q0 -93 -30 -162q-88 -199 -321 -224q-88 -10 -170 -10
h-216zM341 1366l-164 164l163 163l164 -164zM340 977l-164 164l163 163l164 -164z" />
    <glyph glyph-name="uni067A.medi" unicode="&#x67a;" horiz-adv-x="864" arabic-form="medial" 
d="M-7 0q-42 0 -70 28t-28 70q0 41 28 70q29 29 70 29h76q299 0 389 121q31 41 31 107v12q-9 160 -46 297l187 53q55 -191 55 -350v-6q0 -104 36 -164q43 -71 130 -71q42 0 71 -28t29 -70t-28 -70t-70 -28q-178 0 -275 128q-133 -128 -509 -128h-76zM372 1250l-164 164
l163 163l164 -164zM371 861l-164 164l163 163l164 -164z" />
    <glyph glyph-name="uni067A.fina" unicode="&#x67a;" horiz-adv-x="2241" arabic-form="final" 
d="M2306 28q-29 -28 -70 -28h-8q-260 3 -385 164q-40 48 -62 109q-264 -276 -833 -276q-620 3 -793 295q-67 116 -67 256q0 166 96 358l173 -95l-9 -20q-47 -102 -54 -208v-11l-1 -11q0 -94 39 -159q119 -202 616 -206q436 0 634 161q129 100 205 353l190 -52q-2 -8 -5 -21
l-5 -22q-7 -29 -11 -50q-13 -61 -13 -99v-6q9 -263 293 -263q41 0 70 -29t29 -70t-29 -70zM1011 1029l-164 164l163 163l164 -164zM1010 640l-164 164l163 163l164 -164z" />
    <glyph glyph-name="uni067B.init" unicode="&#x67b;" horiz-adv-x="684" arabic-form="initial" 
d="M-7 0q-40 0 -69 29t-29 69q0 41 29 69q29 29 69 29h103q16 -1 46 -1q106 0 169 25q70 28 101 94q14 31 14 78q0 86 -32 194q-22 73 -65 175l-33 75l178 88l3 -5q1 -4 3 -7l4 -8q54 -116 92 -242q47 -157 47 -266q0 -93 -30 -162q-44 -101 -134 -161q-94 -63 -223 -70
q-51 -3 -97 -3h-146zM304 -506l-164 164l163 163l164 -164zM313 -905l-164 164l163 163l164 -164z" />
    <glyph glyph-name="uni067B.medi" unicode="&#x67b;" horiz-adv-x="705" arabic-form="medial" 
d="M4 0q-42 0 -70 28t-28 70q0 41 28 70q28 28 70 28h17q157 0 234 52q86 58 86 188q0 135 -46 297l188 53q54 -179 54 -350v-5q0 -103 37 -164q43 -71 130 -71q42 0 71 -28q28 -28 28 -70t-28 -70t-70 -28q-178 0 -274 124q-127 -124 -410 -124h-17zM376 -493l-164 164
l163 163l164 -164zM385 -892l-164 164l163 163l164 -164z" />
    <glyph glyph-name="uni067B.fina" unicode="&#x67b;" horiz-adv-x="2231" arabic-form="final" 
d="M2306 28q-29 -28 -70 -28h-8q-260 3 -385 164q-40 48 -62 109q-264 -276 -833 -276q-620 3 -793 295q-67 116 -67 256q0 166 96 358l173 -95l-9 -20q-47 -102 -54 -208v-11l-1 -11q0 -94 39 -159q119 -202 616 -206q436 0 634 161q129 100 205 353l190 -52q-2 -8 -5 -21
l-5 -22q-7 -29 -11 -50q-13 -61 -13 -99v-6q9 -263 293 -263q41 0 70 -29t29 -70t-29 -70zM1006 -505l-164 164l163 163l164 -164zM1015 -904l-164 164l163 163l164 -164z" />
    <glyph glyph-name="uni067C.init" unicode="&#x67c;" horiz-adv-x="799" 
d="M-7 0q-40 0 -69 29t-29 69q0 41 29 69q29 29 69 29h103q16 -1 46 -1q106 0 169 25q70 28 101 94q14 31 14 78q0 86 -32 194q-22 73 -65 175l-33 75l178 88l3 -5q1 -4 3 -7l4 -8q54 -116 92 -242q47 -157 47 -266q0 -93 -30 -162q-44 -101 -134 -161q-94 -63 -223 -70
q-51 -3 -97 -3h-146zM390 1604q27 34 27 77t-27 77q-29 35 -68 35q-40 0 -69 -36q-27 -34 -27 -76q0 -65 59 -102q17 -11 37 -11q40 0 68 36zM441 1856q43 -38 67 -98q15 -37 15 -77q0 -67 -37 -123q-34 -51 -86 -78q-37 -19 -78 -19q-68 0 -120 45q-44 38 -68 99
q-14 36 -14 76q0 68 37 124q33 48 86 76q37 19 79 19q67 0 119 -44zM165 1059l-164 163l162 163l164 -164zM543 1057l-164 164l162 162l164 -163z" />
    <glyph glyph-name="uni067C.medi" unicode="&#x67c;" horiz-adv-x="854" 
d="M-7 0q-42 0 -70 28t-28 70q0 41 28 70q29 29 70 29h76q299 0 389 121q31 41 31 107v12q-9 160 -46 297l187 53q55 -191 55 -350v-6q0 -104 36 -164q43 -71 130 -71q42 0 71 -28t29 -70t-28 -70t-70 -28q-178 0 -275 128q-133 -128 -509 -128h-76zM155 899l-164 163
l162 163l164 -164zM533 897l-164 164l162 162l164 -163zM303 1413q27 34 27 77t-27 77q-29 35 -68 35q-40 0 -69 -36q-27 -34 -27 -76q0 -65 59 -102q17 -11 37 -11q40 0 68 36zM354 1665q43 -38 67 -98q15 -37 15 -77q0 -67 -37 -123q-34 -51 -86 -78q-37 -19 -78 -19
q-68 0 -120 45q-44 38 -68 99q-14 36 -14 76q0 68 37 124q33 48 86 76q37 19 79 19q67 0 119 -44z" />
    <glyph glyph-name="uni067C.fina" unicode="&#x67c;" horiz-adv-x="2236" 
d="M2306 28q-29 -28 -70 -28h-8q-260 3 -385 164q-40 48 -62 109q-264 -276 -833 -276q-620 3 -793 295q-67 116 -67 256q0 166 96 358l173 -95l-9 -20q-47 -102 -54 -208v-11l-1 -11q0 -94 39 -159q119 -202 616 -206q436 0 634 161q129 100 205 353l190 -52q-2 -8 -5 -21
l-5 -22q-7 -29 -11 -50q-13 -61 -13 -99v-6q9 -263 293 -263q41 0 70 -29t29 -70t-29 -70zM875 803l-164 163l162 163l164 -164zM1253 801l-164 164l162 162l164 -163zM1003 1465q27 34 27 77t-27 77q-29 35 -68 35q-40 0 -69 -36q-27 -34 -27 -76q0 -65 59 -102
q17 -11 37 -11q40 0 68 36zM1054 1717q43 -38 67 -98q15 -37 15 -77q0 -67 -37 -123q-34 -51 -86 -78q-37 -19 -78 -19q-68 0 -120 45q-44 38 -68 99q-14 36 -14 76q0 68 37 124q33 48 86 76q37 19 79 19q67 0 119 -44z" />
    <glyph glyph-name="uni067D.init" unicode="&#x67d;" horiz-adv-x="827" 
d="M0 0q-41 0 -70 28q-28 28 -28 70t28 70q29 28 70 28h135l25 -1l14 1h13q124 0 205 23q103 29 134 95q14 31 14 78q0 86 -32 194q-22 73 -65 175l-33 75l178 88l3 -5q1 -4 3 -7l4 -8q54 -116 92 -242q47 -157 47 -266q0 -93 -30 -162q-88 -199 -321 -224q-88 -10 -170 -10
h-216zM170 1316l-164 164l162 162l164 -164zM524 1314l-164 164l162 163l164 -164zM356 1040l-164 164l162 162l164 -164z" />
    <glyph glyph-name="uni067D.medi" unicode="&#x67d;" horiz-adv-x="864" 
d="M-7 0q-42 0 -70 28t-28 70q0 41 28 70q29 29 70 29h76q299 0 389 121q31 41 31 107v12q-9 160 -46 297l187 53q55 -191 55 -350v-6q0 -104 36 -164q43 -71 130 -71q42 0 71 -28t29 -70t-28 -70t-70 -28q-178 0 -275 128q-133 -128 -509 -128h-76zM165 1242l-164 164
l162 162l164 -164zM519 1240l-164 164l162 163l164 -164zM351 966l-164 164l162 162l164 -164z" />
    <glyph glyph-name="uni067D.fina" unicode="&#x67d;" horiz-adv-x="2229" 
d="M2306 28q-29 -28 -70 -28h-8q-260 3 -385 164q-40 48 -62 109q-264 -276 -833 -276q-620 3 -793 295q-67 116 -67 256q0 166 96 358l173 -95l-9 -20q-47 -102 -54 -208v-11l-1 -11q0 -94 39 -159q119 -202 616 -206q436 0 634 161q129 100 205 353l190 -52q-2 -8 -5 -21
l-5 -22q-7 -29 -11 -50q-13 -61 -13 -99v-6q9 -263 293 -263q41 0 70 -29t29 -70t-29 -70zM833 922l-164 164l162 162l164 -164zM1187 920l-164 164l162 163l164 -164zM1019 646l-164 164l162 162l164 -164z" />
    <glyph glyph-name="uni067F.init" unicode="&#x67f;" horiz-adv-x="827" arabic-form="initial" 
d="M0 0q-41 0 -70 28q-28 28 -28 70t28 70q29 28 70 28h135l25 -1l14 1h13q124 0 205 23q103 29 134 95q14 31 14 78q0 86 -32 194q-22 73 -65 175l-33 75l178 88l3 -5q1 -4 3 -7l4 -8q54 -116 92 -242q47 -157 47 -266q0 -93 -30 -162q-88 -199 -321 -224q-88 -10 -170 -10
h-216zM574 1047l-164 164l162 162l164 -163zM214 1042l-164 163l162 163l164 -164zM571 1448l-164 164l162 162l164 -163zM211 1443l-164 163l162 163l164 -164z" />
    <glyph glyph-name="uni067F.medi" unicode="&#x67f;" horiz-adv-x="854" arabic-form="medial" 
d="M-7 0q-42 0 -70 28t-28 70q0 41 28 70q29 29 70 29h76q299 0 389 121q31 41 31 107v12q-9 160 -46 297l187 53q55 -191 55 -350v-6q0 -104 36 -164q43 -71 130 -71q42 0 71 -28t29 -70t-28 -70t-70 -28q-178 0 -275 128q-133 -128 -509 -128h-76zM523 928l-164 164
l162 162l164 -163zM163 923l-164 163l162 163l164 -164zM520 1329l-164 164l162 162l164 -163zM160 1324l-164 163l162 163l164 -164z" />
    <glyph glyph-name="uni067F.fina" unicode="&#x67f;" horiz-adv-x="2248" arabic-form="final" 
d="M2306 28q-29 -28 -70 -28h-8q-260 3 -385 164q-40 48 -62 109q-264 -276 -833 -276q-620 3 -793 295q-67 116 -67 256q0 166 96 358l173 -95l-9 -20q-47 -102 -54 -208v-11l-1 -11q0 -94 39 -159q119 -202 616 -206q436 0 634 161q129 100 205 353l190 -52q-2 -8 -5 -21
l-5 -22q-7 -29 -11 -50q-13 -61 -13 -99v-6q9 -263 293 -263q41 0 70 -29t29 -70t-29 -70zM1214 711l-164 164l162 162l164 -163zM854 706l-164 163l162 163l164 -164zM1211 1112l-164 164l162 162l164 -163zM851 1107l-164 163l162 163l164 -164z" />
    <glyph glyph-name="uni0680.init" unicode="&#x680;" horiz-adv-x="827" arabic-form="initial" 
d="M2 0q-41 0 -70 28q-28 28 -28 70t28 70q29 28 70 28h135l25 -1l14 1h13q124 0 205 23q103 29 134 95q14 31 14 78q0 86 -32 194q-22 73 -65 175l-33 75l178 88l3 -5q1 -4 3 -7l4 -8q54 -116 92 -242q47 -157 47 -266q0 -93 -30 -162q-88 -199 -321 -224q-88 -10 -170 -10
h-216zM530 -849l-164 164l162 162l164 -163zM170 -854l-164 163l162 163l164 -164zM527 -448l-164 164l162 162l164 -163zM167 -453l-164 163l162 163l164 -164z" />
    <glyph glyph-name="uni0680.medi" unicode="&#x680;" horiz-adv-x="864" arabic-form="medial" 
d="M-7 0q-42 0 -70 28t-28 70q0 41 28 70q29 29 70 29h76q299 0 389 121q31 41 31 107v12q-9 160 -46 297l187 53q55 -191 55 -350v-6q0 -104 36 -164q43 -71 130 -71q42 0 71 -28t29 -70t-28 -70t-70 -28q-178 0 -275 128q-133 -128 -509 -128h-76zM537 -893l-164 164
l162 162l164 -163zM177 -898l-164 163l162 163l164 -164zM534 -492l-164 164l162 162l164 -163zM174 -497l-164 163l162 163l164 -164z" />
    <glyph glyph-name="uni0680.fina" unicode="&#x680;" horiz-adv-x="2238" arabic-form="final" 
d="M2306 28q-29 -28 -70 -28h-8q-260 3 -385 164q-40 48 -62 109q-264 -276 -833 -276q-620 3 -793 295q-67 116 -67 256q0 166 96 358l173 -95l-9 -20q-47 -102 -54 -208v-11l-1 -11q0 -94 39 -159q119 -202 616 -206q436 0 634 161q129 100 205 353l190 -52q-2 -8 -5 -21
l-5 -22q-7 -29 -11 -50q-13 -61 -13 -99v-6q9 -263 293 -263q41 0 70 -29t29 -70t-29 -70zM1196 -887l-164 164l162 162l164 -163zM836 -892l-164 163l162 163l164 -164zM1193 -486l-164 164l162 162l164 -163zM833 -491l-164 163l162 163l164 -164z" />
    <glyph glyph-name="uni0681.init" unicode="&#x681;" horiz-adv-x="1598" 
d="M-1 0q-43 0 -71 28q-29 27 -29 70q0 42 29 70t71 28h198q242 0 528 93q222 73 489 207q-87 31 -219 92l-53 24l-53 25q-61 28 -108 47q-86 35 -147 35q-63 0 -121 -41q-39 -28 -82 -82q-44 -55 -69 -104q-9 -18 -11 -20l-180 81q1 1 9 17q107 214 270 299q89 47 184 47
q80 0 163 -26q34 -11 72 -27q24 -10 67 -30l56 -26l56 -27q68 -32 113 -52q132 -57 245 -82q59 -13 123 -13l38 -190q-103 -42 -283 -133q-411 -209 -788 -282q-146 -28 -299 -28h-198zM488 1264q37 -25 79 -25q37 0 77 18q14 7 32 17l15 9l14 9q24 14 43 29l59 -78
q-58 -42 -242 -142l-227 -126l-48 87l179 100q-57 24 -94 72q-41 54 -41 122q0 95 68 154q65 58 163 58q31 0 64 -6l28 -6l28 -7l-28 -92q-48 13 -92 13q-35 0 -62 -12v2q-71 -31 -71 -104q0 -15 8 -36l-1 1q13 -33 49 -57z" />
    <glyph glyph-name="uni0681.medi" unicode="&#x681;" horiz-adv-x="1680" 
d="M-70 28q-29 28 -29 69q0 43 29 71q28 28 70 28h183q235 0 497 92q107 38 236 98q51 23 114 54l112 56q-57 20 -129 53l-61 30l-62 30q-154 74 -260 99q-42 10 -69 10q-64 0 -121 -40q-39 -28 -82 -82q-38 -46 -78 -123l-181 82q0 2 7 16q104 206 272 298q89 48 183 48
q82 0 199 -41q62 -22 142 -58l68 -33l69 -32q171 -80 295 -107q59 -13 122 -13l39 -189q-83 -36 -182 -84q24 -85 125 -128q87 -36 215 -36h14q43 0 71 -28q28 -29 28 -71t-29 -69q-28 -28 -70 -28h-14q-195 0 -328 68q-138 70 -191 204q-391 -195 -686 -250
q-122 -23 -265 -23l-183 1q-41 0 -70 28zM455 1266q37 -25 79 -25q37 0 77 18q14 7 32 17l15 9l14 9q24 14 43 29l59 -78q-58 -42 -242 -142l-227 -126l-48 87l179 100q-57 24 -94 72q-41 54 -41 122q0 95 68 154q65 58 163 58q31 0 64 -6l28 -6l28 -7l-28 -92
q-48 13 -92 13q-35 0 -62 -12v2q-71 -31 -71 -104q0 -15 8 -36l-1 1q13 -33 49 -57z" />
    <glyph glyph-name="uni0681.fina" unicode="&#x681;" horiz-adv-x="1702" 
d="M912 -791q-289 0 -498 154q-261 192 -261 482q0 77 21 161q33 134 132 272q252 293 811 360l-108 52q-115 57 -192 92q-110 49 -183 49q-117 0 -213 -102q-62 -69 -88 -132l-184 76q9 28 32 64l21 31l11 15l10 15q103 146 249 202q78 29 159 29q113 0 247 -59
q69 -30 173 -80l87 -43l89 -42q215 -102 369 -153l-38 -192h-27l-11 1q-15 1 -26 1h-44q-17 -1 -26 -1l-21 -1l-22 -1q-26 -1 -47 -2q-2 -14 -2 -31q0 -137 108 -190q82 -40 260 -40q42 0 71 -29q28 -29 28 -71q0 -40 -29 -68t-70 -28q-218 0 -347 62q-141 67 -194 214
q-21 59 -24 125q-3 21 0 38q-261 -31 -447 -116q-235 -118 -312 -311q-27 -66 -27 -148q0 -248 232 -382q146 -83 336 -86h7l6 -1q297 0 488 182l129 -152q-242 -216 -635 -216zM531 1373q37 -25 79 -25q37 0 77 18q14 7 32 17l15 9l14 9q24 14 43 29l59 -78
q-58 -42 -242 -142l-227 -126l-48 87l179 100q-57 24 -94 72q-41 54 -41 122q0 95 68 154q65 58 163 58q31 0 64 -6l28 -6l28 -7l-28 -92q-48 13 -92 13q-35 0 -62 -12v2q-71 -31 -71 -104q0 -15 8 -36l-1 1q13 -33 49 -57z" />
    <glyph glyph-name="uni0682.init" unicode="&#x682;" horiz-adv-x="1620" 
d="M-1 0q-43 0 -71 28q-29 27 -29 70q0 42 29 70t71 28h198q242 0 528 93q222 73 489 207q-87 31 -219 92l-53 24l-53 25q-61 28 -108 47q-86 35 -147 35q-63 0 -121 -41q-39 -28 -82 -82q-44 -55 -69 -104q-9 -18 -11 -20l-180 81q1 1 9 17q107 214 270 299q89 47 184 47
q80 0 163 -26q34 -11 72 -27q24 -10 67 -30l56 -26l56 -27q68 -32 113 -52q132 -57 245 -82q59 -13 123 -13l38 -190q-103 -42 -283 -133q-411 -209 -788 -282q-146 -28 -299 -28h-198zM528 1429l-164 164l163 163l164 -164zM527 1040l-164 164l163 163l164 -164z" />
    <glyph glyph-name="uni0682.medi" unicode="&#x682;" horiz-adv-x="1658" 
d="M-70 28q-29 28 -29 69q0 43 29 71q28 28 70 28h183q235 0 497 92q107 38 236 98q51 23 114 54l112 56q-57 20 -129 53l-61 30l-62 30q-154 74 -260 99q-42 10 -69 10q-64 0 -121 -40q-39 -28 -82 -82q-38 -46 -78 -123l-181 82q0 2 7 16q104 206 272 298q89 48 183 48
q82 0 199 -41q62 -22 142 -58l68 -33l69 -32q171 -80 295 -107q59 -13 122 -13l39 -189q-83 -36 -182 -84q24 -85 125 -128q87 -36 215 -36h14q43 0 71 -28q28 -29 28 -71t-29 -69q-28 -28 -70 -28h-14q-195 0 -328 68q-138 70 -191 204q-391 -195 -686 -250
q-122 -23 -265 -23l-183 1q-41 0 -70 28zM475 1432l-164 164l163 163l164 -164zM474 1043l-164 164l163 163l164 -164z" />
    <glyph glyph-name="uni0682.fina" unicode="&#x682;" horiz-adv-x="1702" 
d="M912 -791q-289 0 -498 154q-261 192 -261 482q0 77 21 161q33 134 132 272q252 293 811 360l-108 52q-115 57 -192 92q-110 49 -183 49q-117 0 -213 -102q-62 -69 -88 -132l-184 76q9 28 32 64l21 31l11 15l10 15q103 146 249 202q78 29 159 29q113 0 247 -59
q69 -30 173 -80l87 -43l89 -42q215 -102 369 -153l-38 -192h-27l-11 1q-15 1 -26 1h-44q-17 -1 -26 -1l-21 -1l-22 -1q-26 -1 -47 -2q-2 -14 -2 -31q0 -137 108 -190q82 -40 260 -40q42 0 71 -29q28 -29 28 -71q0 -40 -29 -68t-70 -28q-218 0 -347 62q-141 67 -194 214
q-21 59 -24 125q-3 21 0 38q-261 -31 -447 -116q-235 -118 -312 -311q-27 -66 -27 -148q0 -248 232 -382q146 -83 336 -86h7l6 -1q297 0 488 182l129 -152q-242 -216 -635 -216zM596 1590l-164 164l163 163l164 -164zM595 1201l-164 164l163 163l164 -164z" />
    <glyph glyph-name="uni0683.init" unicode="&#x683;" horiz-adv-x="1581" arabic-form="initial" 
d="M-1 0q-43 0 -71 28q-29 27 -29 70q0 42 29 70t71 28h198q242 0 528 93q222 73 489 207q-87 31 -219 92l-53 24l-53 25q-61 28 -108 47q-86 35 -147 35q-63 0 -121 -41q-39 -28 -82 -82q-44 -55 -69 -104q-9 -18 -11 -20l-180 81q1 1 9 17q107 214 270 299q89 47 184 47
q80 0 163 -26q34 -11 72 -27q24 -10 67 -30l56 -26l56 -27q68 -32 113 -52q132 -57 245 -82q59 -13 123 -13l38 -190q-103 -42 -283 -133q-411 -209 -788 -282q-146 -28 -299 -28h-198zM455 -531l-164 163l162 163l164 -164zM849 -533l-164 164l162 162l164 -163z" />
    <glyph glyph-name="uni0683.medi" unicode="&#x683;" horiz-adv-x="1658" arabic-form="medial" 
d="M-70 28q-29 28 -29 69q0 43 29 71q28 28 70 28h183q235 0 497 92q107 38 236 98q51 23 114 54l112 56q-57 20 -129 53l-61 30l-62 30q-154 74 -260 99q-42 10 -69 10q-64 0 -121 -40q-39 -28 -82 -82q-38 -46 -78 -123l-181 82q0 2 7 16q104 206 272 298q89 48 183 48
q82 0 199 -41q62 -22 142 -58l68 -33l69 -32q171 -80 295 -107q59 -13 122 -13l39 -189q-83 -36 -182 -84q24 -85 125 -128q87 -36 215 -36h14q43 0 71 -28q28 -29 28 -71t-29 -69q-28 -28 -70 -28h-14q-195 0 -328 68q-138 70 -191 204q-391 -195 -686 -250
q-122 -23 -265 -23l-183 1q-41 0 -70 28zM567 -515l-164 163l162 163l164 -164zM961 -517l-164 164l162 162l164 -163z" />
    <glyph glyph-name="uni0683.fina" unicode="&#x683;" horiz-adv-x="1696" arabic-form="final" 
d="M912 -791q-289 0 -498 154q-261 192 -261 482q0 77 21 161q33 134 132 272q252 293 811 360l-108 52q-115 57 -192 92q-110 49 -183 49q-117 0 -213 -102q-62 -69 -88 -132l-184 76q9 28 32 64l21 31l11 15l10 15q103 146 249 202q78 29 159 29q113 0 247 -59
q69 -30 173 -80l87 -43l89 -42q215 -102 369 -153l-38 -192h-27l-11 1q-15 1 -26 1h-44q-17 -1 -26 -1l-21 -1l-22 -1q-26 -1 -47 -2q-2 -14 -2 -31q0 -137 108 -190q82 -40 260 -40q42 0 71 -29q28 -29 28 -71q0 -40 -29 -68t-70 -28q-218 0 -347 62q-141 67 -194 214
q-21 59 -24 125q-3 21 0 38q-261 -31 -447 -116q-235 -118 -312 -311q-27 -66 -27 -148q0 -248 232 -382q146 -83 336 -86h7l6 -1q297 0 488 182l129 -152q-242 -216 -635 -216zM697 -267l-164 163l162 163l164 -164zM1091 -269l-164 164l162 162l164 -163z" />
    <glyph glyph-name="uni0684.init" unicode="&#x684;" horiz-adv-x="1581" arabic-form="initial" 
d="M-1 0q-43 0 -71 28q-29 27 -29 70q0 42 29 70t71 28h198q242 0 528 93q222 73 489 207q-87 31 -219 92l-53 24l-53 25q-61 28 -108 47q-86 35 -147 35q-63 0 -121 -41q-39 -28 -82 -82q-44 -55 -69 -104q-9 -18 -11 -20l-180 81q1 1 9 17q107 214 270 299q89 47 184 47
q80 0 163 -26q34 -11 72 -27q24 -10 67 -30l56 -26l56 -27q68 -32 113 -52q132 -57 245 -82q59 -13 123 -13l38 -190q-103 -42 -283 -133q-411 -209 -788 -282q-146 -28 -299 -28h-198zM638 -458l-164 164l163 163l164 -164zM647 -857l-164 164l163 163l164 -164z" />
    <glyph glyph-name="uni0684.medi" unicode="&#x684;" horiz-adv-x="1663" arabic-form="medial" 
d="M-70 28q-29 28 -29 69q0 43 29 71q28 28 70 28h183q235 0 497 92q107 38 236 98q51 23 114 54l112 56q-57 20 -129 53l-61 30l-62 30q-154 74 -260 99q-42 10 -69 10q-64 0 -121 -40q-39 -28 -82 -82q-38 -46 -78 -123l-181 82q0 2 7 16q104 206 272 298q89 48 183 48
q82 0 199 -41q62 -22 142 -58l68 -33l69 -32q171 -80 295 -107q59 -13 122 -13l39 -189q-83 -36 -182 -84q24 -85 125 -128q87 -36 215 -36h14q43 0 71 -28q28 -29 28 -71t-29 -69q-28 -28 -70 -28h-14q-195 0 -328 68q-138 70 -191 204q-391 -195 -686 -250
q-122 -23 -265 -23l-183 1q-41 0 -70 28zM708 -458l-164 164l163 163l164 -164zM717 -857l-164 164l163 163l164 -164z" />
    <glyph glyph-name="uni0684.fina" unicode="&#x684;" horiz-adv-x="1738" arabic-form="final" 
d="M932 -791q-289 0 -498 154q-261 192 -261 482q0 77 21 161q33 134 132 272q252 293 811 360l-108 52q-115 57 -192 92q-110 49 -183 49q-117 0 -213 -102q-62 -69 -88 -132l-184 76q9 28 32 64l21 31l11 15l10 15q103 146 249 202q78 29 159 29q113 0 247 -59
q69 -30 173 -80l87 -43l89 -42q215 -102 369 -153l-38 -192h-27l-11 1q-15 1 -26 1h-44l-13 -1h-13l-21 -1l-22 -1q-26 -1 -47 -2q-2 -14 -2 -31q0 -137 108 -190q82 -40 260 -40q42 0 71 -29q28 -29 28 -71q0 -40 -29 -68t-70 -28q-218 0 -347 62q-141 67 -194 214
q-21 59 -24 125q-3 21 0 38q-261 -31 -447 -116q-235 -118 -312 -311q-27 -66 -27 -148q0 -248 232 -382q146 -83 336 -86h7l6 -1q297 0 488 182l129 -152q-242 -216 -635 -216zM951 -82l-164 164l163 163l164 -164zM960 -481l-164 164l163 163l164 -164z" />
    <glyph glyph-name="uni0685.init" unicode="&#x685;" horiz-adv-x="1570" 
d="M-1 0q-43 0 -71 28q-29 27 -29 70q0 42 29 70t71 28h198q242 0 528 93q222 73 489 207q-87 31 -219 92l-53 24l-53 25q-61 28 -108 47q-86 35 -147 35q-63 0 -121 -41q-39 -28 -82 -82q-44 -55 -69 -104q-9 -18 -11 -20l-180 81q1 1 9 17q107 214 270 299q89 47 184 47
q80 0 163 -26q34 -11 72 -27q24 -10 67 -30l56 -26l56 -27q68 -32 113 -52q132 -57 245 -82q59 -13 123 -13l38 -190q-103 -42 -283 -133q-411 -209 -788 -282q-146 -28 -299 -28h-198zM722 1362l164 -164l-162 -162l-164 164zM316 1364l164 -164l-162 -163l-164 164z
M525 1639l149 -149l-148 -148l-149 149z" />
    <glyph glyph-name="uni0685.medi" unicode="&#x685;" horiz-adv-x="1663" 
d="M-70 28q-29 28 -29 69q0 43 29 71q28 28 70 28h183q235 0 497 92q107 38 236 98q51 23 114 54l112 56q-57 20 -129 53l-61 30l-62 30q-154 74 -260 99q-42 10 -69 10q-64 0 -121 -40q-39 -28 -82 -82q-38 -46 -78 -123l-181 82q0 2 7 16q104 206 272 298q89 48 183 48
q82 0 199 -41q62 -22 142 -58l68 -33l69 -32q171 -80 295 -107q59 -13 122 -13l39 -189q-83 -36 -182 -84q24 -85 125 -128q87 -36 215 -36h14q43 0 71 -28q28 -29 28 -71t-29 -69q-28 -28 -70 -28h-14q-195 0 -328 68q-138 70 -191 204q-391 -195 -686 -250
q-122 -23 -265 -23l-183 1q-41 0 -70 28zM722 1358l164 -164l-162 -162l-164 164zM316 1360l164 -164l-162 -163l-164 164zM525 1635l149 -149l-148 -148l-149 149z" />
    <glyph glyph-name="uni0685.fina" unicode="&#x685;" horiz-adv-x="1691" 
d="M912 -791q-289 0 -498 154q-261 192 -261 482q0 77 21 161q33 134 132 272q252 293 811 360l-108 52q-115 57 -192 92q-110 49 -183 49q-117 0 -213 -102q-62 -69 -88 -132l-184 76q9 28 32 64l21 31l11 15l10 15q103 146 249 202q78 29 159 29q113 0 247 -59
q69 -30 173 -80l87 -43l89 -42q215 -102 369 -153l-38 -192h-27l-11 1q-15 1 -26 1h-44q-17 -1 -26 -1l-21 -1l-22 -1q-26 -1 -47 -2q-2 -14 -2 -31q0 -137 108 -190q82 -40 260 -40q42 0 71 -29q28 -29 28 -71q0 -40 -29 -68t-70 -28q-218 0 -347 62q-141 67 -194 214
q-21 59 -24 125q-3 21 0 38q-261 -31 -447 -116q-235 -118 -312 -311q-27 -66 -27 -148q0 -248 232 -382q146 -83 336 -86h7l6 -1q297 0 488 182l129 -152q-242 -216 -635 -216zM807 1514l164 -164l-162 -162l-164 164zM401 1516l164 -164l-162 -163l-164 164zM610 1791
l149 -149l-148 -148l-149 149z" />
    <glyph glyph-name="uni0687.init" unicode="&#x687;" horiz-adv-x="1565" arabic-form="initial" 
d="M-1 0q-43 0 -71 28q-29 27 -29 70q0 42 29 70t71 28h198q242 0 528 93q222 73 489 207q-87 31 -219 92l-53 24l-53 25q-61 28 -108 47q-86 35 -147 35q-63 0 -121 -41q-39 -28 -82 -82q-44 -55 -69 -104q-9 -18 -11 -20l-180 81q1 1 9 17q107 214 270 299q89 47 184 47
q80 0 163 -26q34 -11 72 -27q24 -10 67 -30l56 -26l56 -27q68 -32 113 -52q132 -57 245 -82q59 -13 123 -13l38 -190q-103 -42 -283 -133q-411 -209 -788 -282q-146 -28 -299 -28h-198zM809 -837l-164 164l162 162l164 -163zM449 -842l-164 163l162 163l164 -164zM806 -436
l-164 164l162 162l164 -163zM446 -441l-164 163l162 163l164 -164z" />
    <glyph glyph-name="uni0687.medi" unicode="&#x687;" horiz-adv-x="1658" arabic-form="medial" 
d="M-70 28q-29 28 -29 69q0 43 29 71q28 28 70 28h183q235 0 497 92q107 38 236 98q51 23 114 54l112 56q-57 20 -129 53l-61 30l-62 30q-154 74 -260 99q-42 10 -69 10q-64 0 -121 -40q-39 -28 -82 -82q-38 -46 -78 -123l-181 82q0 2 7 16q104 206 272 298q89 48 183 48
q82 0 199 -41q62 -22 142 -58l68 -33l69 -32q171 -80 295 -107q59 -13 122 -13l39 -189q-83 -36 -182 -84q24 -85 125 -128q87 -36 215 -36h14q43 0 71 -28q28 -29 28 -71t-29 -69q-28 -28 -70 -28h-14q-195 0 -328 68q-138 70 -191 204q-391 -195 -686 -250
q-122 -23 -265 -23l-183 1q-41 0 -70 28zM794 -812l-164 164l162 162l164 -163zM434 -817l-164 163l162 163l164 -164zM791 -411l-164 164l162 162l164 -163zM431 -416l-164 163l162 163l164 -164z" />
    <glyph glyph-name="uni0687.fina" unicode="&#x687;" horiz-adv-x="1722" arabic-form="final" 
d="M932 -791q-289 0 -498 154q-261 192 -261 482q0 77 21 161q33 134 132 272q252 293 811 360l-108 52q-115 57 -192 92q-110 49 -183 49q-117 0 -213 -102q-62 -69 -88 -132l-184 76q9 28 32 64l21 31l11 15l10 15q103 146 249 202q78 29 159 29q113 0 247 -59
q69 -30 173 -80l87 -43l89 -42q215 -102 369 -153l-38 -192h-27l-11 1q-15 1 -26 1h-44l-13 -1h-13l-21 -1l-22 -1q-26 -1 -47 -2q-2 -14 -2 -31q0 -137 108 -190q82 -40 260 -40q42 0 71 -29q28 -29 28 -71q0 -40 -29 -68t-70 -28q-218 0 -347 62q-141 67 -194 214
q-21 59 -24 125q-3 21 0 38q-261 -31 -447 -116q-235 -118 -312 -311q-27 -66 -27 -148q0 -248 232 -382q146 -83 336 -86h7l6 -1q297 0 488 182l129 -152q-242 -216 -635 -216zM1112 -475l-164 164l162 162l164 -163zM752 -480l-164 163l162 163l164 -164zM1109 -74
l-164 164l162 162l164 -163zM749 -79l-164 163l162 163l164 -164z" />
    <glyph glyph-name="uni0689.fina" unicode="&#x689;" horiz-adv-x="1242" 
d="M530 0q-225 0 -404 185l113 159q122 -111 235 -135q41 -9 82 -9q78 0 158 35q70 31 116 77l-316 760l182 76q63 -156 149 -362q31 -75 77 -185l40 -95l40 -97l10 -23l9 -23q11 -26 17 -41q25 -66 73 -95q49 -31 138 -31q41 0 70 -28q29 -29 29 -70t-29 -70
q-29 -28 -70 -28q-219 0 -322 133q-179 -133 -397 -133zM463 1541q27 34 27 77t-27 77q-29 35 -68 35q-40 0 -69 -36q-27 -34 -27 -76q0 -65 59 -102q17 -11 37 -11q40 0 68 36zM514 1793q43 -38 67 -98q15 -37 15 -77q0 -67 -37 -123q-34 -51 -86 -78q-37 -19 -78 -19
q-68 0 -120 45q-44 38 -68 99q-14 36 -14 76q0 68 37 124q33 48 86 76q37 19 79 19q67 0 119 -44z" />
    <glyph glyph-name="uni068A.fina" unicode="&#x68a;" horiz-adv-x="1253" 
d="M530 0q-225 0 -404 185l113 159q122 -111 235 -135q41 -9 82 -9q78 0 158 35q70 31 116 77l-316 760l182 76q63 -156 149 -362q31 -75 77 -185l40 -95l40 -97l10 -23l9 -23q11 -26 17 -41q25 -66 73 -95q49 -31 138 -31q41 0 70 -28q29 -29 29 -70t-29 -70
q-29 -28 -70 -28q-219 0 -322 133q-179 -133 -397 -133zM544 -521l-164 164l163 163l164 -164z" />
    <glyph glyph-name="uni068B.fina" unicode="&#x68b;" horiz-adv-x="1258" 
d="M530 0q-225 0 -404 185l113 159q122 -111 235 -135q41 -9 82 -9q78 0 158 35q70 31 116 77l-316 760l182 76q63 -156 149 -362q31 -75 77 -185l40 -95l40 -97l10 -23l9 -23q11 -26 17 -41q25 -66 73 -95q49 -31 138 -31q41 0 70 -28q29 -29 29 -70t-29 -70
q-29 -28 -70 -28q-219 0 -322 133q-179 -133 -397 -133zM544 -521l-164 164l163 163l164 -164zM323 1410q9 14 27 37l14 20l15 19q11 71 11 124q0 45 -5 112l-5 55q-3 36 -4 53q-7 80 -15 131l84 16l3 -24q6 -43 13 -136l6 -70q3 -38 7 -67q1 -8 1 -32v-23q0 -17 1 -35
q103 97 197 112l14 1l14 1q73 0 121 -38q52 -41 52 -109q0 -19 -4 -36q-13 -64 -58 -109l-1 -2q-114 -106 -301 -106h-28q-10 0 -26 2h-3q-139 7 -272 60l32 79q51 -18 110 -35zM457 1391h2q21 -1 67 -1q133 0 226 81q37 33 37 72q0 16 -7 31q-21 44 -73 44q-54 0 -118 -43
q-60 -42 -129 -123l-23 -29l-22 -29q21 -3 40 -3z" />
    <glyph glyph-name="uni068C.fina" unicode="&#x68c;" horiz-adv-x="1253" arabic-form="final" 
d="M530 0q-225 0 -404 185l113 159q122 -111 235 -135q41 -9 82 -9q78 0 158 35q70 31 116 77l-316 760l182 76q63 -156 149 -362q31 -75 77 -185l40 -95l40 -97l10 -23l9 -23q11 -26 17 -41q25 -66 73 -95q49 -31 138 -31q41 0 70 -28q29 -29 29 -70t-29 -70
q-29 -28 -70 -28q-219 0 -322 133q-179 -133 -397 -133zM457 1263l-164 163l162 163l164 -164zM835 1261l-164 164l162 162l164 -163z" />
    <glyph glyph-name="uni068D.fina" unicode="&#x68d;" horiz-adv-x="1247" arabic-form="final" 
d="M530 0q-225 0 -404 185l113 159q122 -111 235 -135q41 -9 82 -9q78 0 158 35q70 31 116 77l-316 760l182 76q63 -156 149 -362q31 -75 77 -185l40 -95l40 -97l10 -23l9 -23q11 -26 17 -41q25 -66 73 -95q49 -31 138 -31q41 0 70 -28q29 -29 29 -70t-29 -70
q-29 -28 -70 -28q-219 0 -322 133q-179 -133 -397 -133zM434 -529l-164 163l162 163l164 -164zM828 -531l-164 164l162 162l164 -163z" />
    <glyph glyph-name="uni068E.fina" unicode="&#x68e;" horiz-adv-x="1258" arabic-form="final" 
d="M530 0q-225 0 -404 185l113 159q122 -111 235 -135q41 -9 82 -9q78 0 158 35q70 31 116 77l-316 760l182 76q63 -156 149 -362q31 -75 77 -185l40 -95l40 -97l10 -23l9 -23q11 -26 17 -41q25 -66 73 -95q49 -31 138 -31q41 0 70 -28q29 -29 29 -70t-29 -70
q-29 -28 -70 -28q-219 0 -322 133q-179 -133 -397 -133zM877 1587l164 -164l-162 -162l-164 164zM471 1589l164 -164l-162 -163l-164 164zM680 1864l149 -149l-148 -148l-149 149z" />
    <glyph glyph-name="uni068F.fina" unicode="&#x68f;" horiz-adv-x="1264" 
d="M530 0q-225 0 -404 185l113 159q122 -111 235 -135q41 -9 82 -9q78 0 158 35q70 31 116 77l-316 760l182 76q63 -156 149 -362q31 -75 77 -185l40 -95l40 -97l10 -23l9 -23q11 -26 17 -41q25 -66 73 -95q49 -31 138 -31q41 0 70 -28q29 -29 29 -70t-29 -70
q-29 -28 -70 -28q-219 0 -322 133q-179 -133 -397 -133zM394 1518l-164 164l162 162l164 -164zM748 1516l-164 164l162 163l164 -164zM580 1242l-164 164l162 162l164 -164z" />
    <glyph glyph-name="uni0690.fina" unicode="&#x690;" horiz-adv-x="1253" 
d="M530 0q-225 0 -404 185l113 159q122 -111 235 -135q41 -9 82 -9q78 0 158 35q70 31 116 77l-316 760l182 76q63 -156 149 -362q31 -75 77 -185l40 -95l40 -97l10 -23l9 -23q11 -26 17 -41q25 -66 73 -95q49 -31 138 -31q41 0 70 -28q29 -29 29 -70t-29 -70
q-29 -28 -70 -28q-219 0 -322 133q-179 -133 -397 -133zM817 1241l-164 164l162 162l164 -163zM457 1236l-164 163l162 163l164 -164zM814 1642l-164 164l162 162l164 -163zM454 1637l-164 163l162 163l164 -164z" />
    <glyph glyph-name="uni0692.fina" unicode="&#x692;" horiz-adv-x="821" 
d="M824 0q-126 0 -199 73v-4q0 -162 -97 -327q-81 -137 -244 -274q-137 -115 -320 -206l-86 177q254 133 393 284q110 119 144 248q13 46 13 98q0 13 -2 37q-14 109 -49 240q-23 87 -67 222l188 58q75 -231 150 -330q37 -49 70 -71q44 -29 102 -29h5q43 0 71 -28
q28 -29 28 -71t-29 -69q-28 -28 -70 -28h-1zM356 756q-68 209 -140 312q-27 38 -53 57l64 92q45 -31 100 -116q54 -83 84 -167l17 46l15 47q20 59 34 91q40 102 95 153l77 -82q-39 -35 -69 -109q-10 -26 -24 -67l-11 -33l-11 -33q-40 -121 -73 -197z" />
    <glyph glyph-name="uni0693.fina" unicode="&#x693;" horiz-adv-x="818" 
d="M824 0q-126 0 -199 73v-4q0 -162 -97 -327q-81 -137 -244 -274q-137 -115 -320 -206l-86 177q254 133 393 284q110 119 144 248q13 46 13 98q0 13 -2 37q-14 109 -49 240q-23 87 -67 222l188 58q75 -231 150 -330q37 -49 70 -71q44 -29 102 -29h5q43 0 71 -28
q28 -29 28 -71t-29 -69q-28 -28 -70 -28h-1zM368 1057q27 34 27 77t-27 77q-29 35 -68 35q-40 0 -69 -36q-27 -34 -27 -76q0 -65 59 -102q17 -11 37 -11q40 0 68 36zM419 1309q43 -38 67 -98q15 -37 15 -77q0 -67 -37 -123q-34 -51 -86 -78q-37 -19 -78 -19q-68 0 -120 45
q-44 38 -68 99q-14 36 -14 76q0 68 37 124q33 48 86 76q37 19 79 19q67 0 119 -44z" />
    <glyph glyph-name="uni0694.fina" unicode="&#x694;" horiz-adv-x="818" 
d="M824 0q-126 0 -199 73v-4q0 -162 -97 -327q-81 -137 -244 -274q-137 -115 -320 -206l-86 177q254 133 393 284q110 119 144 248q13 46 13 98q0 13 -2 37q-14 109 -49 240q-23 87 -67 222l188 58q75 -231 150 -330q37 -49 70 -71q44 -29 102 -29h5q43 0 71 -28
q28 -29 28 -71t-29 -69q-28 -28 -70 -28h-1zM679 -789l-164 164l163 163l164 -164z" />
    <glyph glyph-name="uni0695.fina" unicode="&#x695;" horiz-adv-x="819" 
d="M824 0q-126 0 -199 73v-4q0 -162 -97 -327q-81 -137 -244 -274q-137 -115 -320 -206l-86 177q254 133 393 284q110 119 144 248q13 46 13 98q0 13 -2 37q-14 109 -49 240q-23 87 -67 222l188 58q75 -231 150 -330q37 -49 70 -71q44 -29 102 -29h5q43 0 71 -28
q28 -29 28 -71t-29 -69q-28 -28 -70 -28h-1zM481 -1098q-68 209 -140 312q-27 38 -53 57l64 92q45 -31 100 -116q54 -83 84 -167l17 46l15 47q20 59 34 91q40 102 95 153l77 -82q-39 -35 -69 -109q-10 -26 -24 -67l-11 -33l-11 -33q-40 -121 -73 -197z" />
    <glyph glyph-name="uni0696.fina" unicode="&#x696;" horiz-adv-x="822" 
d="M824 0q-126 0 -199 73v-4q0 -162 -97 -327q-81 -137 -244 -274q-137 -115 -320 -206l-86 177q254 133 393 284q110 119 144 248q13 46 13 98q0 13 -2 37q-14 109 -49 240q-23 87 -67 222l188 58q75 -231 150 -330q37 -49 70 -71q44 -29 102 -29h5q43 0 71 -28
q28 -29 28 -71t-29 -69q-28 -28 -70 -28h-1zM663 -693l-164 164l163 163l164 -164zM178 21l-164 164l163 163l164 -164z" />
    <glyph glyph-name="uni0697.fina" unicode="&#x697;" horiz-adv-x="815" 
d="M824 0q-126 0 -199 73v-4q0 -162 -97 -327q-81 -137 -244 -274q-137 -115 -320 -206l-86 177q254 133 393 284q110 119 144 248q13 46 13 98q0 13 -2 37q-14 109 -49 240q-23 87 -67 222l188 58q75 -231 150 -330q37 -49 70 -71q44 -29 102 -29h5q43 0 71 -28
q28 -29 28 -71t-29 -69q-28 -28 -70 -28h-1zM175 762l-164 163l162 163l164 -164zM553 760l-164 164l162 162l164 -163z" />
    <glyph glyph-name="uni0699.fina" unicode="&#x699;" horiz-adv-x="821" 
d="M824 0q-126 0 -199 73v-4q0 -162 -97 -327q-81 -137 -244 -274q-137 -115 -320 -206l-86 177q254 133 393 284q110 119 144 248q13 46 13 98q0 13 -2 37q-14 109 -49 240q-23 87 -67 222l188 58q75 -231 150 -330q37 -49 70 -71q44 -29 102 -29h5q43 0 71 -28
q28 -29 28 -71t-29 -69q-28 -28 -70 -28h-1zM528 747l-164 164l162 162l164 -163zM168 742l-164 163l162 163l164 -164zM525 1148l-164 164l162 162l164 -163zM165 1143l-164 163l162 163l164 -164z" />
    <glyph glyph-name="uni069A.init" unicode="&#x69a;" horiz-adv-x="1614" 
d="M0 -1q-41 3 -66 29q-26 27 -26 69q0 41 27 69q25 27 65 30q120 0 199 90q53 61 103 188q37 96 58 214l198 -42l-11 -35l-12 -36q-13 -44 -22 -78q-24 -93 -24 -168q0 -142 108 -142q53 0 98 32q33 24 65 69q96 138 139 429l192 -35q-2 -14 -5 -34l-6 -36q-9 -48 -13 -76
q-14 -95 -14 -158q0 -180 107 -191q21 -3 39 -3q92 0 124 66h-1q25 43 25 110q0 60 -17 133q-7 28 -18 62q-6 22 -18 57q-41 124 -84 205l175 92q8 -19 21 -47l11 -25l12 -25q29 -63 45 -105q72 -191 72 -344q0 -180 -99 -278q-98 -97 -280 -97h-7q-113 0 -215 92
q-27 25 -51 60q-131 -152 -297 -152q-90 0 -163 42q-71 42 -100 108q-131 -136 -318 -139h-16zM939 -530l-164 164l163 163l164 -164zM1002 973l-164 164l163 163l164 -164z" />
    <glyph glyph-name="uni069A.medi" unicode="&#x69a;" horiz-adv-x="1876" 
d="M0 0q-42 0 -70 28q-29 28 -29 70q0 41 30 69q28 26 69 29h10q45 0 87 26q30 18 64 54q111 117 198 378l6 17l6 18q7 21 7 32l192 -53q-2 -2 -4 -10l-1 -7l-2 -7q-16 -61 -27 -127q-12 -79 -12 -142q0 -84 16 -124q21 -56 79 -56q39 0 73 25q83 63 141 213q43 109 77 281
q3 15 3 16l195 -37q-4 -4 -7 -24l-2 -17q-1 -10 -2 -15q-15 -88 -15 -192q0 -112 24 -169q32 -77 111 -77q58 0 93 44q25 33 45 101q29 102 29 254q0 21 -2 56q-3 35 -3 50v12l-1 3v2l196 16q1 -3 2 -16q1 -17 2 -40q22 -151 49 -241q79 -244 221 -244h20q42 0 70 -28
t28 -70q0 -41 -28 -70q-28 -28 -70 -28h-20q-205 0 -333 207q-95 -207 -298 -207q-198 0 -287 192q-132 -195 -311 -195q-91 0 -158 45q-64 42 -95 116l-8 19l-8 19q-34 -45 -67 -75q-124 -121 -273 -121h-10zM1036 974l-164 164l163 163l164 -164zM980 -532l-164 164
l163 163l164 -164z" />
    <glyph glyph-name="uni069A.fina" unicode="&#x69a;" horiz-adv-x="2883" 
d="M2404 655q-2 35 -2 50v12l-1 3v2l196 14q1 0 2 -23l1 -10v-9q1 -10 1 -14q14 -133 49 -241q80 -242 221 -242h20q42 0 71 -29q28 -29 28 -71t-28 -70q-29 -28 -71 -28h-20q-208 0 -333 209q-90 -209 -297 -209q-52 0 -103 24q-39 19 -80 53q-27 22 -49 56
q-104 -123 -296 -133h-16q-105 0 -182 61l1 -17v-17q0 -375 -265 -552q-182 -123 -470 -135l-20 -1l-10 -1h-9q-256 0 -424 141q-165 139 -201 376q-9 56 -9 111v11q7 272 118 492q38 76 61 107l159 -118q-29 -39 -56 -105q-18 -47 -42 -123q-41 -132 -41 -263
q0 -172 99 -296q107 -134 333 -134h34q425 21 516 298q36 119 36 251q0 223 -94 429q-3 5 -5 12l-3 11q-5 12 -9 18l166 108q34 -79 84 -225q50 -148 128 -206q46 -34 114 -34q137 0 181 149q17 57 23 146q2 33 4 78l1 39l1 39l203 -15v-15l-1 -14q-2 -19 -2 -29
q0 -35 -3 -89v-24q0 -193 71 -251q23 -19 61 -19q44 0 79 42q83 90 83 348v8l-1 7q0 22 -2 57zM2025 -546l-164 164l163 163l164 -164zM2019 873l-164 164l163 163l164 -164z" />
    <glyph glyph-name="uni069B.init" unicode="&#x69b;" horiz-adv-x="1626" 
d="M0 -1q-41 3 -66 29q-26 27 -26 69q0 41 27 69q25 27 65 30q120 0 199 90q53 61 103 188q37 96 58 214l198 -42l-11 -35l-12 -36q-13 -44 -22 -78q-24 -93 -24 -168q0 -142 108 -142q53 0 98 32q33 24 65 69q96 138 139 429l192 -35q-2 -14 -5 -34l-6 -36q-9 -48 -13 -76
q-14 -95 -14 -158q0 -180 107 -191q21 -3 39 -3q92 0 124 66h-1q25 43 25 110q0 60 -17 133q-7 28 -18 62q-6 22 -18 57q-41 124 -84 205l175 92q8 -19 21 -47l11 -25l12 -25q29 -63 45 -105q72 -191 72 -344q0 -180 -99 -278q-98 -97 -280 -97h-7q-113 0 -215 92
q-27 25 -51 60q-131 -152 -297 -152q-90 0 -163 42q-71 42 -100 108q-131 -136 -318 -139h-16zM1281 -325l-164 -164l-162 162l164 164zM875 -327l-164 -164l-162 163l164 164zM1069 -617l-149 -149l-148 148l149 149z" />
    <glyph glyph-name="uni069B.medi" unicode="&#x69b;" horiz-adv-x="1873" 
d="M-6 0q-42 0 -70 28q-29 28 -29 70q0 41 30 69q28 26 69 29h10q45 0 87 26q30 18 64 54q111 117 198 378l6 17l6 18q7 21 7 32l192 -53q-2 -2 -4 -10l-1 -7l-2 -7q-16 -61 -27 -127q-12 -79 -12 -142q0 -84 16 -124q21 -56 79 -56q39 0 73 25q83 63 141 213q43 109 77 281
q3 15 3 16l195 -37q-4 -4 -7 -24l-2 -17q-1 -10 -2 -15q-15 -88 -15 -192q0 -112 24 -169q32 -77 111 -77q58 0 93 44q25 33 45 101q29 102 29 254q0 21 -2 56q-3 35 -3 50v12l-1 3v2l196 16q1 -3 2 -16q1 -17 2 -40q22 -151 49 -241q79 -244 221 -244h20q42 0 70 -28
t28 -70q0 -41 -28 -70q-28 -28 -70 -28h-20q-205 0 -333 207q-95 -207 -298 -207q-198 0 -287 192q-132 -195 -311 -195q-91 0 -158 45q-64 42 -95 116l-8 19l-8 19q-34 -45 -67 -75q-124 -121 -273 -121h-10zM1353 -349l-164 -164l-162 162l164 164zM947 -351l-164 -164
l-162 163l164 164zM1141 -641l-149 -149l-148 148l149 149z" />
    <glyph glyph-name="uni069B.fina" unicode="&#x69b;" horiz-adv-x="2872" 
d="M2404 655q-2 35 -2 50v12l-1 3v2l196 14q1 0 2 -23l1 -10v-9q1 -10 1 -14q14 -133 49 -241q80 -242 221 -242h20q42 0 71 -29q28 -29 28 -71t-28 -70q-29 -28 -71 -28h-20q-208 0 -333 209q-90 -209 -297 -209q-52 0 -103 24q-39 19 -80 53q-27 22 -49 56
q-104 -123 -296 -133h-16q-105 0 -182 61l1 -17v-17q0 -375 -265 -552q-182 -123 -470 -135l-20 -1l-10 -1h-9q-256 0 -424 141q-165 139 -201 376q-9 56 -9 111v11q7 272 118 492q38 76 61 107l159 -118q-29 -39 -56 -105q-18 -47 -42 -123q-41 -132 -41 -263
q0 -172 99 -296q107 -134 333 -134h34q425 21 516 298q36 119 36 251q0 223 -94 429q-3 5 -5 12l-3 11q-5 12 -9 18l166 108q34 -79 84 -225q50 -148 128 -206q46 -34 114 -34q137 0 181 149q17 57 23 146q2 33 4 78l1 39l1 39l203 -15v-15l-1 -14q-2 -19 -2 -29
q0 -35 -3 -89v-24q0 -193 71 -251q23 -19 61 -19q44 0 79 42q83 90 83 348v8l-1 7q0 22 -2 57zM2299 -320l-164 -164l-162 162l164 164zM1893 -322l-164 -164l-162 163l164 164zM2087 -612l-149 -149l-148 148l149 149z" />
    <glyph glyph-name="uni069C.init" unicode="&#x69c;" horiz-adv-x="1620" 
d="M0 -1q-41 3 -66 29q-26 27 -26 69q0 41 27 69q25 27 65 30q120 0 199 90q53 61 103 188q37 96 58 214l198 -42l-11 -35l-12 -36q-13 -44 -22 -78q-24 -93 -24 -168q0 -142 108 -142q53 0 98 32q33 24 65 69q96 138 139 429l192 -35q-2 -14 -5 -34l-6 -36q-9 -48 -13 -76
q-14 -95 -14 -158q0 -180 107 -191q21 -3 39 -3q92 0 124 66h-1q25 43 25 110q0 60 -17 133q-7 28 -18 62q-6 22 -18 57q-41 124 -84 205l175 92q8 -19 21 -47l11 -25l12 -25q29 -63 45 -105q72 -191 72 -344q0 -180 -99 -278q-98 -97 -280 -97h-7q-113 0 -215 92
q-27 25 -51 60q-131 -152 -297 -152q-90 0 -163 42q-71 42 -100 108q-131 -136 -318 -139h-16zM1169 1327l164 -164l-162 -162l-164 164zM763 1329l164 -164l-162 -163l-164 164zM972 1604l149 -149l-148 -148l-149 149zM1347 -341l-164 -164l-162 162l164 164zM941 -343
l-164 -164l-162 163l164 164zM1135 -633l-149 -149l-148 148l149 149z" />
    <glyph glyph-name="uni069C.medi" unicode="&#x69c;" horiz-adv-x="1859" 
d="M-9 0q-42 0 -70 28q-29 28 -29 70q0 41 30 69q28 26 69 29h10q45 0 87 26q30 18 64 54q111 117 198 378l6 17l6 18q7 21 7 32l192 -53q-2 -2 -4 -10l-1 -7l-2 -7q-16 -61 -27 -127q-12 -79 -12 -142q0 -84 16 -124q21 -56 79 -56q39 0 73 25q83 63 141 213q43 109 77 281
q3 15 3 16l195 -37q-4 -4 -7 -24l-2 -17q-1 -10 -2 -15q-15 -88 -15 -192q0 -112 24 -169q32 -77 111 -77q58 0 93 44q25 33 45 101q29 102 29 254q0 21 -2 56q-3 35 -3 50v12l-1 3v2l196 16q1 -3 2 -16q1 -17 2 -40q22 -151 49 -241q79 -244 221 -244h20q42 0 70 -28
t28 -70q0 -41 -28 -70q-28 -28 -70 -28h-20q-205 0 -333 207q-95 -207 -298 -207q-198 0 -287 192q-132 -195 -311 -195q-91 0 -158 45q-64 42 -95 116l-8 19l-8 19q-34 -45 -67 -75q-124 -121 -273 -121h-10zM1362 -385l-164 -164l-162 162l164 164zM956 -387l-164 -164
l-162 163l164 164zM1150 -677l-149 -149l-148 148l149 149zM1200 1287l164 -164l-162 -162l-164 164zM794 1289l164 -164l-162 -163l-164 164zM1003 1564l149 -149l-148 -148l-149 149z" />
    <glyph glyph-name="uni069C.fina" unicode="&#x69c;" horiz-adv-x="2894" 
d="M2404 655q-2 35 -2 50v12l-1 3v2l196 14q1 0 2 -23l1 -10v-9q1 -10 1 -14q14 -133 49 -241q80 -242 221 -242h20q42 0 71 -29q28 -29 28 -71t-28 -70q-29 -28 -71 -28h-20q-208 0 -333 209q-90 -209 -297 -209q-52 0 -103 24q-39 19 -80 53q-27 22 -49 56
q-104 -123 -296 -133h-16q-105 0 -182 61l1 -17v-17q0 -375 -265 -552q-182 -123 -470 -135l-20 -1l-10 -1h-9q-256 0 -424 141q-165 139 -201 376q-9 56 -9 111v11q7 272 118 492q38 76 61 107l159 -118q-29 -39 -56 -105q-18 -47 -42 -123q-41 -132 -41 -263
q0 -172 99 -296q107 -134 333 -134h34q425 21 516 298q36 119 36 251q0 223 -94 429q-3 5 -5 12l-3 11q-5 12 -9 18l166 108q34 -79 84 -225q50 -148 128 -206q46 -34 114 -34q137 0 181 149q17 57 23 146q2 33 4 78l1 39l1 39l203 -15v-15l-1 -14q-2 -19 -2 -29
q0 -35 -3 -89v-24q0 -193 71 -251q23 -19 61 -19q44 0 79 42q83 90 83 348v8l-1 7q0 22 -2 57zM2197 1208l164 -164l-162 -162l-164 164zM1791 1210l164 -164l-162 -163l-164 164zM2000 1485l149 -149l-148 -148l-149 149zM2330 -337l-164 -164l-162 162l164 164zM1924 -339
l-164 -164l-162 163l164 164zM2118 -629l-149 -149l-148 148l149 149z" />
    <glyph glyph-name="uni069D.init" unicode="&#x69d;" horiz-adv-x="1887" 
d="M967 178q390 0 558 133q81 66 90 171q0 60 -37 108q-30 40 -79 65q-49 27 -116 27h-13q-104 -5 -216 -64q-211 -114 -344 -368q-8 -15 -18 -34l-8 -15l-7 -13q92 -10 190 -10zM0 0q-41 0 -70 28q-29 29 -29 70t29 70q29 28 70 28q131 0 204 52q71 50 98 156q7 29 17 74
l8 39l8 39q21 97 39 151l189 -57q-10 -26 -13 -40l-9 -42h1q-11 -44 -11 -109q0 -129 57 -204q147 312 375 477q149 108 314 137q58 11 109 11q188 0 317 -134q110 -114 110 -254q0 -195 -151 -324q-126 -108 -336 -154q-158 -34 -350 -34q-162 0 -259 16q-187 18 -312 175
q-119 -168 -396 -171h-9zM895 -529l-164 163l162 163l164 -164zM1289 -531l-164 164l162 162l164 -163z" />
    <glyph glyph-name="uni069D.medi" unicode="&#x69d;" horiz-adv-x="1937" 
d="M-70 28q-29 29 -29 69q0 41 28 70q29 29 70 29h9q109 3 154 20q45 18 88 74q47 62 80 192l14 57l12 57q16 71 27 111l189 -58q-7 -16 -12 -39l-5 -22l-5 -21h1q-4 -18 -7 -50q-3 -33 -3 -57l1 -15v-16q3 -101 51 -163l6 -11q187 394 475 541q161 83 316 83
q199 0 323 -134q110 -110 110 -253q0 -173 -121 -296h231q42 0 71 -28q29 -29 29 -71q0 -41 -29 -69t-71 -28l-252 -1q-100 0 -177 7q-65 6 -106 24q-183 -49 -412 -49q-60 0 -136 5q-27 2 -63 5l-30 3l-28 2q-190 20 -293 149q-13 11 -24 30q-132 -175 -413 -175
q-41 0 -69 28zM970 178q396 0 566 135q84 68 90 169v11q0 35 -17 67q-13 25 -36 48q-70 73 -180 73h-6l-7 -1q-248 -12 -446 -257q-68 -84 -147 -235q87 -10 183 -10zM926 -529l-164 163l162 163l164 -164zM1320 -531l-164 164l162 162l164 -163z" />
    <glyph glyph-name="uni069D.fina" unicode="&#x69d;" horiz-adv-x="2872" 
d="M2068 161l17 1h17q193 4 319 71q147 79 157 226v10q0 35 -17 67q-7 12 -18 26l-9 12l-9 11q-72 72 -183 72h-9q-160 -7 -294 -107q-99 -74 -195 -210q-47 -68 -82 -132q136 -47 306 -47zM2938 28q-29 -28 -70 -28q-198 0 -294 96q-213 -131 -518 -131q-346 0 -559 159
l2 -37l2 -35v-18q0 -331 -226 -529q-185 -155 -474 -155q-32 0 -49 1l-51 3q-210 22 -328 97q-245 142 -245 471v10q5 226 110 479q12 30 29 64q12 24 29 55l167 -108q-53 -86 -105 -270q-32 -112 -32 -225q0 -202 128 -295q116 -84 344 -84q355 0 466 275q39 98 39 222
q0 137 -38 285q-16 58 -39 127l-21 60l-21 58q-3 3 -4 9t-3 8l182 75q62 -150 156 -285q34 -50 73 -79q182 333 440 470q157 84 316 84q198 0 322 -134q110 -110 110 -254q0 -120 -66 -232q12 -20 65 -32q41 -9 85 -9h8q42 0 71 -28q28 -29 28 -71q0 -40 -29 -69zM1804 -531
l-164 163l162 163l164 -164zM2198 -533l-164 164l162 162l164 -163z" />
    <glyph glyph-name="uni069E.init" unicode="&#x69e;" horiz-adv-x="1894" 
d="M967 178q390 0 558 133q81 66 90 171q0 60 -37 108q-30 40 -79 65q-49 27 -116 27h-13q-104 -5 -216 -64q-211 -114 -344 -368q-8 -15 -18 -34l-8 -15l-7 -13q92 -10 190 -10zM0 0q-41 0 -70 28q-29 29 -29 70t29 70q29 28 70 28q131 0 204 52q71 50 98 156q7 29 17 74
l8 39l8 39q21 97 39 151l189 -57q-10 -26 -13 -40l-9 -42h1q-11 -44 -11 -109q0 -129 57 -204q147 312 375 477q149 108 314 137q58 11 109 11q188 0 317 -134q110 -114 110 -254q0 -195 -151 -324q-126 -108 -336 -154q-158 -34 -350 -34q-162 0 -259 16q-187 18 -312 175
q-119 -168 -396 -171h-9zM1495 1365l164 -164l-162 -162l-164 164zM1089 1367l164 -164l-162 -163l-164 164zM1298 1642l149 -149l-148 -148l-149 149z" />
    <glyph glyph-name="uni069E.medi" unicode="&#x69e;" horiz-adv-x="1926" 
d="M-70 28q-29 29 -29 69q0 41 28 70q29 29 70 29h9q109 3 154 20q45 18 88 74q47 62 80 192l14 57l12 57q16 71 27 111l189 -58q-7 -16 -12 -39l-5 -22l-5 -21h1q-4 -18 -7 -50q-3 -33 -3 -57l1 -15v-16q3 -101 51 -163l6 -11q187 394 475 541q161 83 316 83
q199 0 323 -134q110 -110 110 -253q0 -173 -121 -296h231q42 0 71 -28q29 -29 29 -71q0 -41 -29 -69t-71 -28l-252 -1q-100 0 -177 7q-65 6 -106 24q-183 -49 -412 -49q-60 0 -136 5q-27 2 -63 5l-30 3l-28 2q-190 20 -293 149q-13 11 -24 30q-132 -175 -413 -175
q-41 0 -69 28zM970 178q396 0 566 135q84 68 90 169v11q0 35 -17 67q-13 25 -36 48q-70 73 -180 73h-6l-7 -1q-248 -12 -446 -257q-68 -84 -147 -235q87 -10 183 -10zM1478 1386l164 -164l-162 -162l-164 164zM1072 1388l164 -164l-162 -163l-164 164zM1281 1663l149 -149
l-148 -148l-149 149z" />
    <glyph glyph-name="uni069E.fina" unicode="&#x69e;" horiz-adv-x="2867" 
d="M2068 161l17 1h17q193 4 319 71q147 79 157 226v10q0 35 -17 67q-7 12 -18 26l-9 12l-9 11q-72 72 -183 72h-9q-160 -7 -294 -107q-99 -74 -195 -210q-47 -68 -82 -132q136 -47 306 -47zM2938 28q-29 -28 -70 -28q-198 0 -294 96q-213 -131 -518 -131q-346 0 -559 159
l2 -37l2 -35v-18q0 -331 -226 -529q-185 -155 -474 -155q-32 0 -49 1l-51 3q-210 22 -328 97q-245 142 -245 471v10q5 226 110 479q12 30 29 64q12 24 29 55l167 -108q-53 -86 -105 -270q-32 -112 -32 -225q0 -202 128 -295q116 -84 344 -84q355 0 466 275q39 98 39 222
q0 137 -38 285q-16 58 -39 127l-21 60l-21 58q-3 3 -4 9t-3 8l182 75q62 -150 156 -285q34 -50 73 -79q182 333 440 470q157 84 316 84q198 0 322 -134q110 -110 110 -254q0 -120 -66 -232q12 -20 65 -32q41 -9 85 -9h8q42 0 71 -28q28 -29 28 -71q0 -40 -29 -69zM2370 1324
l164 -164l-162 -162l-164 164zM1964 1326l164 -164l-162 -163l-164 164zM2173 1601l149 -149l-148 -148l-149 149z" />
    <glyph glyph-name="uni069F.init" unicode="&#x69f;" horiz-adv-x="1591" 
d="M402 196h72q221 0 330 20q204 38 361 166q94 80 94 180q0 81 -57 127q-54 44 -140 44q-31 0 -51 -5q-103 -22 -223 -105q-160 -110 -302 -284l-42 -51l-66 -92q9 -1 24 0zM-3 0q-42 0 -70 28q-29 28 -29 70q0 41 29 70q29 28 70 28h151l32 53q19 33 33 55q41 63 83 116
q19 121 23 378v36q0 141 -13 320q-9 129 -27 300q-6 57 -6 59l202 36q47 -356 47 -744q0 -47 -2 -143q243 225 460 262q51 8 95 8h5q120 0 211 -59q82 -53 127 -145q31 -65 31 -146q0 -186 -143 -337l-4 -6q-158 -141 -366 -199q-150 -41 -338 -41l-592 1h-9zM1222 1365
l164 -164l-162 -162l-164 164zM816 1367l164 -164l-162 -163l-164 164zM1025 1642l149 -149l-148 -148l-149 149z" />
    <glyph glyph-name="uni069F.medi" unicode="&#x69f;" horiz-adv-x="1564" 
d="M534 195h39q227 0 355 43q131 44 245 144q63 63 81 156q4 19 4 40q0 74 -61 115q-55 36 -147 36q-20 0 -29 -1q-102 -18 -222 -102q-117 -82 -256 -233l-45 -53q-26 -31 -43 -53l-67 -91q99 0 146 -1zM-8 0q-42 0 -70 28t-28 70t28 70t70 28h152q73 112 154 211
q18 25 24 82q5 41 5 112v128q-6 361 -40 666q-9 81 -14 110l195 36q61 -395 61 -826v-56q245 229 461 262q39 6 77 6q156 0 284 -104q108 -91 108 -243q0 -184 -144 -336q-32 -32 -60 -48h334q41 0 70 -28q28 -28 28 -69q0 -40 -29 -69q-28 -29 -69 -29h-1v-1h-189l-58 -1
q-251 0 -382 43q-144 -42 -354 -42h-613zM1213 1359l164 -164l-162 -162l-164 164zM807 1361l164 -164l-162 -163l-164 164zM1016 1636l149 -149l-148 -148l-149 149z" />
    <glyph glyph-name="uni069F.fina" unicode="&#x69f;" horiz-adv-x="1868" 
d="M1433 388q63 68 81 156q4 19 4 39q0 72 -57 113q-54 38 -140 38q-21 0 -41 -3q-101 -17 -222 -100q-120 -83 -255 -233l-151 -191l278 -9q310 15 503 190zM1938 28q-28 -28 -70 -28h-919q-14 -1 -41 -1h-41l-23 1h-26q-27 0 -77 3h-5q-311 16 -634 140l72 185
q126 -50 258 -83q20 30 64 87l35 45q19 26 33 46q22 154 25 289v26q0 142 -16 331q-6 75 -15 164q-6 60 -17 153q-9 77 -13 106q-6 39 -6 40l196 36l3 -26q8 -66 21 -190l10 -98q5 -55 10 -96q6 -57 12 -143l5 -70l5 -71q2 -24 2 -44v-64q0 -14 1 -44l1 -13v-14q1 -16 1 -30
q241 229 461 262q35 6 70 6q190 0 316 -131q81 -84 81 -218q0 -132 -90 -267q-25 -37 -54 -68l-1 -2q-22 -22 -58 -49l346 -2h8q42 0 70 -28t28 -70q0 -41 -28 -70zM1459 1409l164 -164l-162 -162l-164 164zM1053 1411l164 -164l-162 -163l-164 164zM1262 1686l149 -149
l-148 -148l-149 149z" />
    <glyph glyph-name="uni06A0.init" unicode="&#x6a0;" horiz-adv-x="1089" 
d="M152 503q0 143 76 251q68 95 184 146q79 35 171 35q153 0 301 -90q63 -40 115 -90l-123 -151q-68 74 -171 114q-54 21 -122 21q-108 0 -171 -65q-64 -64 -64 -171q0 -98 64 -168q56 -61 146 -87q50 -15 104 -15l12 1h12q176 13 302 43l24 -190q-313 -85 -794 -85l-218 -2
q-42 0 -71 28t-29 70t29 70t71 28l284 3q-132 119 -132 304zM694 1368l164 -164l-162 -162l-164 164zM288 1370l164 -164l-162 -163l-164 164zM497 1645l149 -149l-148 -148l-149 149z" />
    <glyph glyph-name="uni06A0.medi" unicode="&#x6a0;" horiz-adv-x="1149" 
d="M1148 196q42 0 71 -29q28 -29 28 -71q0 -40 -29 -69q-29 -28 -70 -28q-336 0 -544 123q-259 -123 -601 -123q-41 0 -70 28q-29 29 -29 69q0 42 29 71q28 29 70 29q258 0 415 63q-72 66 -167 178l-79 94q-48 58 -79 93l10 139q195 177 506 177q239 0 370 -106
q82 -67 82 -150q1 -7 1 -20q0 -39 -18 -86q-75 -196 -254 -330q137 -52 358 -52zM606 357q77 40 170 155q50 62 76 118q11 23 11 43q-106 70 -262 70q-164 0 -288 -73q183 -224 293 -313zM790 1411l164 -164l-162 -162l-164 164zM384 1413l164 -164l-162 -163l-164 164z
M593 1688l149 -149l-148 -148l-149 149z" />
    <glyph glyph-name="uni06A0.fina" unicode="&#x6a0;" horiz-adv-x="1362" 
d="M1416 28q-27 -27 -68 -29q-151 0 -317 67q-141 57 -308 175q-299 -117 -399 -287q-40 -68 -40 -160q0 -81 43 -152q32 -53 93 -106q120 -107 242 -123q60 -9 135 -9q276 0 451 127l102 -170q-218 -128 -388 -147q-63 -7 -150 -7q-232 0 -404 85q-167 82 -258 234
q-62 105 -62 256v8q3 158 71 276q54 93 164 182q103 81 229 133q-112 101 -237 239l-26 30l-12 122q92 144 355 210q118 25 213 25h4l4 -1q115 0 209 -33t145 -93q52 -61 52 -144v-9q-5 -173 -156 -293q-77 -60 -166 -101q106 -63 186 -94q114 -43 225 -43q41 0 69 -29
t28 -70t-29 -69zM753 468q170 74 227 120q79 64 81 144q0 23 -26 38q-10 6 -24 12l-11 4l-11 4q-59 18 -123 19h-21q-214 0 -348 -93q147 -157 256 -248zM963 1449l164 -164l-162 -162l-164 164zM557 1451l164 -164l-162 -163l-164 164zM766 1726l149 -149l-148 -148
l-149 149z" />
    <glyph glyph-name="uni06A1.fina" unicode="&#x6a1;" horiz-adv-x="2106" 
d="M1857 220q137 -24 251 -24q41 0 70 -28q29 -29 29 -70q0 -42 -28 -70q-29 -28 -71 -28q-257 0 -471 72q-19 -5 -43 -13l-41 -14q-52 -17 -93 -25q-213 -42 -499 -42q-621 3 -799 305q-67 111 -67 256v15q4 160 75 300q6 12 10 22q1 3 3 6v3l1 1l174 -95q0 -1 -9 -19
q-48 -96 -55 -209v-11l-1 -12q0 -154 117 -246q156 -122 609 -122h51q157 3 312 33q-137 113 -137 264q0 147 67 265q62 111 166 167q68 37 145 37q166 0 270 -145q69 -96 69 -257q0 -211 -105 -316zM1728 380q35 61 35 156q0 122 -58 173q-35 30 -82 30q-35 0 -68 -24
q-25 -18 -49 -49q-62 -79 -62 -197q0 -45 44 -92t128 -84l13 -7q68 39 99 94z" />
    <glyph glyph-name="uni06A2.init" unicode="&#x6a2;" horiz-adv-x="957" 
d="M381 563q34 -11 85 -15q34 -2 96 -2q34 0 78 2q-20 257 -160 362q-23 17 -52 17q-20 0 -40 -18q-14 -13 -30 -36q-63 -93 -63 -199q0 -83 86 -111zM-3 0q-40 0 -69 29t-29 69q0 42 29 70t71 28q202 0 371 38q172 39 221 96l16 18h-101q-156 0 -258 59q-107 62 -139 179
q-10 35 -11 74v17q0 104 47 215q63 147 167 203q56 30 116 30q132 0 240 -117q173 -190 173 -497q0 -38 -5 -85h-1q-21 -140 -83 -214q-172 -204 -738 -212h-17zM400 -460l-164 164l163 163l164 -164z" />
    <glyph glyph-name="uni06A2.medi" unicode="&#x6a2;" horiz-adv-x="979" 
d="M627 508q0 132 -83 206q-30 27 -63 27q-35 0 -68 -24q-25 -19 -49 -51q-62 -83 -62 -197q0 -49 44 -93q47 -47 144 -90q137 60 137 222zM-54 0q-42 0 -70 28t-28 70q0 43 28 70q27 28 70 28q160 0 290 15q-130 114 -130 258q0 191 111 329q111 140 255 140h11
q130 -6 219 -85q81 -73 114 -191q18 -64 18 -131v-23q-7 -170 -115 -288q120 -24 287 -24q41 0 70 -28q29 -29 29 -70q0 -43 -28 -70q-28 -28 -71 -28h-9q-271 0 -500 71q-184 -71 -543 -71h-8zM491 -492l-164 164l163 163l164 -164z" />
    <glyph glyph-name="uni06A2.fina" unicode="&#x6a2;" horiz-adv-x="2101" 
d="M1857 220q137 -24 251 -24q41 0 70 -28q29 -29 29 -70q0 -42 -28 -70q-29 -28 -71 -28q-257 0 -471 72q-19 -5 -43 -13l-41 -14q-52 -17 -93 -25q-213 -42 -499 -42q-621 3 -799 305q-67 111 -67 256v15q4 160 75 300q6 12 10 22q1 3 3 6v3l1 1l174 -95q0 -1 -9 -19
q-48 -96 -55 -209v-11l-1 -12q0 -154 117 -246q156 -122 609 -122h51q157 3 312 33q-137 113 -137 264q0 147 67 265q62 111 166 167q68 37 145 37q166 0 270 -145q69 -96 69 -257q0 -211 -105 -316zM1728 380q35 61 35 156q0 122 -58 173q-35 30 -82 30q-35 0 -68 -24
q-25 -18 -49 -49q-62 -79 -62 -197q0 -45 44 -92t128 -84l13 -7q68 39 99 94zM1585 -532l-164 164l163 163l164 -164z" />
    <glyph glyph-name="uni06A3.init" unicode="&#x6a3;" horiz-adv-x="941" 
d="M381 563q34 -11 85 -15q34 -2 96 -2q34 0 78 2q-20 257 -160 362q-23 17 -52 17q-20 0 -40 -18q-14 -13 -30 -36q-63 -93 -63 -199q0 -83 86 -111zM-3 0q-40 0 -69 29t-29 69q0 42 29 70t71 28q202 0 371 38q172 39 221 96l16 18h-101q-156 0 -258 59q-107 62 -139 179
q-10 35 -11 74v17q0 104 47 215q63 147 167 203q56 30 116 30q132 0 240 -117q173 -190 173 -497q0 -38 -5 -85h-1q-21 -140 -83 -214q-172 -204 -738 -212h-17zM362 1339l-164 164l163 163l164 -164zM362 -490l-164 164l163 163l164 -164z" />
    <glyph glyph-name="uni06A3.medi" unicode="&#x6a3;" horiz-adv-x="968" 
d="M627 508q0 132 -83 206q-30 27 -63 27q-35 0 -68 -24q-25 -19 -49 -51q-62 -83 -62 -197q0 -49 44 -93q47 -47 144 -90q137 60 137 222zM-54 0q-42 0 -70 28t-28 70q0 43 28 70q27 28 70 28q160 0 290 15q-130 114 -130 258q0 191 111 329q111 140 255 140h11
q130 -6 219 -85q81 -73 114 -191q18 -64 18 -131v-23q-7 -170 -115 -288q120 -24 287 -24q41 0 70 -28q29 -29 29 -70q0 -43 -28 -70q-28 -28 -71 -28h-9q-271 0 -500 71q-184 -71 -543 -71h-8zM467 1179l-164 164l163 163l164 -164zM467 -530l-164 164l163 163l164 -164z
" />
    <glyph glyph-name="uni06A3.fina" unicode="&#x6a3;" horiz-adv-x="2112" 
d="M1857 220q137 -24 251 -24q41 0 70 -28q29 -29 29 -70q0 -42 -28 -70q-29 -28 -71 -28q-257 0 -471 72q-19 -5 -43 -13l-41 -14q-52 -17 -93 -25q-213 -42 -499 -42q-621 3 -799 305q-67 111 -67 256v15q4 160 75 300q6 12 10 22q1 3 3 6v3l1 1l174 -95q0 -1 -9 -19
q-48 -96 -55 -209v-11l-1 -12q0 -154 117 -246q156 -122 609 -122h51q157 3 312 33q-137 113 -137 264q0 147 67 265q62 111 166 167q68 37 145 37q166 0 270 -145q69 -96 69 -257q0 -211 -105 -316zM1728 380q35 61 35 156q0 122 -58 173q-35 30 -82 30q-35 0 -68 -24
q-25 -18 -49 -49q-62 -79 -62 -197q0 -45 44 -92t128 -84l13 -7q68 39 99 94zM1563 -495l-164 164l163 163l164 -164zM1569 1139l-164 164l163 163l164 -164z" />
    <glyph glyph-name="uni06A4.init" unicode="&#x6a4;" horiz-adv-x="914" arabic-form="initial" 
d="M381 563q34 -11 85 -15q34 -2 96 -2q34 0 78 2q-20 257 -160 362q-23 17 -52 17q-20 0 -40 -18q-14 -13 -30 -36q-63 -93 -63 -199q0 -83 86 -111zM-3 0q-40 0 -69 29t-29 69q0 42 29 70t71 28q202 0 371 38q172 39 221 96l16 18h-101q-156 0 -258 59q-107 62 -139 179
q-10 35 -11 74v17q0 104 47 215q63 147 167 203q56 30 116 30q132 0 240 -117q173 -190 173 -497q0 -38 -5 -85h-1q-21 -140 -83 -214q-172 -204 -738 -212h-17zM549 1573l164 -164l-162 -162l-164 164zM143 1575l164 -164l-162 -163l-164 164zM352 1850l149 -149l-148 -148
l-149 149z" />
    <glyph glyph-name="uni06A4.medi" unicode="&#x6a4;" horiz-adv-x="1030" arabic-form="medial" 
d="M654 508q0 132 -83 206q-30 27 -63 27q-35 0 -68 -24q-25 -19 -49 -51q-62 -83 -62 -197q0 -49 44 -93q47 -47 144 -90q137 60 137 222zM-27 0q-42 0 -70 28t-28 70q0 43 28 70q27 28 70 28q160 0 290 15q-130 114 -130 258q0 191 111 329q111 140 255 140h11
q130 -6 219 -85q81 -73 114 -191q18 -64 18 -131v-23q-7 -170 -115 -288q120 -24 287 -24q41 0 70 -28q29 -29 29 -70q0 -43 -28 -70q-28 -28 -71 -28h-9q-271 0 -500 71q-184 -71 -543 -71h-8zM683 1398l164 -164l-162 -162l-164 164zM277 1400l164 -164l-162 -163
l-164 164zM486 1675l149 -149l-148 -148l-149 149z" />
    <glyph glyph-name="uni06A4.fina" unicode="&#x6a4;" horiz-adv-x="2112" arabic-form="final" 
d="M1857 220q137 -24 251 -24q41 0 70 -28q29 -29 29 -70q0 -42 -28 -70q-29 -28 -71 -28q-257 0 -471 72q-19 -5 -43 -13l-41 -14q-52 -17 -93 -25q-213 -42 -499 -42q-621 3 -799 305q-67 111 -67 256v15q4 160 75 300q6 12 10 22q1 3 3 6v3l1 1l174 -95q0 -1 -9 -19
q-48 -96 -55 -209v-11l-1 -12q0 -154 117 -246q156 -122 609 -122h51q157 3 312 33q-137 113 -137 264q0 147 67 265q62 111 166 167q68 37 145 37q166 0 270 -145q69 -96 69 -257q0 -211 -105 -316zM1728 380q35 61 35 156q0 122 -58 173q-35 30 -82 30q-35 0 -68 -24
q-25 -18 -49 -49q-62 -79 -62 -197q0 -45 44 -92t128 -84l13 -7q68 39 99 94zM1778 1367l164 -164l-162 -162l-164 164zM1372 1369l164 -164l-162 -163l-164 164zM1581 1644l149 -149l-148 -148l-149 149z" />
    <glyph glyph-name="uni06A5.init" unicode="&#x6a5;" horiz-adv-x="903" 
d="M381 563q34 -11 85 -15q34 -2 96 -2q34 0 78 2q-20 257 -160 362q-23 17 -52 17q-20 0 -40 -18q-14 -13 -30 -36q-63 -93 -63 -199q0 -83 86 -111zM-3 0q-40 0 -69 29t-29 69q0 42 29 70t71 28q202 0 371 38q172 39 221 96l16 18h-101q-156 0 -258 59q-107 62 -139 179
q-10 35 -11 74v17q0 104 47 215q63 147 167 203q56 30 116 30q132 0 240 -117q173 -190 173 -497q0 -38 -5 -85h-1q-21 -140 -83 -214q-172 -204 -738 -212h-17zM753 -296l-164 -164l-162 162l164 164zM347 -298l-164 -164l-162 163l164 164zM541 -588l-149 -149l-148 148
l149 149z" />
    <glyph glyph-name="uni06A5.medi" unicode="&#x6a5;" horiz-adv-x="1058" 
d="M675 508q0 132 -83 206q-30 27 -63 27q-35 0 -68 -24q-25 -19 -49 -51q-62 -83 -62 -197q0 -49 44 -93q47 -47 144 -90q137 60 137 222zM-6 0q-42 0 -70 28t-28 70q0 43 28 70q27 28 70 28q160 0 290 15q-130 114 -130 258q0 191 111 329q111 140 255 140h11
q130 -6 219 -85q81 -73 114 -191q18 -64 18 -131v-23q-7 -170 -115 -288q120 -24 287 -24q41 0 70 -28q29 -29 29 -70q0 -43 -28 -70q-28 -28 -71 -28h-9q-271 0 -500 71q-184 -71 -543 -71h-8zM875 -292l-164 -164l-162 162l164 164zM469 -294l-164 -164l-162 163l164 164z
M663 -584l-149 -149l-148 148l149 149z" />
    <glyph glyph-name="uni06A5.fina" unicode="&#x6a5;" horiz-adv-x="2112" 
d="M1857 220q137 -24 251 -24q41 0 70 -28q29 -29 29 -70q0 -42 -28 -70q-29 -28 -71 -28q-257 0 -471 72q-19 -5 -43 -13l-41 -14q-52 -17 -93 -25q-213 -42 -499 -42q-621 3 -799 305q-67 111 -67 256v15q4 160 75 300q6 12 10 22q1 3 3 6v3l1 1l174 -95q0 -1 -9 -19
q-48 -96 -55 -209v-11l-1 -12q0 -154 117 -246q156 -122 609 -122h51q157 3 312 33q-137 113 -137 264q0 147 67 265q62 111 166 167q68 37 145 37q166 0 270 -145q69 -96 69 -257q0 -211 -105 -316zM1728 380q35 61 35 156q0 122 -58 173q-35 30 -82 30q-35 0 -68 -24
q-25 -18 -49 -49q-62 -79 -62 -197q0 -45 44 -92t128 -84l13 -7q68 39 99 94zM1925 -296l-164 -164l-162 162l164 164zM1519 -298l-164 -164l-162 163l164 164zM1713 -588l-149 -149l-148 148l149 149z" />
    <glyph glyph-name="uni06A6.init" unicode="&#x6a6;" horiz-adv-x="874" arabic-form="initial" 
d="M381 563q34 -11 85 -15q34 -2 96 -2q34 0 78 2q-20 257 -160 362q-23 17 -52 17q-20 0 -40 -18q-14 -13 -30 -36q-63 -93 -63 -199q0 -83 86 -111zM-3 0q-40 0 -69 29t-29 69q0 42 29 70t71 28q202 0 371 38q172 39 221 96l16 18h-101q-156 0 -258 59q-107 62 -139 179
q-10 35 -11 74v17q0 104 47 215q63 147 167 203q56 30 116 30q132 0 240 -117q173 -190 173 -497q0 -38 -5 -85h-1q-21 -140 -83 -214q-172 -204 -738 -212h-17zM548 1294l-164 164l162 162l164 -163zM188 1289l-164 163l162 163l164 -164zM545 1695l-164 164l162 162
l164 -163zM185 1690l-164 163l162 163l164 -164z" />
    <glyph glyph-name="uni06A6.medi" unicode="&#x6a6;" horiz-adv-x="1058" arabic-form="medial" 
d="M672 508q0 132 -83 206q-30 27 -63 27q-35 0 -68 -24q-25 -19 -49 -51q-62 -83 -62 -197q0 -49 44 -93q47 -47 144 -90q137 60 137 222zM-9 0q-42 0 -70 28t-28 70q0 43 28 70q27 28 70 28q160 0 290 15q-130 114 -130 258q0 191 111 329q111 140 255 140h11
q130 -6 219 -85q81 -73 114 -191q18 -64 18 -131v-23q-7 -170 -115 -288q120 -24 287 -24q41 0 70 -28q29 -29 29 -70q0 -43 -28 -70q-28 -28 -71 -28h-9q-271 0 -500 71q-184 -71 -543 -71h-8zM688 1039l-164 164l162 162l164 -163zM328 1034l-164 163l162 163l164 -164z
M685 1440l-164 164l162 162l164 -163zM325 1435l-164 163l162 163l164 -164z" />
    <glyph glyph-name="uni06A6.fina" unicode="&#x6a6;" horiz-adv-x="2117" arabic-form="final" 
d="M1857 220q137 -24 251 -24q41 0 70 -28q29 -29 29 -70q0 -42 -28 -70q-29 -28 -71 -28q-257 0 -471 72q-19 -5 -43 -13l-41 -14q-52 -17 -93 -25q-213 -42 -499 -42q-621 3 -799 305q-67 111 -67 256v15q4 160 75 300q6 12 10 22q1 3 3 6v3l1 1l174 -95q0 -1 -9 -19
q-48 -96 -55 -209v-11l-1 -12q0 -154 117 -246q156 -122 609 -122h51q157 3 312 33q-137 113 -137 264q0 147 67 265q62 111 166 167q68 37 145 37q166 0 270 -145q69 -96 69 -257q0 -211 -105 -316zM1728 380q35 61 35 156q0 122 -58 173q-35 30 -82 30q-35 0 -68 -24
q-25 -18 -49 -49q-62 -79 -62 -197q0 -45 44 -92t128 -84l13 -7q68 39 99 94zM1772 1050l-164 164l162 162l164 -163zM1412 1045l-164 163l162 163l164 -164zM1769 1451l-164 164l162 162l164 -163zM1409 1446l-164 163l162 163l164 -164z" />
    <glyph glyph-name="uni06A7.fina" unicode="&#x6a7;" horiz-adv-x="1587" 
d="M965 218q40 -13 102 -18q24 -1 56 -2l57 -2h93q-14 304 -187 431q-28 21 -64 21q-35 0 -75 -49q-34 -41 -51 -87q-15 -40 -22 -72q-11 -45 -11 -85q0 -104 102 -137zM409 -325q128 -113 348 -113q301 0 433 252q49 97 66 183h-24q-255 0 -368 50q-90 40 -143 116
q-57 82 -57 191q0 115 52 238q65 156 181 221q59 33 125 33q143 0 260 -129q174 -187 188 -520q13 -1 45 -1h56q41 0 70 -28q29 -29 29 -70q0 -42 -28 -70q-29 -28 -71 -28h-114q-24 -165 -106 -305q-80 -135 -196 -217q-166 -115 -398 -115q-264 0 -440 131
q-172 129 -222 353q-16 71 -16 155q0 146 49 297q40 124 107 251l175 -93q-112 -211 -130 -387q-3 -36 -3 -68q0 -210 132 -327zM1026 1058l-164 164l163 163l164 -164z" />
    <glyph glyph-name="uni06A8.fina" unicode="&#x6a8;" horiz-adv-x="1565" 
d="M965 218q40 -13 102 -18q24 -1 56 -2l57 -2h93q-14 304 -187 431q-28 21 -64 21q-35 0 -75 -49q-34 -41 -51 -87q-15 -40 -22 -72q-11 -45 -11 -85q0 -104 102 -137zM409 -325q128 -113 348 -113q301 0 433 252q49 97 66 183h-24q-255 0 -368 50q-90 40 -143 116
q-57 82 -57 191q0 115 52 238q65 156 181 221q59 33 125 33q143 0 260 -129q174 -187 188 -520q13 -1 45 -1h56q41 0 70 -28q29 -29 29 -70q0 -42 -28 -70q-29 -28 -71 -28h-114q-24 -165 -106 -305q-80 -135 -196 -217q-166 -115 -398 -115q-264 0 -440 131
q-172 129 -222 353q-16 71 -16 155q0 146 49 297q40 124 107 251l175 -93q-112 -211 -130 -387q-3 -36 -3 -68q0 -210 132 -327zM1214 1320l164 -164l-162 -162l-164 164zM808 1322l164 -164l-162 -163l-164 164zM1017 1597l149 -149l-148 -148l-149 149z" />
    <glyph glyph-name="uni06AA.init" unicode="&#x6aa;" horiz-adv-x="2138" 
d="M-68 193q85 0 248 -2l124 -1q69 -1 126 -1q571 0 1128 45l79 7l78 6q87 7 151 12q-1 1 -1 2t-1 2q-54 93 -146 145q-26 14 -81 21q-43 5 -102 5q-138 0 -334 -28q-21 -3 -22 -3l-5 -1q-21 0 -61 -3l-36 -3l-37 -3l-24 -1l-26 -1q-30 -2 -55 -3q-65 -2 -111 -2
q-234 0 -373 30q-151 34 -192 113q-19 36 -20 62v2q-1 10 -1 29q0 149 142 282q183 173 584 312q51 18 98 31q39 11 41 12l25 -94l25 -94q-1 -1 -35 -11q-174 -53 -325 -123q-179 -83 -271 -167q-86 -78 -90 -144q57 -29 209 -40q75 -5 168 -5h1q190 0 304 11q34 3 99 11
l53 6l53 6q130 13 219 13q199 0 292 -59q150 -86 256 -312l4 -9l5 -9q4 -9 6 -14q4 -11 6 -13l-81 -134q-1 0 -19 -1q-22 -2 -53 -5q-475 -41 -803 -58l-1219 -14v193z" />
    <glyph glyph-name="uni06AA.medi" unicode="&#x6aa;" horiz-adv-x="2665" 
d="M502 -2q-61 0 -178 1t-176 1q-27 0 -84 1h-87v195q154 -2 223 -2h478l56 1q75 1 115 1h136l69 -1h70q295 0 483 11q102 6 258 20l63 6l62 6q72 7 123 11q-58 115 -127 156q-6 6 -26 10l-18 2l-20 3q-25 3 -92 5h-17q-167 0 -364 -29q-21 -3 -22 -3h-5q-21 0 -61 -3
l-36 -3l-37 -3l-26 -1l-28 -1q-32 -2 -58 -3q-69 -2 -120 -2h-52q-187 3 -305 29q-197 45 -212 176v1q-1 10 -1 29q0 149 142 282q191 181 585 312q72 24 97 31q39 11 41 12q23 -91 51 -187q-1 0 -10 -2q-11 -3 -26 -8q-173 -53 -325 -123q-179 -84 -271 -168
q-86 -78 -90 -144q56 -28 210 -41q56 -5 167 -5h1q189 0 304 11q34 3 103 11l56 6l58 6q140 14 231 14h33q173 -4 239 -45q102 -58 200 -225l15 -27l7 -13l6 -12q46 -60 154 -83q80 -18 221 -18v-196q-203 0 -410 69h-6q-6 -1 -14 -2q-24 -2 -53 -5q-280 -31 -803 -58
q-166 -9 -317 -9l-22 1h-22q-75 1 -165 1h-158q-40 0 -111 1h-102z" />
    <glyph glyph-name="uni06AA.fina" unicode="&#x6aa;" horiz-adv-x="2717" 
d="M770 180q317 0 710 22q256 14 688 47q-14 28 -34 57q-14 21 -36 47q-31 36 -50 47q-22 14 -71 20q-25 3 -92 5h-17q-167 0 -364 -29q-21 -3 -22 -3h-5q-21 0 -61 -3l-36 -3l-37 -3l-26 -1l-28 -1q-32 -2 -58 -3q-69 -2 -120 -2h-52q-187 3 -305 29q-197 46 -212 176v1
q-1 10 -1 29q0 149 142 282q191 181 585 312q72 24 97 31q39 11 41 12q23 -91 51 -187q-1 0 -9 -2q-10 -3 -26 -8q-174 -53 -326 -123q-180 -84 -272 -168q-85 -77 -89 -144q55 -28 209 -41q56 -5 168 -5h1q190 0 305 11q33 3 103 11l56 6l57 6q141 14 231 14h33
q173 -4 239 -45q102 -58 200 -225l15 -27l7 -13l6 -12q78 -101 376 -101l-1 -196q-168 0 -373 56q-23 6 -38 13h-5q-6 -1 -14 -2q-22 -2 -52 -5q-704 -77 -1493 -77q-464 0 -740 45l32 192q247 -42 713 -42z" />
    <glyph glyph-name="uni06AB.init" unicode="&#x6ab;" horiz-adv-x="925" 
d="M-88 27q-32 27 -32 70q0 44 31 72q31 27 77 27h86q11 -1 19 0q231 0 327 35q147 53 147 213q0 105 -69 204q-152 220 -411 427l23 205l822 352l77 -182l-716 -301q152 -128 242 -230q126 -143 181 -285q42 -107 42 -206q0 -119 -59 -224q-90 -159 -301 -198
q-35 -7 -87 -7l-323 1q-46 0 -76 27zM193 1767q27 34 27 77t-27 77q-29 35 -68 35q-40 0 -69 -36q-27 -34 -27 -76q0 -65 59 -102q17 -11 37 -11q40 0 68 36zM244 2019q43 -38 67 -98q15 -37 15 -77q0 -67 -37 -123q-34 -51 -86 -78q-37 -19 -78 -19q-68 0 -120 45
q-44 38 -68 99q-14 36 -14 76q0 68 37 124q33 48 86 76q37 19 79 19q67 0 119 -44z" />
    <glyph glyph-name="uni06AB.medi" unicode="&#x6ab;" horiz-adv-x="1193" 
d="M1 0q-41 0 -70 28q-29 29 -29 70q0 42 29 70q28 28 70 28h339q67 0 125 37q51 33 82 83q26 43 26 94q0 97 -71 223q-133 237 -388 433l26 221l884 381l77 -182l-793 -333q193 -154 319 -370q37 -63 104 -188l51 -94q29 -52 53 -94q57 -97 122 -145q83 -63 199 -66h42
q42 0 70 -28q28 -29 28 -70q0 -42 -28 -70t-70 -28h-8q-166 0 -284 60q-103 52 -185 159q-112 -209 -394 -219h-326zM153 1761q27 34 27 77t-27 77q-29 35 -68 35q-40 0 -69 -36q-27 -34 -27 -76q0 -65 59 -102q17 -11 37 -11q40 0 68 36zM204 2013q43 -38 67 -98
q15 -37 15 -77q0 -67 -37 -123q-34 -51 -86 -78q-37 -19 -78 -19q-68 0 -120 45q-44 38 -68 99q-14 36 -14 76q0 68 37 124q33 48 86 76q37 19 79 19q67 0 119 -44z" />
    <glyph glyph-name="uni06AB.fina" unicode="&#x6ab;" horiz-adv-x="2316" 
d="M287 625q-29 -72 -29 -134q0 -49 20 -89q57 -118 273 -167q159 -36 415 -36q60 -2 87 -2q274 0 440 68q179 68 179 202q0 44 -18 89q-36 93 -118 190q-54 63 -155 156q-86 80 -205 171l22 206l897 386l75 -182l-792 -334q265 -184 405 -415q22 -37 43 -85l18 -44l18 -44
q44 -117 78 -172q117 -190 372 -193h8q42 0 70 -28t28 -70q0 -41 -28 -70q-28 -28 -70 -28q-176 0 -315 69q-130 64 -213 181q-55 -90 -194 -156q-207 -94 -549 -94h-92q-351 0 -568 82q-7 3 -19 7l-20 7q-25 9 -35 15q-146 75 -214 202q-1 1 -1 4q-38 84 -41 167v17
q0 97 45 200q16 39 41 83q10 17 22 38l11 17l10 17l158 -118q-37 -57 -59 -113zM1193 1763q27 34 27 77t-27 77q-29 35 -68 35q-40 0 -69 -36q-27 -34 -27 -76q0 -65 59 -102q17 -11 37 -11q40 0 68 36zM1244 2015q43 -38 67 -98q15 -37 15 -77q0 -67 -37 -123
q-34 -51 -86 -78q-37 -19 -78 -19q-68 0 -120 45q-44 38 -68 99q-14 36 -14 76q0 68 37 124q33 48 86 76q37 19 79 19q67 0 119 -44z" />
    <glyph glyph-name="uni06AC.init" unicode="&#x6ac;" horiz-adv-x="925" 
d="M-88 27q-32 27 -32 70q0 44 31 72q31 27 77 27h86q11 -1 19 0q231 0 327 35q147 53 147 213q0 105 -69 204q-152 220 -411 427l23 205l822 352l77 -182l-716 -301q152 -128 242 -230q126 -143 181 -285q42 -107 42 -206q0 -119 -59 -224q-90 -159 -301 -198
q-35 -7 -87 -7l-323 1q-46 0 -76 27zM283 1475l-164 164l163 163l164 -164z" />
    <glyph glyph-name="uni06AC.medi" unicode="&#x6ac;" horiz-adv-x="1198" 
d="M1 0q-41 0 -70 28q-29 29 -29 70q0 42 29 70q28 28 70 28h339q67 0 125 37q51 33 82 83q26 43 26 94q0 97 -71 223q-133 237 -388 433l26 221l884 381l77 -182l-793 -333q193 -154 319 -370q37 -63 104 -188l51 -94q29 -52 53 -94q57 -97 122 -145q83 -63 199 -66h42
q42 0 70 -28q28 -29 28 -70q0 -42 -28 -70t-70 -28h-8q-166 0 -284 60q-103 52 -185 159q-112 -209 -394 -219h-326zM273 1480l-164 164l163 163l164 -164z" />
    <glyph glyph-name="uni06AC.fina" unicode="&#x6ac;" horiz-adv-x="2060" 
d="M793 666q-41 54 -41 123q0 95 68 155q65 57 163 57q31 0 64 -6l28 -6l28 -7l-28 -92q-48 13 -92 13q-35 0 -62 -12v2q-29 -12 -49 -40q-22 -30 -22 -64q0 -15 8 -36l-1 1q13 -34 48 -57q37 -25 80 -25q37 0 77 18q14 7 32 17l15 9l14 9q24 14 43 29l59 -78
q-58 -42 -242 -142l-227 -126l-48 87l179 100q-58 24 -94 71zM282 601q-28 -75 -28 -137q0 -49 20 -89q50 -99 224 -151q172 -51 455 -53q320 0 500 71q136 56 182 143q24 42 27 115q-2 73 -11 206l-3 55l-4 56q-4 65 -7 114q-14 338 -29 489q-4 45 -6 54l196 21
q27 -288 38 -557q1 -46 9 -128l5 -61q2 -33 3 -60h1v-46q2 -34 2 -46q0 -167 25 -253q36 -122 132 -142q29 -6 67 -6v-196q-242 0 -343 192q-216 -220 -784 -220q-360 4 -575 84q-207 79 -280 229q-42 81 -42 176q0 128 68 264q27 55 60 104l159 -118q-35 -43 -61 -110z
M950 1070l-164 164l163 163l164 -164z" />
    <glyph glyph-name="uni06AD.init" unicode="&#x6ad;" horiz-adv-x="930" arabic-form="initial" 
d="M-88 27q-32 27 -32 70q0 44 31 72q31 27 77 27h86q11 -1 19 0q231 0 327 35q147 53 147 213q0 105 -69 204q-152 220 -411 427l23 205l822 352l77 -182l-716 -301q152 -128 242 -230q126 -143 181 -285q42 -107 42 -206q0 -119 -59 -224q-90 -159 -301 -198
q-35 -7 -87 -7l-323 1q-46 0 -76 27zM372 1697l117 -117l-116 -116l-117 117zM119 1698l117 -117l-116 -116l-117 117zM239 1894l117 -117l-116 -116l-117 117z" />
    <glyph glyph-name="uni06AD.medi" unicode="&#x6ad;" horiz-adv-x="1193" arabic-form="medial" 
d="M1 0q-41 0 -70 28q-29 29 -29 70q0 42 29 70q28 28 70 28h339q67 0 125 37q51 33 82 83q26 43 26 94q0 97 -71 223q-133 237 -388 433l26 221l884 381l77 -182l-793 -333q193 -154 319 -370q37 -63 104 -188l51 -94q29 -52 53 -94q57 -97 122 -145q83 -63 199 -66h42
q42 0 70 -28q28 -29 28 -70q0 -42 -28 -70t-70 -28h-8q-166 0 -284 60q-103 52 -185 159q-112 -209 -394 -219h-326zM372 1708l117 -117l-116 -116l-117 117zM119 1709l117 -117l-116 -116l-117 117zM239 1905l117 -117l-116 -116l-117 117z" />
    <glyph glyph-name="uni06AD.fina" unicode="&#x6ad;" horiz-adv-x="2071" arabic-form="final" 
d="M793 666q-41 54 -41 123q0 95 68 155q65 57 163 57q31 0 64 -6l28 -6l28 -7l-28 -92q-48 13 -92 13q-35 0 -62 -12v2q-29 -12 -49 -40q-22 -30 -22 -64q0 -15 8 -36l-1 1q13 -34 48 -57q37 -25 80 -25q37 0 77 18q14 7 32 17l15 9l14 9q24 14 43 29l59 -78
q-58 -42 -242 -142l-227 -126l-48 87l179 100q-58 24 -94 71zM282 601q-28 -75 -28 -137q0 -49 20 -89q50 -99 224 -151q172 -51 455 -53q320 0 500 71q136 56 182 143q24 42 27 115q-2 73 -11 206l-3 55l-4 56q-4 65 -7 114q-14 338 -29 489q-4 45 -6 54l196 21
q27 -288 38 -557q1 -46 9 -128l5 -61q2 -33 3 -60h1v-46q2 -34 2 -46q0 -167 25 -253q36 -122 132 -142q29 -6 67 -6v-196q-242 0 -343 192q-216 -220 -784 -220q-360 4 -575 84q-207 79 -280 229q-42 81 -42 176q0 128 68 264q27 55 60 104l159 -118q-35 -43 -61 -110z
M1152 1377l164 -164l-162 -162l-164 164zM746 1379l164 -164l-162 -163l-164 164zM955 1654l149 -149l-148 -148l-149 149z" />
    <glyph glyph-name="uni06AE.init" unicode="&#x6ae;" horiz-adv-x="930" 
d="M-88 27q-32 27 -32 70q0 44 31 72q31 27 77 27h86q11 -1 19 0q231 0 327 35q147 53 147 213q0 105 -69 204q-152 220 -411 427l23 205l822 352l77 -182l-716 -301q152 -128 242 -230q126 -143 181 -285q42 -107 42 -206q0 -119 -59 -224q-90 -159 -301 -198
q-35 -7 -87 -7l-323 1q-46 0 -76 27zM794 -289l-164 -164l-162 162l164 164zM388 -291l-164 -164l-162 163l164 164zM582 -581l-149 -149l-148 148l149 149z" />
    <glyph glyph-name="uni06AE.medi" unicode="&#x6ae;" horiz-adv-x="1193" 
d="M1 0q-41 0 -70 28q-29 29 -29 70q0 42 29 70q28 28 70 28h339q67 0 125 37q51 33 82 83q26 43 26 94q0 97 -71 223q-133 237 -388 433l26 221l884 381l77 -182l-793 -333q193 -154 319 -370q37 -63 104 -188l51 -94q29 -52 53 -94q57 -97 122 -145q83 -63 199 -66h42
q42 0 70 -28q28 -29 28 -70q0 -42 -28 -70t-70 -28h-8q-166 0 -284 60q-103 52 -185 159q-112 -209 -394 -219h-326zM1000 -298l-164 -164l-162 162l164 164zM594 -300l-164 -164l-162 163l164 164zM788 -590l-149 -149l-148 148l149 149z" />
    <glyph glyph-name="uni06AE.fina" unicode="&#x6ae;" horiz-adv-x="2065" 
d="M793 666q-41 54 -41 123q0 95 68 155q65 57 163 57q31 0 64 -6l28 -6l28 -7l-28 -92q-48 13 -92 13q-35 0 -62 -12v2q-29 -12 -49 -40q-22 -30 -22 -64q0 -15 8 -36l-1 1q13 -34 48 -57q37 -25 80 -25q37 0 77 18q14 7 32 17l15 9l14 9q24 14 43 29l59 -78
q-58 -42 -242 -142l-227 -126l-48 87l179 100q-58 24 -94 71zM282 601q-28 -75 -28 -137q0 -49 20 -89q50 -99 224 -151q172 -51 455 -53q320 0 500 71q136 56 182 143q24 42 27 115q-2 73 -11 206l-3 55l-4 56q-4 65 -7 114q-14 338 -29 489q-4 45 -6 54l196 21
q27 -288 38 -557q1 -46 9 -128l5 -61q2 -33 3 -60h1v-46q2 -34 2 -46q0 -167 25 -253q36 -122 132 -142q29 -6 67 -6v-196q-242 0 -343 192q-216 -220 -784 -220q-360 4 -575 84q-207 79 -280 229q-42 81 -42 176q0 128 68 264q27 55 60 104l159 -118q-35 -43 -61 -110z
M1313 -292l-164 -164l-162 162l164 164zM907 -294l-164 -164l-162 163l164 164zM1101 -584l-149 -149l-148 148l149 149z" />
    <glyph glyph-name="uni06B0.init" unicode="&#x6b0;" horiz-adv-x="964" 
d="M-88 27q-32 27 -32 70q0 44 31 72q31 27 77 27h86q11 -1 19 0q231 0 327 35q147 53 147 213q0 105 -69 204q-152 220 -411 427l23 205l822 352l77 -182l-716 -301q152 -128 242 -230q126 -143 181 -285q42 -107 42 -206q0 -119 -59 -224q-90 -159 -301 -198
q-35 -7 -87 -7l-323 1q-46 0 -76 27zM284 2081q27 34 27 77t-27 77q-29 35 -68 35q-40 0 -69 -36q-27 -34 -27 -76q0 -65 59 -102q17 -11 37 -11q40 0 68 36zM335 2333q43 -38 67 -98q15 -37 15 -77q0 -67 -37 -123q-34 -51 -86 -78q-37 -19 -78 -19q-68 0 -120 45
q-44 38 -68 99q-14 36 -14 76q0 68 37 124q33 48 86 76q37 19 79 19q67 0 119 -44zM79 1398l7 128l750 313l47 -101z" />
    <glyph glyph-name="uni06B0.medi" unicode="&#x6b0;" horiz-adv-x="1204" 
d="M10 0q-41 0 -70 28q-29 29 -29 70q0 42 29 70q28 28 70 28h339q67 0 125 37q51 33 82 83q26 43 26 94q0 97 -71 223q-133 237 -388 433l26 221l884 381l77 -182l-793 -333q193 -154 319 -370q37 -63 104 -188l51 -94q29 -52 53 -94q57 -97 122 -145q83 -63 199 -66h42
q42 0 70 -28q28 -29 28 -70q0 -42 -28 -70t-70 -28h-8q-166 0 -284 60q-103 52 -185 159q-112 -209 -394 -219h-326zM304 2070q27 34 27 77t-27 77q-29 35 -68 35q-40 0 -69 -36q-27 -34 -27 -76q0 -65 59 -102q17 -11 37 -11q40 0 68 36zM355 2322q43 -38 67 -98
q15 -37 15 -77q0 -67 -37 -123q-34 -51 -86 -78q-37 -19 -78 -19q-68 0 -120 45q-44 38 -68 99q-14 36 -14 76q0 68 37 124q33 48 86 76q37 19 79 19q67 0 119 -44zM151 1433l7 128l750 313l47 -101z" />
    <glyph glyph-name="uni06B0.fina" unicode="&#x6b0;" horiz-adv-x="2321" 
d="M287 625q-29 -72 -29 -134q0 -49 20 -89q57 -118 273 -167q159 -36 415 -36q60 -2 87 -2q274 0 440 68q179 68 179 202q0 44 -18 89q-36 93 -118 190q-54 63 -155 156q-86 80 -205 171l22 206l897 386l75 -182l-792 -334q265 -184 405 -415q22 -37 43 -85l18 -44l18 -44
q44 -117 78 -172q117 -190 372 -193h8q42 0 70 -28t28 -70q0 -41 -28 -70q-28 -28 -70 -28q-176 0 -315 69q-130 64 -213 181q-55 -90 -194 -156q-207 -94 -549 -94h-92q-351 0 -568 82q-7 3 -19 7l-20 7q-25 9 -35 15q-146 75 -214 202q-1 1 -1 4q-38 84 -41 167v17
q0 97 45 200q16 39 41 83q10 17 22 38l11 17l10 17l158 -118q-37 -57 -59 -113zM1364 2087q27 34 27 77t-27 77q-29 35 -68 35q-40 0 -69 -36q-27 -34 -27 -76q0 -65 59 -102q17 -11 37 -11q40 0 68 36zM1415 2339q43 -38 67 -98q15 -37 15 -77q0 -67 -37 -123
q-34 -51 -86 -78q-37 -19 -78 -19q-68 0 -120 45q-44 38 -68 99q-14 36 -14 76q0 68 37 124q33 48 86 76q37 19 79 19q67 0 119 -44zM1163 1425l7 128l819 353l47 -101z" />
    <glyph glyph-name="uni06B1.init" unicode="&#x6b1;" horiz-adv-x="941" arabic-form="initial" 
d="M-88 27q-32 27 -32 70q0 44 31 72q31 27 77 27h86q11 -1 19 0q231 0 327 35q147 53 147 213q0 105 -69 204q-152 220 -411 427l23 205l822 352l77 -182l-716 -301q152 -128 242 -230q126 -143 181 -285q42 -107 42 -206q0 -119 -59 -224q-90 -159 -301 -198
q-35 -7 -87 -7l-323 1q-46 0 -76 27zM256 1773l-117 117l116 116l117 -117zM491 1772l-117 117l116 116l117 -117zM80 1400l7 128l750 313l47 -101z" />
    <glyph glyph-name="uni06B1.medi" unicode="&#x6b1;" horiz-adv-x="1226" arabic-form="medial" 
d="M28 0q-41 0 -70 28q-29 29 -29 70q0 42 29 70q28 28 70 28h339q67 0 125 37q51 33 82 83q26 43 26 94q0 97 -71 223q-133 237 -388 433l26 221l884 381l77 -182l-793 -333q193 -154 319 -370q37 -63 104 -188l51 -94q29 -52 53 -94q57 -97 122 -145q83 -63 199 -66h42
q42 0 70 -28q28 -29 28 -70q0 -42 -28 -70t-70 -28h-8q-166 0 -284 60q-103 52 -185 159q-112 -209 -394 -219h-326zM276 1827l-117 117l116 116l117 -117zM511 1826l-117 117l116 116l117 -117zM182 1431l7 128l750 313l47 -101z" />
    <glyph glyph-name="uni06B1.fina" unicode="&#x6b1;" horiz-adv-x="2321" arabic-form="final" 
d="M287 625q-29 -72 -29 -134q0 -49 20 -89q57 -118 273 -167q159 -36 415 -36q60 -2 87 -2q274 0 440 68q179 68 179 202q0 44 -18 89q-36 93 -118 190q-54 63 -155 156q-86 80 -205 171l22 206l897 386l75 -182l-792 -334q265 -184 405 -415q22 -37 43 -85l18 -44l18 -44
q44 -117 78 -172q117 -190 372 -193h8q42 0 70 -28t28 -70q0 -41 -28 -70q-28 -28 -70 -28q-176 0 -315 69q-130 64 -213 181q-55 -90 -194 -156q-207 -94 -549 -94h-92q-351 0 -568 82q-7 3 -19 7l-20 7q-25 9 -35 15q-146 75 -214 202q-1 1 -1 4q-38 84 -41 167v17
q0 97 45 200q16 39 41 83q10 17 22 38l11 17l10 17l158 -118q-37 -57 -59 -113zM1363 1870l-117 117l116 116l117 -117zM1598 1869l-117 117l116 116l117 -117zM1191 1432l7 128l819 353l47 -101z" />
    <glyph glyph-name="uni06B2.init" unicode="&#x6b2;" horiz-adv-x="957" 
d="M-88 27q-32 27 -32 70q0 44 31 72q31 27 77 27h86q11 -1 19 0q231 0 327 35q147 53 147 213q0 105 -69 204q-152 220 -411 427l23 205l822 352l77 -182l-716 -301q152 -128 242 -230q126 -143 181 -285q42 -107 42 -206q0 -119 -59 -224q-90 -159 -301 -198
q-35 -7 -87 -7l-323 1q-46 0 -76 27zM79 1398l7 128l750 313l47 -101zM258 -525l-164 163l162 163l164 -164zM652 -527l-164 164l162 162l164 -163z" />
    <glyph glyph-name="uni06B2.medi" unicode="&#x6b2;" horiz-adv-x="1204" 
d="M1 0q-41 0 -70 28q-29 29 -29 70q0 42 29 70q28 28 70 28h339q67 0 125 37q51 33 82 83q26 43 26 94q0 97 -71 223q-133 237 -388 433l26 221l884 381l77 -182l-793 -333q193 -154 319 -370q37 -63 104 -188l51 -94q29 -52 53 -94q57 -97 122 -145q83 -63 199 -66h42
q42 0 70 -28q28 -29 28 -70q0 -42 -28 -70t-70 -28h-8q-166 0 -284 60q-103 52 -185 159q-112 -209 -394 -219h-326zM143 1431l7 128l750 313l47 -101zM446 -525l-164 163l162 163l164 -164zM840 -527l-164 164l162 162l164 -163z" />
    <glyph glyph-name="uni06B2.fina" unicode="&#x6b2;" horiz-adv-x="2316" 
d="M287 625q-29 -72 -29 -134q0 -49 20 -89q57 -118 273 -167q159 -36 415 -36q60 -2 87 -2q274 0 440 68q179 68 179 202q0 44 -18 89q-36 93 -118 190q-54 63 -155 156q-86 80 -205 171l22 206l897 386l75 -182l-792 -334q265 -184 405 -415q22 -37 43 -85l18 -44l18 -44
q44 -117 78 -172q117 -190 372 -193h8q42 0 70 -28t28 -70q0 -41 -28 -70q-28 -28 -70 -28q-176 0 -315 69q-130 64 -213 181q-55 -90 -194 -156q-207 -94 -549 -94h-92q-351 0 -568 82q-7 3 -19 7l-20 7q-25 9 -35 15q-146 75 -214 202q-1 1 -1 4q-38 84 -41 167v17
q0 97 45 200q16 39 41 83q10 17 22 38l11 17l10 17l158 -118q-37 -57 -59 -113zM745 -525l-164 163l162 163l164 -164zM1139 -527l-164 164l162 162l164 -163zM1136 1436l7 128l819 353l47 -101z" />
    <glyph glyph-name="uni06B3.init" unicode="&#x6b3;" horiz-adv-x="941" arabic-form="initial" 
d="M-88 27q-32 27 -32 70q0 44 31 72q31 27 77 27h86q11 -1 19 0q231 0 327 35q147 53 147 213q0 105 -69 204q-152 220 -411 427l23 205l822 352l77 -182l-716 -301q152 -128 242 -230q126 -143 181 -285q42 -107 42 -206q0 -119 -59 -224q-90 -159 -301 -198
q-35 -7 -87 -7l-323 1q-46 0 -76 27zM79 1398l7 128l750 313l47 -101zM372 -456l-164 164l163 163l164 -164zM381 -855l-164 164l163 163l164 -164z" />
    <glyph glyph-name="uni06B3.medi" unicode="&#x6b3;" horiz-adv-x="1193" arabic-form="medial" 
d="M1 0q-41 0 -70 28q-29 29 -29 70q0 42 29 70q28 28 70 28h339q67 0 125 37q51 33 82 83q26 43 26 94q0 97 -71 223q-133 237 -388 433l26 221l884 381l77 -182l-793 -333q193 -154 319 -370q37 -63 104 -188l51 -94q29 -52 53 -94q57 -97 122 -145q83 -63 199 -66h42
q42 0 70 -28q28 -29 28 -70q0 -42 -28 -70t-70 -28h-8q-166 0 -284 60q-103 52 -185 159q-112 -209 -394 -219h-326zM133 1436l7 128l750 313l47 -101zM608 -456l-164 164l163 163l164 -164zM617 -855l-164 164l163 163l164 -164z" />
    <glyph glyph-name="uni06B3.fina" unicode="&#x6b3;" horiz-adv-x="2316" arabic-form="final" 
d="M287 625q-29 -72 -29 -134q0 -49 20 -89q57 -118 273 -167q159 -36 415 -36q60 -2 87 -2q274 0 440 68q179 68 179 202q0 44 -18 89q-36 93 -118 190q-54 63 -155 156q-86 80 -205 171l22 206l897 386l75 -182l-792 -334q265 -184 405 -415q22 -37 43 -85l18 -44l18 -44
q44 -117 78 -172q117 -190 372 -193h8q42 0 70 -28t28 -70q0 -41 -28 -70q-28 -28 -70 -28q-176 0 -315 69q-130 64 -213 181q-55 -90 -194 -156q-207 -94 -549 -94h-92q-351 0 -568 82q-7 3 -19 7l-20 7q-25 9 -35 15q-146 75 -214 202q-1 1 -1 4q-38 84 -41 167v17
q0 97 45 200q16 39 41 83q10 17 22 38l11 17l10 17l158 -118q-37 -57 -59 -113zM917 -456l-164 164l163 163l164 -164zM926 -855l-164 164l163 163l164 -164zM1136 1436l7 128l819 353l47 -101z" />
    <glyph glyph-name="uni06B4.init" unicode="&#x6b4;" horiz-adv-x="999" 
d="M-88 27q-32 27 -32 70q0 44 31 72q31 27 77 27h86q11 -1 19 0q231 0 327 35q147 53 147 213q0 105 -69 204q-152 220 -411 427l23 205l822 352l77 -182l-716 -301q152 -128 242 -230q126 -143 181 -285q42 -107 42 -206q0 -119 -59 -224q-90 -159 -301 -198
q-35 -7 -87 -7l-323 1q-46 0 -76 27zM79 1415l7 128l750 313l47 -101zM503 2031l117 -117l-116 -116l-117 117zM250 2032l117 -117l-116 -116l-117 117zM370 2228l117 -117l-116 -116l-117 117z" />
    <glyph glyph-name="uni06B4.medi" unicode="&#x6b4;" horiz-adv-x="1198" 
d="M1 0q-41 0 -70 28q-29 29 -29 70q0 42 29 70q28 28 70 28h339q67 0 125 37q51 33 82 83q26 43 26 94q0 97 -71 223q-133 237 -388 433l26 221l884 381l77 -182l-793 -333q193 -154 319 -370q37 -63 104 -188l51 -94q29 -52 53 -94q57 -97 122 -145q83 -63 199 -66h42
q42 0 70 -28q28 -29 28 -70q0 -42 -28 -70t-70 -28h-8q-166 0 -284 60q-103 52 -185 159q-112 -209 -394 -219h-326zM154 1437l7 128l750 313l47 -101zM468 2021l117 -117l-116 -116l-117 117zM215 2022l117 -117l-116 -116l-117 117zM335 2218l117 -117l-116 -116l-117 117
z" />
    <glyph glyph-name="uni06B4.fina" unicode="&#x6b4;" horiz-adv-x="2316" 
d="M287 625q-29 -72 -29 -134q0 -49 20 -89q57 -118 273 -167q159 -36 415 -36q60 -2 87 -2q274 0 440 68q179 68 179 202q0 44 -18 89q-36 93 -118 190q-54 63 -155 156q-86 80 -205 171l22 206l897 386l75 -182l-792 -334q265 -184 405 -415q22 -37 43 -85l18 -44l18 -44
q44 -117 78 -172q117 -190 372 -193h8q42 0 70 -28t28 -70q0 -41 -28 -70q-28 -28 -70 -28q-176 0 -315 69q-130 64 -213 181q-55 -90 -194 -156q-207 -94 -549 -94h-92q-351 0 -568 82q-7 3 -19 7l-20 7q-25 9 -35 15q-146 75 -214 202q-1 1 -1 4q-38 84 -41 167v17
q0 97 45 200q16 39 41 83q10 17 22 38l11 17l10 17l158 -118q-37 -57 -59 -113zM1566 2044l117 -117l-116 -116l-117 117zM1313 2045l117 -117l-116 -116l-117 117zM1433 2241l117 -117l-116 -116l-117 117zM1180 1425l7 128l819 353l47 -101z" />
    <glyph glyph-name="uni06B5.init" unicode="&#x6b5;" horiz-adv-x="547" 
d="M2 0q-41 0 -70 28q-28 29 -28 70q0 42 28 70q29 28 70 28h56q123 0 169 57q43 53 43 191v32q0 84 -6 219l-3 59l-2 60q-4 77 -6 126q-14 337 -29 490q-4 43 -6 53l196 21q27 -288 38 -557q2 -52 5 -128l2 -61l3 -59q5 -137 5 -221v-20q0 -4 1 -6v-19q0 -433 -410 -433
h-56zM199 1642q-68 209 -140 312q-27 38 -53 57l64 92q45 -31 100 -116q54 -83 84 -167l17 46l15 47q20 59 34 91q40 102 95 153l77 -82q-39 -35 -69 -109q-10 -26 -24 -67l-11 -33l-11 -33q-40 -121 -73 -197z" />
    <glyph glyph-name="uni06B5.medi" unicode="&#x6b5;" horiz-adv-x="654" 
d="M-8 0q-40 0 -69 29t-29 69q0 41 29 69q29 29 69 29h95q69 4 94 11q41 11 58 45q24 47 29 141q0 48 1 112l1 59l2 59q3 160 3 239v188q0 130 -8 346q-3 74 -9 123l195 25q13 -92 18 -227q1 -54 2 -122v-123l1 -47v-94l-1 -47q0 -84 -3 -252l-1 -62l-1 -62q-1 -68 -1 -119
q0 -193 187 -193q43 0 71 -28q29 -27 29 -70q0 -42 -29 -70t-71 -28h-11q-172 0 -267 103l-19 -19q-84 -84 -247 -84h-118zM262 1663q-68 209 -140 312q-27 38 -53 57l64 92q45 -31 100 -116q54 -83 84 -167l17 46l15 47q20 59 34 91q40 102 95 153l77 -82q-39 -35 -69 -109
q-10 -26 -24 -67l-11 -33l-11 -33q-40 -121 -73 -197z" />
    <glyph glyph-name="uni06B5.fina" unicode="&#x6b5;" horiz-adv-x="1481" 
d="M1292 45q1 -18 1 -52v-47q0 -430 -383 -557q-134 -44 -300 -44q-164 0 -291 69q-116 63 -188 176q-86 135 -86 328q0 230 63 399q29 75 64 123l174 -101q-105 -137 -105 -421q0 -233 220 -338q80 -39 149 -39q176 0 295 64q124 66 169 193q23 64 23 148q0 195 -9 474
q-3 89 -9 238l-5 117l-4 116q-9 252 -26 630l196 8l6 -137l6 -138l11 -279q13 -325 21 -558q7 -99 56 -157q53 -64 148 -64q43 0 71 -28t28 -71q0 -41 -29 -69t-70 -28q-114 0 -196 45zM625 1036q-68 209 -140 312q-27 38 -53 57l64 92q45 -31 100 -116q54 -83 84 -167
l17 46l15 47q20 59 34 91q40 102 95 153l77 -82q-39 -35 -69 -109q-10 -26 -24 -67l-11 -33l-11 -33q-40 -121 -73 -197z" />
    <glyph glyph-name="uni06B6.init" unicode="&#x6b6;" horiz-adv-x="525" 
d="M0 0q-41 0 -70 28q-28 29 -28 70q0 42 28 70q29 28 70 28h56q123 0 169 57q43 53 43 191v32q0 84 -6 219l-3 59l-2 60q-4 77 -6 126q-14 337 -29 490q-4 43 -6 53l196 21q27 -288 38 -557q2 -52 5 -128l2 -61l3 -59q5 -137 5 -221v-20q0 -4 1 -6v-19q0 -433 -410 -433
h-56zM307 1605l-164 164l163 163l164 -164z" />
    <glyph glyph-name="uni06B6.medi" unicode="&#x6b6;" horiz-adv-x="662" 
d="M0 0q-40 0 -69 29t-29 69q0 41 29 69q29 29 69 29h95q69 4 94 11q41 11 58 45q24 47 29 141q0 71 4 230l2 120q1 67 1 119v188q0 130 -8 346q-3 74 -9 123l195 25q13 -92 18 -227q1 -54 2 -122v-123l1 -47v-94l-1 -47q0 -84 -3 -252l-1 -62l-1 -62q-1 -68 -1 -119
q0 -193 187 -193q43 0 71 -28q29 -27 29 -70q0 -42 -29 -70t-71 -28h-11q-172 0 -267 103l-19 -19q-84 -84 -247 -84h-118zM358 1676l-164 164l163 163l164 -164z" />
    <glyph glyph-name="uni06B6.fina" unicode="&#x6b6;" horiz-adv-x="1481" 
d="M1292 45q1 -18 1 -52v-47q0 -430 -383 -557q-134 -44 -300 -44q-164 0 -291 69q-116 63 -188 176q-86 135 -86 328q0 230 63 399q29 75 64 123l174 -101q-105 -137 -105 -421q0 -233 220 -338q80 -39 149 -39q176 0 295 64q124 66 169 193q23 64 23 148q0 195 -9 474
q-3 89 -9 238l-5 117l-4 116q-9 252 -26 630l196 8l6 -137l6 -138l11 -279q13 -325 21 -558q7 -99 56 -157q53 -64 148 -64q43 0 71 -28t28 -71q0 -41 -29 -69t-70 -28q-114 0 -196 45zM1132 1656l-164 164l163 163l164 -164z" />
    <glyph glyph-name="uni06B7.init" unicode="&#x6b7;" horiz-adv-x="540" 
d="M2 0q-41 0 -70 28q-28 29 -28 70q0 42 28 70q29 28 70 28h56q123 0 169 57q43 53 43 191v32q0 84 -6 219l-3 59l-2 60q-4 77 -6 126q-14 337 -29 490q-4 43 -6 53l196 21q27 -288 38 -557q2 -52 5 -128l2 -61l3 -59q5 -137 5 -221v-20q0 -4 1 -6v-19q0 -433 -410 -433
h-56zM415 1889l117 -117l-116 -116l-117 117zM162 1890l117 -117l-116 -116l-117 117zM282 2086l117 -117l-116 -116l-117 117z" />
    <glyph glyph-name="uni06B7.medi" unicode="&#x6b7;" horiz-adv-x="644" 
d="M-13 0q-40 0 -69 29t-29 69q0 41 29 69q29 29 69 29h95q69 4 94 11q41 11 58 45q24 47 29 141q0 71 4 230q3 160 3 239v188q0 130 -8 346q-3 74 -9 123l195 25q13 -92 18 -227q1 -54 2 -122v-123l1 -47v-94l-1 -47q0 -55 -1 -126l-2 -126q-3 -167 -3 -243
q0 -193 187 -193q43 0 71 -28q29 -27 29 -70q0 -42 -29 -70t-71 -28h-11q-172 0 -267 103l-19 -19q-84 -84 -247 -84h-118zM467 1891l117 -117l-116 -116l-117 117zM214 1892l117 -117l-116 -116l-117 117zM334 2088l117 -117l-116 -116l-117 117z" />
    <glyph glyph-name="uni06B7.fina" unicode="&#x6b7;" horiz-adv-x="1492" 
d="M1292 45q1 -18 1 -52v-47q0 -430 -383 -557q-134 -44 -300 -44q-164 0 -291 69q-116 63 -188 176q-86 135 -86 328q0 230 63 399q29 75 64 123l174 -101q-105 -137 -105 -421q0 -233 220 -338q80 -39 149 -39q176 0 295 64q124 66 169 193q23 64 23 148q0 195 -9 474
q-3 89 -9 238l-5 117l-4 116q-9 252 -26 630l196 8l6 -137l6 -138l11 -279q13 -325 21 -558q7 -99 56 -157q53 -64 148 -64q43 0 71 -28t28 -71q0 -41 -29 -69t-70 -28q-114 0 -196 45zM1252 1889l117 -117l-116 -116l-117 117zM999 1890l117 -117l-116 -116l-117 117z
M1119 2086l117 -117l-116 -116l-117 117z" />
    <glyph glyph-name="uni06B8.init" unicode="&#x6b8;" horiz-adv-x="722" 
d="M-10 0q-41 0 -70 28q-28 29 -28 70q0 42 28 71t70 29h56q125 0 170 56q42 52 42 190v32q0 84 -6 219l-3 59l-2 60q-4 77 -6 126q-14 337 -29 490q-4 43 -6 53l196 21q27 -288 38 -557q2 -52 5 -128l2 -61l3 -59q5 -137 5 -221v-20q0 -4 1 -6v-19q0 -433 -410 -433h-56z
M197 -481l-164 164l162 162l164 -164zM551 -483l-164 164l162 163l164 -164zM383 -757l-164 164l162 162l164 -164z" />
    <glyph glyph-name="uni06B8.medi" unicode="&#x6b8;" horiz-adv-x="679" 
d="M8 0q-40 0 -69 29t-29 69q0 41 29 69q29 29 69 29h95q69 4 94 11q41 11 58 45q24 47 29 141q0 48 1 112l1 59l2 59q3 160 3 239v188q0 130 -8 346q-3 74 -9 123l195 25q13 -92 18 -227q1 -54 2 -122v-123l1 -47v-94l-1 -47q0 -55 -1 -126l-2 -126q-3 -167 -3 -243
q0 -193 187 -193q43 0 71 -28q29 -27 29 -70q0 -42 -29 -70t-71 -28h-11q-172 0 -267 103l-19 -19q-84 -84 -247 -84h-118zM749 -252l-164 -164l-162 162l164 164zM343 -254l-164 -164l-162 163l164 164zM537 -544l-149 -149l-148 148l149 149z" />
    <glyph glyph-name="uni06B8.fina" unicode="&#x6b8;" horiz-adv-x="1492" 
d="M1292 45q1 -18 1 -52v-47q0 -430 -383 -557q-134 -44 -300 -44q-164 0 -291 69q-116 63 -188 176q-86 135 -86 328q0 230 63 399q29 75 64 123l174 -101q-105 -137 -105 -421q0 -233 220 -338q80 -39 149 -39q176 0 295 64q124 66 169 193q23 64 23 148q0 195 -9 474
q-3 89 -9 238l-5 117l-4 116q-9 252 -26 630l196 8l6 -137l6 -138l11 -279q13 -325 21 -558q7 -99 56 -157q53 -64 148 -64q43 0 71 -28t28 -71q0 -41 -29 -69t-70 -28q-114 0 -196 45zM751 -1116l-117 117l116 116l117 -117zM1004 -1117l-117 117l116 116l117 -117z
M884 -1313l-117 117l116 116l117 -117z" />
    <glyph glyph-name="uni06B9.init" unicode="&#x6b9;" horiz-adv-x="714" 
d="M-7 0q-40 0 -69 29t-29 69q0 41 29 69q29 29 69 29h103q16 -1 46 -1q106 0 169 25q70 28 101 94q14 31 14 78q0 86 -32 194q-22 73 -65 175l-33 75l178 88l3 -5q1 -4 3 -7l4 -8q54 -116 92 -242q47 -157 47 -266q0 -93 -30 -162q-44 -101 -134 -161q-94 -63 -223 -70
q-51 -3 -97 -3h-146zM335 -530l-164 164l163 163l164 -164zM333 1038l-164 164l163 163l164 -164z" />
    <glyph glyph-name="uni06B9.medi" unicode="&#x6b9;" horiz-adv-x="705" 
d="M4 0q-42 0 -70 28t-28 70q0 41 28 70q28 28 70 28h17q157 0 234 52q86 58 86 188q0 135 -46 297l188 53q54 -179 54 -350v-5q0 -103 37 -164q43 -71 130 -71q42 0 71 -28q28 -28 28 -70t-28 -70t-70 -28q-178 0 -274 124q-127 -124 -410 -124h-17zM385 -530l-164 164
l163 163l164 -164zM396 982l-164 164l163 163l164 -164z" />
    <glyph glyph-name="uni06B9.fina" unicode="&#x6b9;" horiz-adv-x="1715" 
d="M1778 28q-29 -28 -71 -28q-132 0 -239 62l1 -24v-25q0 -338 -201 -516q-186 -166 -534 -184h-41q-200 0 -347 86q-136 80 -212 225q-73 138 -73 319l1 4v3q0 253 116 492q33 69 60 107l160 -116q-50 -68 -99 -229q-33 -107 -39 -230v-15l-1 -14q0 -165 76 -273
q73 -105 209 -144q67 -19 148 -19h29l5 1q536 26 544 471v18q0 195 -94 414q-6 10 -13 27l-12 29q-16 35 -29 52q-3 3 -4 7q-2 2 -2 3l167 106q24 -37 71 -136q101 -188 196 -257q66 -48 157 -48q42 0 71 -28q28 -28 28 -70t-28 -70zM956 -1127l-164 164l163 163l164 -164z
M781 450l-164 164l163 163l164 -164z" />
    <glyph glyph-name="uni06BB.fina" unicode="&#x6bb;" horiz-adv-x="1715" arabic-form="final" 
d="M1778 28q-29 -28 -71 -28q-132 0 -239 62l1 -24v-25q0 -338 -201 -516q-186 -166 -534 -184h-41q-200 0 -347 86q-136 80 -212 225q-73 138 -73 319l1 4v3q0 253 116 492q33 69 60 107l160 -116q-50 -68 -99 -229q-33 -107 -39 -230v-15l-1 -14q0 -165 76 -273
q73 -105 209 -144q67 -19 148 -19h29l5 1q536 26 544 471v18q0 195 -94 414q-6 10 -13 27l-12 29q-16 35 -29 52q-3 3 -4 7q-2 2 -2 3l167 106q24 -37 71 -136q101 -188 196 -257q66 -48 157 -48q42 0 71 -28q28 -28 28 -70t-28 -70zM582 704q9 14 27 37l14 20l15 19
q11 71 11 124q0 45 -5 112l-5 55q-3 36 -4 53q-7 80 -15 131l84 16l3 -24q6 -43 13 -136l6 -70q3 -38 7 -67q1 -8 1 -32v-23q0 -17 1 -35q103 97 197 112q18 2 28 2q73 0 121 -38q52 -41 52 -109q0 -19 -4 -36q-13 -64 -58 -109l-1 -2q-114 -106 -301 -106h-28q-10 0 -26 2
h-3q-139 7 -272 60l32 79q51 -18 110 -35zM716 685h2q21 -1 67 -1q133 0 226 81q37 33 37 72q0 16 -7 31q-21 44 -73 44q-54 0 -118 -43q-60 -42 -129 -123l-23 -29l-22 -29q21 -3 40 -3z" />
    <glyph glyph-name="uni06BC.init" unicode="&#x6bc;" horiz-adv-x="706" 
d="M-7 0q-40 0 -69 29t-29 69q0 41 29 69q29 29 69 29h103q16 -1 46 -1q106 0 169 25q70 28 101 94q14 31 14 78q0 86 -32 194q-22 73 -65 175l-33 75l178 88l3 -5q1 -4 3 -7l4 -8q54 -116 92 -242q47 -157 47 -266q0 -93 -30 -162q-44 -101 -134 -161q-94 -63 -223 -70
q-51 -3 -97 -3h-146zM259 1674q27 34 27 77t-27 77q-29 35 -68 35q-40 0 -69 -36q-27 -34 -27 -76q0 -65 59 -102q17 -11 37 -11q40 0 68 36zM310 1926q43 -38 67 -98q15 -37 15 -77q0 -67 -37 -123q-34 -51 -86 -78q-37 -19 -78 -19q-68 0 -120 45q-44 38 -68 99
q-14 36 -14 76q0 68 37 124q33 48 86 76q37 19 79 19q67 0 119 -44zM323 1026l-164 164l163 163l164 -164z" />
    <glyph glyph-name="uni06BC.medi" unicode="&#x6bc;" horiz-adv-x="705" 
d="M4 0q-42 0 -70 28t-28 70q0 41 28 70q28 28 70 28h17q157 0 234 52q86 58 86 188q0 135 -46 297l188 53q54 -179 54 -350v-5q0 -103 37 -164q43 -71 130 -71q42 0 71 -28q28 -28 28 -70t-28 -70t-70 -28q-178 0 -274 124q-127 -124 -410 -124h-17zM307 1562q27 34 27 77
t-27 77q-29 35 -68 35q-40 0 -69 -36q-27 -34 -27 -76q0 -65 59 -102q17 -11 37 -11q40 0 68 36zM358 1814q43 -38 67 -98q15 -37 15 -77q0 -67 -37 -123q-34 -51 -86 -78q-37 -19 -78 -19q-68 0 -120 45q-44 38 -68 99q-14 36 -14 76q0 68 37 124q33 48 86 76q37 19 79 19
q67 0 119 -44zM364 938l-164 164l163 163l164 -164z" />
    <glyph glyph-name="uni06BC.fina" unicode="&#x6bc;" horiz-adv-x="1703" 
d="M1778 28q-29 -28 -71 -28q-132 0 -239 62l1 -24v-25q0 -338 -201 -516q-186 -166 -534 -184h-41q-200 0 -347 86q-136 80 -212 225q-73 138 -73 319l1 4v3q0 253 116 492q33 69 60 107l160 -116q-50 -68 -99 -229q-33 -107 -39 -230v-15l-1 -14q0 -165 76 -273
q73 -105 209 -144q67 -19 148 -19h29l5 1q536 26 544 471v18q0 195 -94 414q-6 10 -13 27l-12 29q-16 35 -29 52q-3 3 -4 7q-2 2 -2 3l167 106q24 -37 71 -136q101 -188 196 -257q66 -48 157 -48q42 0 71 -28q28 -28 28 -70t-28 -70zM720 1174q27 34 27 77t-27 77
q-29 35 -68 35q-40 0 -69 -36q-27 -34 -27 -76q0 -65 59 -102q17 -11 37 -11q40 0 68 36zM771 1426q43 -38 67 -98q15 -37 15 -77q0 -67 -37 -123q-34 -51 -86 -78q-37 -19 -78 -19q-68 0 -120 45q-44 38 -68 99q-14 36 -14 76q0 68 37 124q33 48 86 76q37 19 79 19
q67 0 119 -44zM792 428l-164 164l163 163l164 -164z" />
    <glyph glyph-name="uni06BD.fina" unicode="&#x6bd;" horiz-adv-x="1715" 
d="M1778 28q-29 -28 -71 -28q-132 0 -239 62l1 -24v-25q0 -338 -201 -516q-186 -166 -534 -184h-41q-200 0 -347 86q-136 80 -212 225q-73 138 -73 319l1 4v3q0 253 116 492q33 69 60 107l160 -116q-50 -68 -99 -229q-33 -107 -39 -230v-15l-1 -14q0 -165 76 -273
q73 -105 209 -144q67 -19 148 -19h29l5 1q536 26 544 471v18q0 195 -94 414q-6 10 -13 27l-12 29q-16 35 -29 52q-3 3 -4 7q-2 2 -2 3l167 106q24 -37 71 -136q101 -188 196 -257q66 -48 157 -48q42 0 71 -28q28 -28 28 -70t-28 -70zM957 800l164 -164l-162 -162l-164 164z
M551 802l164 -164l-162 -163l-164 164zM760 1077l149 -149l-148 -148l-149 149z" />
    <glyph glyph-name="uni06BF.init" unicode="&#x6bf;" horiz-adv-x="1600" 
d="M-1 0q-43 0 -71 28q-29 27 -29 70q0 42 29 70t71 28h198q242 0 528 93q222 73 489 207q-87 31 -219 92l-53 24l-53 25q-61 28 -108 47q-86 35 -147 35q-63 0 -121 -41q-39 -28 -82 -82q-44 -55 -69 -104q-9 -18 -11 -20l-180 81q1 1 9 17q107 214 270 299q89 47 184 47
q80 0 163 -26q34 -11 72 -27q24 -10 67 -30l56 -26l56 -27q68 -32 113 -52q132 -57 245 -82q59 -13 123 -13l38 -190q-103 -42 -283 -133q-411 -209 -788 -282q-146 -28 -299 -28h-198zM1186 -274l-164 -164l-162 162l164 164zM780 -276l-164 -164l-162 163l164 164z
M974 -566l-149 -149l-148 148l149 149zM837 1057l-164 164l163 163l164 -164z" />
    <glyph glyph-name="uni06BF.medi" unicode="&#x6bf;" horiz-adv-x="1678" 
d="M-70 28q-29 28 -29 69q0 43 29 71q28 28 70 28h183q235 0 497 92q107 38 236 98q51 23 114 54l112 56q-57 20 -129 53l-61 30l-62 30q-154 74 -260 99q-42 10 -69 10q-64 0 -121 -40q-39 -28 -82 -82q-38 -46 -78 -123l-181 82q0 2 7 16q104 206 272 298q89 48 183 48
q82 0 199 -41q62 -22 142 -58l68 -33l69 -32q171 -80 295 -107q59 -13 122 -13l39 -189q-83 -36 -182 -84q24 -85 125 -128q87 -36 215 -36h14q43 0 71 -28q28 -29 28 -71t-29 -69q-28 -28 -70 -28h-14q-195 0 -328 68q-138 70 -191 204q-391 -195 -686 -250
q-122 -23 -265 -23l-183 1q-41 0 -70 28zM1385 -228l-164 -164l-162 162l164 164zM979 -230l-164 -164l-162 163l164 164zM1173 -520l-149 -149l-148 148l149 149zM1019 944l-164 164l163 163l164 -164z" />
    <glyph glyph-name="uni06BF.fina" unicode="&#x6bf;" horiz-adv-x="1722" 
d="M932 -791q-289 0 -498 154q-261 192 -261 482q0 77 21 161q33 134 132 272q252 293 811 360l-108 52q-115 57 -192 92q-110 49 -183 49q-117 0 -213 -102q-62 -69 -88 -132l-184 76q9 28 32 64l21 31l11 15l10 15q103 146 249 202q78 29 159 29q113 0 247 -59
q69 -30 173 -80l87 -43l89 -42q215 -102 369 -153l-38 -192h-27l-11 1q-15 1 -26 1h-44l-13 -1h-13l-21 -1l-22 -1q-26 -1 -47 -2q-2 -14 -2 -31q0 -137 108 -190q82 -40 260 -40q42 0 71 -29q28 -29 28 -71q0 -40 -29 -68t-70 -28q-218 0 -347 62q-141 67 -194 214
q-21 59 -24 125q-3 21 0 38q-261 -31 -447 -116q-235 -118 -312 -311q-27 -66 -27 -148q0 -248 232 -382q146 -83 336 -86h7l6 -1q297 0 488 182l129 -152q-242 -216 -635 -216zM1300 -29l-164 -164l-162 162l164 164zM894 -31l-164 -164l-162 163l164 164zM1088 -321
l-149 -149l-148 148l149 149zM946 1077l-164 164l163 163l164 -164z" />
    <glyph glyph-name="uni06C2.isol" unicode="&#x6c2;" horiz-adv-x="993" 
d="M280 48q-93 45 -142 120q-49 76 -49 179q0 181 163 377q53 63 117 122q-30 27 -48 42t-18 16l126 153q10 -10 34 -30l19 -17l21 -19q24 -23 39 -37l40 -39q45 -46 78 -83q124 -142 182 -260q61 -124 61 -225q0 -278 -307 -339q-41 -8 -101 -8q-117 0 -215 48zM520 200
q186 0 186 147q0 64 -50 156q-47 86 -145 197q-1 1 -1 2l-1 1l-2 1q-139 -125 -197 -254q-24 -52 -24 -103q0 -125 188 -147q6 -1 12 -1h9q2 0 11 1h14zM236 1326q-41 54 -41 123q0 95 68 155q65 57 163 57q31 0 64 -6l28 -6l28 -7l-28 -92q-48 13 -92 13q-35 0 -62 -12v2
q-29 -12 -49 -40q-22 -30 -22 -64q0 -15 8 -36l-1 1q13 -34 48 -57q37 -25 80 -25q37 0 77 18q14 7 32 17l15 9l14 9q24 14 43 29l59 -78q-58 -42 -242 -142l-227 -126l-48 87l179 100q-58 24 -94 71z" />
    <glyph glyph-name="uni06C3.isol" unicode="&#x6c3;" horiz-adv-x="1020" 
d="M307 48q-93 45 -142 120q-49 76 -49 179q0 181 163 377q53 63 117 122q-30 27 -48 42t-18 16l126 153q10 -10 34 -30l19 -17l21 -19q24 -23 39 -37l40 -39q45 -46 78 -83q124 -142 182 -260q61 -124 61 -225q0 -278 -307 -339q-41 -8 -101 -8q-117 0 -215 48zM547 200
q186 0 186 147q0 64 -50 156q-47 86 -145 197q-1 1 -1 2l-1 1l-2 1q-139 -125 -197 -254q-24 -52 -24 -103q0 -125 188 -147q6 -1 12 -1h9q2 0 11 1h14zM258 1208l-164 163l162 163l164 -164zM636 1206l-164 164l162 162l164 -163z" />
    <glyph glyph-name="uni06C4.fina" unicode="&#x6c4;" horiz-adv-x="936" 
d="M1009 28q-29 -28 -71 -28h-90q-58 -285 -299 -476q-224 -179 -530 -226l-46 193q295 60 485 210q85 67 137 147q52 79 62 152h-30q-21 -1 -33 -1l-18 1h-19q-314 0 -433 147q-65 82 -65 214q0 202 121 358q101 128 234 128q142 0 261 -128q182 -201 188 -523h75
q44 0 72 -28t28 -71q0 -42 -29 -69zM353 623q-11 -10 -22 -26q-8 -11 -18 -27q-57 -96 -57 -207q0 -105 90 -141q61 -24 206 -24h21q64 2 92 4q-12 243 -137 384l-11 11l-11 10q-13 13 -26 21q-32 22 -66 22q-33 0 -61 -27zM360 1253q27 34 27 77t-27 77q-29 35 -68 35
q-40 0 -69 -36q-27 -34 -27 -76q0 -65 59 -102q17 -11 37 -11q40 0 68 36zM411 1505q43 -38 67 -98q15 -37 15 -77q0 -67 -37 -123q-34 -51 -86 -78q-37 -19 -78 -19q-68 0 -120 45q-44 38 -68 99q-14 36 -14 76q0 68 37 124q33 48 86 76q37 19 79 19q67 0 119 -44z" />
    <glyph glyph-name="uni06C5.fina" unicode="&#x6c5;" horiz-adv-x="1069" arabic-form="final" 
d="M220 -246l31 124l464 -111l-31 -124zM1114 28q-29 -28 -71 -28h-90q-58 -285 -299 -476q-224 -179 -530 -226l-46 193q295 60 485 210q85 67 137 147q52 79 62 152h-30q-21 -1 -33 -1l-18 1h-19q-314 0 -433 147q-65 82 -65 214q0 202 121 358q101 128 234 128
q142 0 261 -128q182 -201 188 -523h75q44 0 72 -28t28 -71q0 -42 -29 -69zM458 623q-11 -10 -22 -26q-8 -11 -18 -27q-57 -96 -57 -207q0 -105 90 -141q61 -24 206 -24h21q64 2 92 4q-12 243 -137 384l-11 11l-11 10q-13 13 -26 21q-32 22 -66 22q-33 0 -61 -27z" />
    <glyph glyph-name="uni06C6.fina" unicode="&#x6c6;" horiz-adv-x="1056" arabic-form="final" 
d="M1114 28q-29 -28 -71 -28h-90q-58 -285 -299 -476q-224 -179 -530 -226l-46 193q295 60 485 210q85 67 137 147q52 79 62 152h-30q-21 -1 -33 -1l-18 1h-19q-314 0 -433 147q-65 82 -65 214q0 202 121 358q101 128 234 128q142 0 261 -128q182 -201 188 -523h75
q44 0 72 -28t28 -71q0 -42 -29 -69zM458 623q-11 -10 -22 -26q-8 -11 -18 -27q-57 -96 -57 -207q0 -105 90 -141q61 -24 206 -24h21q64 2 92 4q-12 243 -137 384l-11 11l-11 10q-13 13 -26 21q-32 22 -66 22q-33 0 -61 -27zM481 978q-68 209 -140 312q-27 38 -53 57l64 92
q45 -31 100 -116q54 -83 84 -167l17 46l15 47q20 59 34 91q40 102 95 153l77 -82q-39 -35 -69 -109q-10 -26 -24 -67l-11 -33l-11 -33q-40 -121 -73 -197z" />
    <glyph glyph-name="uni06C7.fina" unicode="&#x6c7;" horiz-adv-x="1045" arabic-form="final" 
d="M1114 28q-29 -28 -71 -28h-90q-58 -285 -299 -476q-224 -179 -530 -226l-46 193q295 60 485 210q85 67 137 147q52 79 62 152h-30q-21 -1 -33 -1l-18 1h-19q-314 0 -433 147q-65 82 -65 214q0 202 121 358q101 128 234 128q142 0 261 -128q182 -201 188 -523h75
q44 0 72 -28t28 -71q0 -42 -29 -69zM458 623q-11 -10 -22 -26q-8 -11 -18 -27q-57 -96 -57 -207q0 -105 90 -141q61 -24 206 -24h21q64 2 92 4q-12 243 -137 384l-11 11l-11 10q-13 13 -26 21q-32 22 -66 22q-33 0 -61 -27zM690 1179l-13 5l-11 4q-119 -119 -337 -173
l-24 84q175 49 272 122q-66 30 -95 50q-47 34 -62 80q-7 21 -7 42q0 31 16 61q13 24 35 46q54 54 122 54q31 0 55 -12q88 -42 88 -165q0 -56 -18 -114q5 -1 14 -4l8 -2l6 -2l-25 -83q-9 2 -24 7zM536 1449q-21 -16 -32 -39q-3 0 -5 -11q-1 -10 1 -17q7 -28 43 -49
q11 -6 32 -16l16 -7l15 -8l24 -11q5 21 7 41q4 27 4 49q0 88 -55 88q-26 0 -50 -20z" />
    <glyph glyph-name="uni06C8.fina" unicode="&#x6c8;" horiz-adv-x="1051" arabic-form="final" 
d="M1114 28q-29 -28 -71 -28h-90q-58 -285 -299 -476q-224 -179 -530 -226l-46 193q295 60 485 210q85 67 137 147q52 79 62 152h-30q-21 -1 -33 -1l-18 1h-19q-314 0 -433 147q-65 82 -65 214q0 202 121 358q101 128 234 128q142 0 261 -128q182 -201 188 -523h75
q44 0 72 -28t28 -71q0 -42 -29 -69zM458 623q-11 -10 -22 -26q-8 -11 -18 -27q-57 -96 -57 -207q0 -105 90 -141q61 -24 206 -24h21q64 2 92 4q-12 243 -137 384l-11 11l-11 10q-13 13 -26 21q-32 22 -66 22q-33 0 -61 -27zM513 1007q18 68 18 139v7q-1 75 -18 141l72 22
q16 -58 19 -143v-17q0 -74 -20 -171z" />
    <glyph glyph-name="uni06C9.fina" unicode="&#x6c9;" horiz-adv-x="1061" arabic-form="final" 
d="M1114 28q-29 -28 -71 -28h-90q-58 -285 -299 -476q-224 -179 -530 -226l-46 193q295 60 485 210q85 67 137 147q52 79 62 152h-30q-21 -1 -33 -1l-18 1h-19q-314 0 -433 147q-65 82 -65 214q0 202 121 358q101 128 234 128q142 0 261 -128q182 -201 188 -523h75
q44 0 72 -28t28 -71q0 -42 -29 -69zM458 623q-11 -10 -22 -26q-8 -11 -18 -27q-57 -96 -57 -207q0 -105 90 -141q61 -24 206 -24h21q64 2 92 4q-12 243 -137 384l-11 11l-11 10q-13 13 -26 21q-32 22 -66 22q-33 0 -61 -27zM681 1174q27 -40 52 -57l-64 -92q-45 31 -100 116
q-54 83 -84 167l-17 -46l-15 -47q-20 -59 -33 -91q-42 -102 -96 -153l-77 82q48 46 87 154q12 32 31 94l15 46q8 25 15 44q21 59 40 101l105 -6q65 -203 141 -312z" />
    <glyph glyph-name="uni06CA.fina" unicode="&#x6ca;" horiz-adv-x="1051" 
d="M1114 28q-29 -28 -71 -28h-90q-58 -285 -299 -476q-224 -179 -530 -226l-46 193q295 60 485 210q85 67 137 147q52 79 62 152h-30q-21 -1 -33 -1l-18 1h-19q-314 0 -433 147q-65 82 -65 214q0 202 121 358q101 128 234 128q142 0 261 -128q182 -201 188 -523h75
q44 0 72 -28t28 -71q0 -42 -29 -69zM458 623q-11 -10 -22 -26q-8 -11 -18 -27q-57 -96 -57 -207q0 -105 90 -141q61 -24 206 -24h21q64 2 92 4q-12 243 -137 384l-11 11l-11 10q-13 13 -26 21q-32 22 -66 22q-33 0 -61 -27zM341 1048l-164 163l162 163l164 -164zM719 1046
l-164 164l162 162l164 -163z" />
    <glyph glyph-name="uni06CB.fina" unicode="&#x6cb;" horiz-adv-x="1056" arabic-form="final" 
d="M1114 28q-29 -28 -71 -28h-90q-58 -285 -299 -476q-224 -179 -530 -226l-46 193q295 60 485 210q85 67 137 147q52 79 62 152h-30q-21 -1 -33 -1l-18 1h-19q-314 0 -433 147q-65 82 -65 214q0 202 121 358q101 128 234 128q142 0 261 -128q182 -201 188 -523h75
q44 0 72 -28t28 -71q0 -42 -29 -69zM458 623q-11 -10 -22 -26q-8 -11 -18 -27q-57 -96 -57 -207q0 -105 90 -141q61 -24 206 -24h21q64 2 92 4q-12 243 -137 384l-11 11l-11 10q-13 13 -26 21q-32 22 -66 22q-33 0 -61 -27zM729 1335l164 -164l-162 -162l-164 164zM323 1337
l164 -164l-162 -163l-164 164zM532 1612l149 -149l-148 -148l-149 149z" />
    <glyph glyph-name="uni06CD.fina" unicode="&#x6cd;" horiz-adv-x="1752" 
d="M181 -243q-29 -37 -50 -67l-160 135l268 318l200 -8q-19 -108 -19 -187q0 -253 164 -340q110 -58 248 -61l29 -1h27q28 -1 46 -1h21q208 0 417 100q76 36 120 88q22 26 22 57q0 17 -15 35q-6 7 -15 15l-16 14q-56 45 -159 82q-75 27 -190 54q-29 7 -41 9l-22 4l14 194
l682 -1q41 0 70 -28q29 -29 29 -70t-29 -70q-29 -28 -70 -28h-150q108 -88 108 -210q0 -155 -158 -268q-197 -141 -508 -169q-57 -5 -89 -5h-50q-154 0 -254 25q-364 91 -419 449z" />
    <glyph glyph-name="uni06CE.init" unicode="&#x6ce;" horiz-adv-x="793" 
d="M0 0q-41 0 -70 28q-28 28 -28 70t28 70q29 28 70 28h135l25 -1l14 1h13q124 0 205 23q103 29 134 95q14 31 14 78q0 86 -32 194q-22 73 -65 175l-33 75l178 88l3 -5q1 -4 3 -7l4 -8q54 -116 92 -242q47 -157 47 -266q0 -93 -30 -162q-88 -199 -321 -224q-88 -10 -170 -10
h-216zM306 1073q-68 209 -140 312q-27 38 -53 57l64 92q45 -31 100 -116q54 -83 84 -167l17 46l15 47q20 59 34 91q40 102 95 153l77 -82q-39 -35 -69 -109q-10 -26 -24 -67l-11 -33l-11 -33q-40 -121 -73 -197zM168 -559l-164 163l162 163l164 -164zM546 -561l-164 164
l162 162l164 -163z" />
    <glyph glyph-name="uni06CE.medi" unicode="&#x6ce;" horiz-adv-x="859" 
d="M-2 0q-42 0 -70 28t-28 70q0 41 28 70q29 29 70 29h76q299 0 389 121q31 41 31 107v12q-9 160 -46 297l187 53q55 -191 55 -350v-6q0 -104 36 -164q43 -71 130 -71q42 0 71 -28t29 -70t-28 -70t-70 -28q-178 0 -275 128q-133 -128 -509 -128h-76zM320 965
q-68 209 -140 312q-27 38 -53 57l64 92q45 -31 100 -116q54 -83 84 -167l17 46l15 47q20 59 34 91q40 102 95 153l77 -82q-39 -35 -69 -109q-10 -26 -24 -67l-11 -33l-11 -33q-40 -121 -73 -197zM167 -581l-164 163l162 163l164 -164zM545 -583l-164 164l162 162l164 -163z
" />
    <glyph glyph-name="uni06CE.fina" unicode="&#x6ce;" horiz-adv-x="1691" 
d="M1477 0q109 -91 109 -210q-2 -155 -139 -266q-219 -176 -617 -176q-490 0 -635 242q-97 142 -97 361q0 154 50 348q43 166 121 353l183 -74q-128 -315 -152 -535q-5 -41 -5 -94q0 -392 421 -402l31 -1h30q31 -1 53 -1q255 0 440 95q53 27 81 57q38 41 38 93q0 18 -16 36
q-6 7 -15 15l-16 13q-56 45 -159 82q-75 27 -189 54q-29 7 -41 9l-22 4l15 194l770 -1q41 0 70 -28q29 -29 29 -70t-29 -70q-29 -28 -70 -28h-239zM748 428q-68 209 -140 312q-27 38 -53 57l64 92q45 -31 100 -116q54 -83 84 -167l17 46l15 47q20 59 34 91q40 102 95 153
l77 -82q-39 -35 -69 -109q-10 -26 -24 -67l-11 -33l-11 -33q-40 -121 -73 -197z" />
    <glyph glyph-name="uni06CF.fina" unicode="&#x6cf;" horiz-adv-x="1061" 
d="M1114 28q-29 -28 -71 -28h-90q-58 -285 -299 -476q-224 -179 -530 -226l-46 193q295 60 485 210q85 67 137 147q52 79 62 152h-30q-21 -1 -33 -1l-18 1h-19q-314 0 -433 147q-65 82 -65 214q0 202 121 358q101 128 234 128q142 0 261 -128q182 -201 188 -523h75
q44 0 72 -28t28 -71q0 -42 -29 -69zM458 623q-11 -10 -22 -26q-8 -11 -18 -27q-57 -96 -57 -207q0 -105 90 -141q61 -24 206 -24h21q64 2 92 4q-12 243 -137 384l-11 11l-11 10q-13 13 -26 21q-32 22 -66 22q-33 0 -61 -27zM518 1051l-164 164l163 163l164 -164z" />
    <glyph glyph-name="uni06D0.fina" unicode="&#x6d0;" horiz-adv-x="1691" arabic-form="final" 
d="M1477 0q109 -91 109 -210q-2 -155 -139 -266q-219 -176 -617 -176q-490 0 -635 242q-97 142 -97 361q0 154 50 348q43 166 121 353l183 -74q-128 -315 -152 -535q-5 -41 -5 -94q0 -392 421 -402l31 -1h30q31 -1 53 -1q255 0 440 95q53 27 81 57q38 41 38 93q0 18 -16 36
q-6 7 -15 15l-16 13q-56 45 -159 82q-75 27 -189 54q-29 7 -41 9l-22 4l15 194l770 -1q41 0 70 -28q29 -29 29 -70t-29 -70q-29 -28 -70 -28h-239zM742 -1002l-117 117l116 116l117 -117zM742 -1269l-117 117l116 116l117 -117z" />
    <glyph glyph-name="uni06D1.fina" unicode="&#x6d1;" horiz-adv-x="1685" 
d="M1477 0q109 -91 109 -210q-2 -155 -139 -266q-219 -176 -617 -176q-490 0 -635 242q-97 142 -97 361q0 154 50 348q43 166 121 353l183 -74q-128 -315 -152 -535q-5 -41 -5 -94q0 -392 421 -402l31 -1h30q31 -1 53 -1q255 0 440 95q53 27 81 57q38 41 38 93q0 18 -16 36
q-6 7 -15 15l-16 13q-56 45 -159 82q-75 27 -189 54q-29 7 -41 9l-22 4l15 194l770 -1q41 0 70 -28q29 -29 29 -70t-29 -70q-29 -28 -70 -28h-239zM636 -1088l-117 117l116 116l117 -117zM889 -1089l-117 117l116 116l117 -117zM769 -1285l-117 117l116 116l117 -117z" />
    <glyph glyph-name="uni06EE.fina" unicode="&#x6ee;" horiz-adv-x="1297" 
d="M530 0q-225 0 -404 185l113 159q122 -111 235 -135q41 -9 82 -9q78 0 158 35q70 31 116 77l-316 760l182 76q63 -156 149 -362q31 -75 77 -185l40 -95l40 -97l10 -23l9 -23q11 -26 17 -41q25 -66 73 -95q49 -31 138 -31q41 0 70 -28q29 -29 29 -70t-29 -70
q-29 -28 -70 -28q-219 0 -322 133q-179 -133 -397 -133zM690 1423q27 -40 52 -57l-64 -92q-45 31 -100 116q-54 83 -84 167l-17 -46l-15 -47q-20 -59 -33 -91q-42 -102 -96 -153l-77 82q48 46 87 154q12 32 31 94l15 46q8 25 15 44q21 59 40 101l105 -6q65 -203 141 -312z
" />
    <glyph glyph-name="uni06EF.fina" unicode="&#x6ef;" horiz-adv-x="895" 
d="M824 0q-126 0 -199 73v-4q0 -162 -97 -327q-81 -137 -244 -274q-137 -115 -320 -206l-86 177q254 133 393 284q110 119 144 248q13 46 13 98q0 13 -2 37q-14 109 -49 240q-23 87 -67 222l188 58q75 -231 150 -330q37 -49 70 -71q44 -29 102 -29h5q43 0 71 -28
q28 -29 28 -71t-29 -69q-28 -28 -70 -28h-1zM623 922q27 -40 52 -57l-64 -92q-45 31 -100 116q-54 83 -84 167l-17 -46l-15 -47q-20 -59 -33 -91q-42 -102 -96 -153l-77 82q48 46 87 154q12 32 31 94l15 46q8 25 15 44q21 59 40 101l105 -6q65 -203 141 -312z" />
    <glyph glyph-name="uni06FA.init" unicode="&#x6fa;" horiz-adv-x="1620" 
d="M0 -1q-41 3 -66 29q-26 27 -26 69q0 41 27 69q25 27 65 30q120 0 199 90q53 61 103 188q37 96 58 214l198 -42l-11 -35l-12 -36q-13 -44 -22 -78q-24 -93 -24 -168q0 -142 108 -142q53 0 98 32q33 24 65 69q96 138 139 429l192 -35q-2 -14 -5 -34l-6 -36q-9 -48 -13 -76
q-14 -95 -14 -158q0 -180 107 -191q21 -3 39 -3q92 0 124 66h-1q25 43 25 110q0 60 -17 133q-7 28 -18 62q-6 22 -18 57q-41 124 -84 205l175 92q8 -19 21 -47l11 -25l12 -25q29 -63 45 -105q72 -191 72 -344q0 -180 -99 -278q-98 -97 -280 -97h-7q-113 0 -215 92
q-27 25 -51 60q-131 -152 -297 -152q-90 0 -163 42q-71 42 -100 108q-131 -136 -318 -139h-16zM943 -525l-164 164l163 163l164 -164zM1136 1227l164 -164l-162 -162l-164 164zM730 1229l164 -164l-162 -163l-164 164zM939 1504l149 -149l-148 -148l-149 149z" />
    <glyph glyph-name="uni06FA.medi" unicode="&#x6fa;" horiz-adv-x="1882" 
d="M5 0q-42 0 -70 28q-29 28 -29 70q0 41 30 69q28 26 69 29h10q45 0 87 26q30 18 64 54q111 117 198 378l6 17l6 18q7 21 7 32l192 -53q-2 -2 -4 -10l-1 -7l-2 -7q-16 -61 -27 -127q-12 -79 -12 -142q0 -84 16 -124q21 -56 79 -56q39 0 73 25q83 63 141 213q43 109 77 281
q3 15 3 16l195 -37q-4 -4 -7 -24l-2 -17q-1 -10 -2 -15q-15 -88 -15 -192q0 -112 24 -169q32 -77 111 -77q58 0 93 44q25 33 45 101q29 102 29 254q0 21 -2 56q-3 35 -3 50v12l-1 3v2l196 16q1 -3 2 -16q1 -17 2 -40q22 -151 49 -241q79 -244 221 -244h20q42 0 70 -28
t28 -70q0 -41 -28 -70q-28 -28 -70 -28h-20q-205 0 -333 207q-95 -207 -298 -207q-198 0 -287 192q-132 -195 -311 -195q-91 0 -158 45q-64 42 -95 116l-8 19l-8 19q-34 -45 -67 -75q-124 -121 -273 -121h-10zM1208 1208l164 -164l-162 -162l-164 164zM802 1210l164 -164
l-162 -163l-164 164zM1011 1485l149 -149l-148 -148l-149 149zM1010 -530l-164 164l163 163l164 -164z" />
    <glyph glyph-name="uni06FA.fina" unicode="&#x6fa;" horiz-adv-x="2883" 
d="M2404 655q-2 35 -2 50v12l-1 3v2l196 14q1 0 2 -23l1 -10v-9q1 -10 1 -14q14 -133 49 -241q80 -242 221 -242h20q42 0 71 -29q28 -29 28 -71t-28 -70q-29 -28 -71 -28h-20q-208 0 -333 209q-90 -209 -297 -209q-52 0 -103 24q-39 19 -80 53q-27 22 -49 56
q-104 -123 -296 -133h-16q-105 0 -182 61l1 -17v-17q0 -375 -265 -552q-182 -123 -470 -135l-20 -1l-10 -1h-9q-256 0 -424 141q-165 139 -201 376q-9 56 -9 111v11q7 272 118 492q38 76 61 107l159 -118q-29 -39 -56 -105q-18 -47 -42 -123q-41 -132 -41 -263
q0 -172 99 -296q107 -134 333 -134h34q425 21 516 298q36 119 36 251q0 223 -94 429q-3 5 -5 12l-3 11q-5 12 -9 18l166 108q34 -79 84 -225q50 -148 128 -206q46 -34 114 -34q137 0 181 149q17 57 23 146q2 33 4 78l1 39l1 39l203 -15v-15l-1 -14q-2 -19 -2 -29
q0 -35 -3 -89v-24q0 -193 71 -251q23 -19 61 -19q44 0 79 42q83 90 83 348v8l-1 7q0 22 -2 57zM1935 -511l-164 164l163 163l164 -164zM2182 1232l164 -164l-162 -162l-164 164zM1776 1234l164 -164l-162 -163l-164 164zM1985 1509l149 -149l-148 -148l-149 149z" />
    <glyph glyph-name="uni06FB.init" unicode="&#x6fb;" horiz-adv-x="1894" 
d="M967 178q390 0 558 133q81 66 90 171q0 60 -37 108q-30 40 -79 65q-49 27 -116 27h-13q-104 -5 -216 -64q-211 -114 -344 -368q-8 -15 -18 -34l-8 -15l-7 -13q92 -10 190 -10zM0 0q-41 0 -70 28q-29 29 -29 70t29 70q29 28 70 28q131 0 204 52q71 50 98 156q7 29 17 74
l8 39l8 39q21 97 39 151l189 -57q-10 -26 -13 -40l-9 -42h1q-11 -44 -11 -109q0 -129 57 -204q147 312 375 477q149 108 314 137q58 11 109 11q188 0 317 -134q110 -114 110 -254q0 -195 -151 -324q-126 -108 -336 -154q-158 -34 -350 -34q-162 0 -259 16q-187 18 -312 175
q-119 -168 -396 -171h-9zM1290 -525l-164 164l163 163l164 -164zM1283 1042l-164 164l163 163l164 -164z" />
    <glyph glyph-name="uni06FB.medi" unicode="&#x6fb;" horiz-adv-x="1937" 
d="M-70 28q-29 29 -29 69q0 41 28 70q29 29 70 29h9q109 3 154 20q45 18 88 74q47 62 80 192l14 57l12 57q16 71 27 111l189 -58q-7 -16 -12 -39l-5 -22l-5 -21h1q-4 -18 -7 -50q-3 -33 -3 -57l1 -15v-16q3 -101 51 -163l6 -11q187 394 475 541q161 83 316 83
q199 0 323 -134q110 -110 110 -253q0 -173 -121 -296h231q42 0 71 -28q29 -29 29 -71q0 -41 -29 -69t-71 -28l-252 -1q-100 0 -177 7q-65 6 -106 24q-183 -49 -412 -49q-60 0 -136 5q-27 2 -63 5l-30 3l-28 2q-190 20 -293 149q-13 11 -24 30q-132 -175 -413 -175
q-41 0 -69 28zM970 178q396 0 566 135q84 68 90 169v11q0 35 -17 67q-13 25 -36 48q-70 73 -180 73h-6l-7 -1q-248 -12 -446 -257q-68 -84 -147 -235q87 -10 183 -10zM1275 -522l-164 164l163 163l164 -164zM1276 1055l-164 164l163 163l164 -164z" />
    <glyph glyph-name="uni06FB.fina" unicode="&#x6fb;" horiz-adv-x="2872" 
d="M2068 161l17 1h17q193 4 319 71q147 79 157 226v10q0 35 -17 67q-7 12 -18 26l-9 12l-9 11q-72 72 -183 72h-9q-160 -7 -294 -107q-99 -74 -195 -210q-47 -68 -82 -132q136 -47 306 -47zM2938 28q-29 -28 -70 -28q-198 0 -294 96q-213 -131 -518 -131q-346 0 -559 159
l2 -37l2 -35v-18q0 -331 -226 -529q-185 -155 -474 -155q-32 0 -49 1l-51 3q-210 22 -328 97q-245 142 -245 471v10q5 226 110 479q12 30 29 64q12 24 29 55l167 -108q-53 -86 -105 -270q-32 -112 -32 -225q0 -202 128 -295q116 -84 344 -84q355 0 466 275q39 98 39 222
q0 137 -38 285q-16 58 -39 127l-21 60l-21 58q-3 3 -4 9t-3 8l182 75q62 -150 156 -285q34 -50 73 -79q182 333 440 470q157 84 316 84q198 0 322 -134q110 -110 110 -254q0 -120 -66 -232q12 -20 65 -32q41 -9 85 -9h8q42 0 71 -28q28 -29 28 -71q0 -40 -29 -69zM2222 -521
l-164 164l163 163l164 -164zM2216 1032l-164 164l163 163l164 -164z" />
    <glyph glyph-name="uni06FC.init" unicode="&#x6fc;" horiz-adv-x="1096" 
d="M152 503q0 143 76 251q68 95 184 146q79 35 171 35q153 0 301 -90q63 -40 115 -90l-123 -151q-68 74 -171 114q-54 21 -122 21q-108 0 -171 -65q-64 -64 -64 -171q0 -98 64 -168q56 -61 146 -87q50 -15 104 -15l12 1h12q176 13 302 43l24 -190q-313 -85 -794 -85l-218 -2
q-42 0 -71 28t-29 70t29 70t71 28l284 3q-132 119 -132 304zM495 -466l-164 164l163 163l164 -164zM496 1082l-164 164l163 163l164 -164z" />
    <glyph glyph-name="uni06FC.medi" unicode="&#x6fc;" horiz-adv-x="1137" 
d="M1138 196q42 0 71 -29q28 -29 28 -71q0 -40 -29 -69q-29 -28 -70 -28q-336 0 -544 123q-259 -123 -601 -123q-41 0 -70 28q-29 29 -29 69q0 42 29 71q28 29 70 29q258 0 415 63q-72 66 -167 178l-79 94q-48 58 -79 93l10 139q195 177 506 177q239 0 370 -106
q82 -67 82 -150q1 -7 1 -20q0 -39 -18 -86q-75 -196 -254 -330q137 -52 358 -52zM596 357q77 40 170 155q50 62 76 118q11 23 11 43q-106 70 -262 70q-164 0 -288 -73q183 -224 293 -313zM512 -525l-164 164l163 163l164 -164zM511 1101l-164 164l163 163l164 -164z" />
    <glyph glyph-name="uni06FC.fina" unicode="&#x6fc;" horiz-adv-x="1362" 
d="M1416 28q-27 -27 -68 -29q-151 0 -317 67q-141 57 -308 175q-299 -117 -399 -287q-40 -68 -40 -160q0 -81 43 -152q32 -53 93 -106q120 -107 242 -123q60 -9 135 -9q276 0 451 127l102 -170q-218 -128 -388 -147q-63 -7 -150 -7q-232 0 -404 85q-167 82 -258 234
q-62 105 -62 256v8q3 158 71 276q54 93 164 182q103 81 229 133q-112 101 -237 239l-26 30l-12 122q92 144 355 210q118 25 213 25h4l4 -1q115 0 209 -33t145 -93q52 -61 52 -144v-9q-5 -173 -156 -293q-77 -60 -166 -101q106 -63 186 -94q114 -43 225 -43q41 0 69 -29
t28 -70t-29 -69zM753 468q170 74 227 120q79 64 81 144q0 23 -26 38q-10 6 -24 12l-11 4l-11 4q-59 18 -123 19h-21q-214 0 -348 -93q147 -157 256 -248zM695 -380l-164 164l163 163l164 -164zM688 1162l-164 164l163 163l164 -164z" />
    <glyph glyph-name="uni06FF.init" unicode="&#x6ff;" horiz-adv-x="1383" 
d="M892 563q-5 -216 -150 -361q68 -12 125 -12q122 0 199 50q86 55 86 157q0 40 -18 82q-58 142 -256 214q14 -59 14 -118v-12zM-10 0q-42 0 -70 29q-28 28 -28 70q0 41 28 69q29 28 70 28h47q14 0 32 1l33 2q45 2 65 2q24 1 57 5l28 3l27 3q-128 121 -128 313
q0 183 117 303q50 52 113 79q-36 14 -75 33q-4 2 -7 3l-3 1h-1l89 179q2 0 30 -11q401 -157 626 -294q150 -92 206 -175q86 -124 86 -259q0 -214 -197 -326q-98 -61 -298 -61q-185 0 -330 66q-190 -63 -508 -63h-9zM643 394q52 83 52 191q0 80 -34 136q-36 59 -99 71
q-5 1 -13 1q-23 0 -48 -14q-18 -10 -38 -29q-85 -74 -109 -188q-5 -19 -5 -44q0 -82 52 -148q39 -49 111 -92q82 37 131 116zM576 1345q27 -40 52 -57l-64 -92q-45 31 -100 116q-54 83 -84 167l-17 -46l-15 -47q-20 -59 -33 -91q-42 -102 -96 -153l-77 82q48 46 87 154
q12 32 31 94l15 46q8 25 15 44q21 59 40 101l105 -6q65 -203 141 -312z" />
    <glyph glyph-name="uni06FF.medi" unicode="&#x6ff;" horiz-adv-x="1005" 
d="M448 670q-22 -23 -44 -62q-98 -170 -98 -356q0 -30 2 -44q22 -2 32 -2q88 0 153 59q53 49 83 130q22 61 22 118q0 129 -86 192q-33 -3 -64 -35zM-1 0q-42 0 -70 28t-28 70q0 41 28 70q28 28 70 28h112v14l-1 15q0 201 94 413q69 157 182 234q57 39 125 42h10
q101 0 175 -114q89 -136 89 -328q0 -99 -30 -156q-42 -123 -150 -202q-104 -76 -252 -99q65 -154 131 -233q31 -38 61 -56q-1 10 -1 30q0 167 137 300q89 86 209 122q59 18 115 18q42 0 71 -28q28 -28 28 -70t-28 -70q-29 -28 -71 -28h-8q-89 -5 -159 -61q-61 -50 -96 -127
q-23 -51 -28 -108v-9l-1 -10q0 -109 82 -191l-125 -152q-381 231 -513 633l-9 25h-149zM655 1228q27 -40 52 -57l-64 -92q-45 31 -100 116q-54 83 -84 167l-17 -46l-15 -47q-20 -59 -33 -91q-42 -102 -96 -153l-77 82q48 46 87 154q12 32 31 94l15 46q8 25 15 44
q21 59 40 101l105 -6q65 -203 141 -312z" />
    <glyph glyph-name="uni06FF.fina" unicode="&#x6ff;" horiz-adv-x="1163" 
d="M567 431q-27 -76 -27 -170q0 -35 2 -53l16 4l15 3q20 3 31 6q222 60 222 289v14q-4 82 -52 148q-18 25 -28 33q-113 -83 -179 -274zM64 -56q-28 28 -28 70q0 43 31 67q12 9 31 18l18 7l18 7l211 84q-3 35 -3 69q0 319 242 561q44 44 103 72q28 13 58 15h4q58 0 110 -43
q19 -16 41 -40l17 -20l8 -10l8 -9q91 -127 91 -281q0 -188 -104 -318q-99 -122 -265 -162q-42 -12 -68 -16q46 -116 137 -238q12 71 46 137q42 89 114 158q76 74 168 105q56 19 120 19q41 0 70 -28q29 -29 29 -70t-29 -70q-29 -28 -70 -28h-8q-82 -3 -138 -57
q-38 -37 -78 -115q-30 -62 -33 -132v-5q0 -92 65 -174l-1 -2l25 -21l-125 -152q-191 155 -311 310q-122 158 -177 323l-9 25l-248 -84q-42 0 -70 28zM863 1238q27 -40 52 -57l-64 -92q-45 31 -100 116q-54 83 -84 167l-17 -46l-15 -47q-20 -59 -33 -91q-42 -102 -96 -153
l-77 82q48 46 87 154q12 32 31 94l15 46q8 25 15 44q21 59 40 101l105 -6q65 -203 141 -312z" />
    <glyph glyph-name="uniFB51" unicode="&#x671;" horiz-adv-x="678" arabic-form="final" 
d="M735 28q-29 -28 -70 -28q-337 0 -397 252q-11 45 -11 128v48l1 15l1 17q1 44 1 72v220q0 47 -1 86v82l-1 83q0 94 -3 167q-8 187 -31 308l196 36q36 -206 36 -652q1 -39 1 -86v-285q-1 -34 -1 -46v-84q0 -69 20 -102q21 -33 74 -49q44 -13 106 -14h9q42 0 71 -28
q28 -28 28 -70q0 -41 -29 -70zM476 1805q68 25 73 82q0 31 -24 49q-23 17 -56 17q-6 0 -20 -2q-60 -10 -110 -61q-41 -41 -68 -101q27 -3 61 -3h4l4 -1q85 0 136 20zM307 1949q73 69 168 69q97 0 131 -87q11 -26 11 -53q0 -75 -92 -119q-80 -39 -189 -39q-74 0 -113 12
q-48 14 -74 51q-14 10 -34 10q-24 0 -56 -15q-12 -6 -25 -14l-10 -6l-9 -6l-18 68q48 25 97 35q8 2 24 2q58 0 90 -45q49 90 99 137z" />
    <glyph glyph-name="uniFB57" unicode="&#x67e;" horiz-adv-x="2247" arabic-form="final" 
d="M2306 28q-29 -28 -70 -28h-8q-260 3 -385 164q-40 48 -62 109q-264 -276 -833 -276q-620 3 -793 295q-67 116 -67 256q0 166 96 358l173 -95l-9 -20q-47 -102 -54 -208v-11l-1 -11q0 -94 39 -159q119 -202 616 -206q436 0 634 161q129 100 205 353l190 -52q-2 -8 -5 -21
l-5 -22q-7 -29 -11 -50q-13 -61 -13 -99v-6q9 -263 293 -263q41 0 70 -29t29 -70t-29 -70zM1383 -297l-164 -164l-162 162l164 164zM977 -299l-164 -164l-162 163l164 164zM1171 -589l-149 -149l-148 148l149 149z" />
    <glyph glyph-name="uniFB58" unicode="&#x67e;" horiz-adv-x="859" arabic-form="initial" 
d="M0 0q-41 0 -70 28q-28 28 -28 70t28 70q29 28 70 28h135l25 -1l14 1h13q124 0 205 23q103 29 134 95q14 31 14 78q0 86 -32 194q-22 73 -65 175l-33 75l178 88l3 -5q1 -4 3 -7l4 -8q54 -116 92 -242q47 -157 47 -266q0 -93 -30 -162q-88 -199 -321 -224q-88 -10 -170 -10
h-216zM737 -348l-164 -164l-162 162l164 164zM331 -350l-164 -164l-162 163l164 164zM525 -640l-149 -149l-148 148l149 149z" />
    <glyph glyph-name="uniFB59" unicode="&#x67e;" horiz-adv-x="859" arabic-form="medial" 
d="M-7 0q-42 0 -70 28t-28 70q0 41 28 70q29 29 70 29h76q299 0 389 121q31 41 31 107v12q-9 160 -46 297l187 53q55 -191 55 -350v-6q0 -104 36 -164q43 -71 130 -71q42 0 71 -28t29 -70t-28 -70t-70 -28q-178 0 -275 128q-133 -128 -509 -128h-76zM728 -302l-164 -164
l-162 162l164 164zM322 -304l-164 -164l-162 163l164 164zM516 -594l-149 -149l-148 148l149 149z" />
    <glyph glyph-name="uniFB67" unicode="&#x679;" horiz-adv-x="2236" arabic-form="final" 
d="M2306 28q-29 -28 -70 -28h-8q-260 3 -385 164q-40 48 -62 109q-264 -276 -833 -276q-620 3 -793 295q-67 116 -67 256q0 166 96 358l173 -95l-9 -20q-47 -102 -54 -208v-11l-1 -11q0 -94 39 -159q119 -202 616 -206q436 0 634 161q129 100 205 353l190 -52q-2 -8 -5 -21
l-5 -22q-7 -29 -11 -50q-13 -61 -13 -99v-6q9 -263 293 -263q41 0 70 -29t29 -70t-29 -70zM869 942q9 14 27 37l14 20l15 19q11 71 11 124q0 45 -5 112l-5 55q-3 36 -4 53q-7 80 -15 131l84 16l3 -24q6 -43 13 -136l6 -70q3 -38 7 -67q1 -8 1 -32v-23q0 -17 1 -35
q103 97 197 112q18 2 28 2q73 0 121 -38q52 -41 52 -109q0 -19 -4 -36q-13 -64 -58 -109l-1 -2q-114 -106 -301 -106h-28q-10 0 -26 2h-3q-139 7 -272 60l32 79q51 -18 110 -35zM1003 923h2q21 -1 67 -1q133 0 226 81q37 33 37 72q0 16 -7 31q-21 44 -73 44q-54 0 -118 -43
q-60 -42 -129 -123l-23 -29l-22 -29q21 -3 40 -3z" />
    <glyph glyph-name="uniFB68" unicode="&#x679;" horiz-adv-x="774" arabic-form="initial" 
d="M-5 0q-40 0 -69 29t-29 69q0 41 29 69q29 29 69 29h103q16 -1 46 -1q106 0 169 25q70 28 101 94q14 31 14 78q0 86 -32 194q-22 73 -65 175l-33 75l178 88l3 -5q1 -4 3 -7l4 -8q54 -116 92 -242q47 -157 47 -266q0 -93 -30 -162q-44 -101 -134 -161q-94 -63 -223 -70
q-51 -3 -97 -3h-146zM146 1201q9 14 27 37l14 20l15 19q11 71 11 124q0 45 -5 112l-5 55q-3 36 -4 53q-7 80 -15 131l84 16l3 -24q6 -43 13 -136l6 -70q3 -38 7 -67q1 -8 1 -32v-23q0 -17 1 -35q103 97 197 112q18 2 28 2q73 0 121 -38q52 -41 52 -109q0 -19 -4 -36
q-13 -64 -58 -109l-1 -2q-114 -106 -301 -106h-28q-10 0 -26 2h-3q-139 7 -272 60l32 79q51 -18 110 -35zM280 1182h2q21 -1 67 -1q133 0 226 81q37 33 37 72q0 16 -7 31q-21 44 -73 44q-54 0 -118 -43q-60 -42 -129 -123l-23 -29l-22 -29q21 -3 40 -3z" />
    <glyph glyph-name="uniFB69" unicode="&#x679;" horiz-adv-x="859" arabic-form="medial" 
d="M-7 0q-42 0 -70 28t-28 70q0 41 28 70q29 29 70 29h76q299 0 389 121q31 41 31 107v12q-9 160 -46 297l187 53q55 -191 55 -350v-6q0 -104 36 -164q43 -71 130 -71q42 0 71 -28t29 -70t-28 -70t-70 -28q-178 0 -275 128q-133 -128 -509 -128h-76zM207 1091q9 14 27 37
l14 20l15 19q11 71 11 124q0 45 -5 112l-5 55q-3 36 -4 53q-7 80 -15 131l84 16l3 -24q6 -43 13 -136l6 -70q3 -38 7 -67q1 -8 1 -32v-23q0 -17 1 -35q103 97 197 112l14 1l14 1q73 0 121 -38q52 -41 52 -109q0 -19 -4 -36q-13 -64 -58 -109l-1 -2q-114 -106 -301 -106h-28
q-10 0 -26 2h-3q-139 7 -272 60l32 79q51 -18 110 -35zM341 1072h2q21 -1 67 -1q133 0 226 81q37 33 37 72q0 16 -7 31q-21 44 -73 44q-54 0 -118 -43q-60 -42 -129 -123l-23 -29l-22 -29q21 -3 40 -3z" />
    <glyph glyph-name="uniFB6A" unicode="&#x6a4;" horiz-adv-x="1959" arabic-form="isolated" 
d="M1833 812q47 -126 51 -268l1 -12v-13q0 -165 -57 -255q-77 -122 -265 -185q-148 -50 -385 -69q-109 -9 -223 -9q-606 0 -784 304q-67 112 -67 252v19q5 105 46 228q16 48 28 72q13 26 15 32l174 -95q0 -1 -9 -19q-56 -114 -56 -233q0 -151 120 -245q160 -126 596 -126
q369 0 547 101q53 27 86 64h-99q-157 0 -258 58q-106 61 -138 179q-10 35 -11 74v17q0 95 43 205q57 146 162 210q55 34 124 34q133 0 240 -119q74 -80 119 -201zM1420 573q54 -21 189 -21q44 0 78 3q-43 239 -120 325q-19 22 -41 36q-28 18 -53 18q-20 0 -35 -11
q-43 -30 -72 -92q-30 -64 -30 -132q0 -95 84 -126zM1645 1649l164 -164l-162 -162l-164 164zM1239 1651l164 -164l-162 -163l-164 164zM1448 1926l149 -149l-148 -148l-149 149z" />
    <glyph glyph-name="uniFB6B" unicode="&#x6a4;" horiz-adv-x="2106" arabic-form="final" 
d="M1857 220q137 -24 251 -24q41 0 70 -28q29 -29 29 -70q0 -42 -28 -70q-29 -28 -71 -28q-257 0 -471 72q-19 -5 -43 -13l-41 -14q-52 -17 -93 -25q-213 -42 -499 -42q-621 3 -799 305q-67 111 -67 256v15q4 160 75 300q6 12 10 22q1 3 3 6v3l1 1l174 -95q0 -1 -9 -19
q-48 -96 -55 -209v-11l-1 -12q0 -154 117 -246q156 -122 609 -122h51q157 3 312 33q-137 113 -137 264q0 147 67 265q62 111 166 167q68 37 145 37q166 0 270 -145q69 -96 69 -257q0 -211 -105 -316zM1728 380q35 61 35 156q0 122 -58 173q-35 30 -82 30q-35 0 -68 -24
q-25 -18 -49 -49q-62 -79 -62 -197q0 -45 44 -92t128 -84l13 -7q68 39 99 94zM1787 1436l164 -164l-162 -162l-164 164zM1381 1438l164 -164l-162 -163l-164 164zM1590 1713l149 -149l-148 -148l-149 149z" />
    <glyph glyph-name="uniFB6C" unicode="&#x6a4;" horiz-adv-x="896" arabic-form="initial" 
d="M381 563q34 -11 85 -15q34 -2 96 -2q34 0 78 2q-20 257 -160 362q-23 17 -52 17q-20 0 -40 -18q-14 -13 -30 -36q-63 -93 -63 -199q0 -83 86 -111zM-3 0q-40 0 -69 29t-29 69q0 42 29 70t71 28q202 0 371 38q172 39 221 96l16 18h-101q-156 0 -258 59q-107 62 -139 179
q-10 35 -11 74v17q0 104 47 215q63 147 167 203q56 30 116 30q132 0 240 -117q173 -190 173 -497q0 -38 -5 -85h-1q-21 -140 -83 -214q-172 -204 -738 -212h-17zM547 1550l164 -164l-162 -162l-164 164zM141 1552l164 -164l-162 -163l-164 164zM350 1827l149 -149l-148 -148
l-149 149z" />
    <glyph glyph-name="uniFB6D" unicode="&#x6a4;" horiz-adv-x="963" arabic-form="medial" 
d="M627 508q0 132 -83 206q-30 27 -63 27q-35 0 -68 -24q-25 -19 -49 -51q-62 -83 -62 -197q0 -49 44 -93q47 -47 144 -90q137 60 137 222zM-54 0q-42 0 -70 28t-28 70q0 43 28 70q27 28 70 28q160 0 290 15q-130 114 -130 258q0 191 111 329q111 140 255 140h11
q130 -6 219 -85q81 -73 114 -191q18 -64 18 -131v-23q-7 -170 -115 -288q120 -24 287 -24q41 0 70 -28q29 -29 29 -70q0 -43 -28 -70q-28 -28 -71 -28h-9q-271 0 -500 71q-184 -71 -543 -71h-8zM649 1423l164 -164l-162 -162l-164 164zM243 1425l164 -164l-162 -163
l-164 164zM452 1700l149 -149l-148 -148l-149 149z" />
    <glyph glyph-name="uniFB7B" unicode="&#x686;" horiz-adv-x="1703" arabic-form="final" 
d="M1221 -48l-154 -153l-151 151l153 154zM841 -50l-153 -153l-151 152l153 154zM1023 -321l-140 -139l-138 138l139 140zM912 -791q-289 0 -498 154q-261 192 -261 482q0 77 21 161q33 134 132 272q252 293 811 360l-108 52q-115 57 -192 92q-110 49 -183 49
q-117 0 -213 -102q-62 -69 -88 -132l-184 76q9 28 32 64l21 31l11 15l10 15q103 146 249 202q78 29 159 29q113 0 247 -59q69 -30 173 -80l87 -43l89 -42q215 -102 369 -153l-38 -192h-27l-11 1q-15 1 -26 1h-44q-17 -1 -26 -1l-21 -1l-22 -1q-26 -1 -47 -2q-2 -14 -2 -31
q0 -137 108 -190q82 -40 260 -40q42 0 71 -29q28 -29 28 -71q0 -40 -29 -68t-70 -28q-218 0 -347 62q-141 67 -194 214q-21 59 -24 125q-3 21 0 38q-261 -31 -447 -116q-235 -118 -312 -311q-27 -66 -27 -148q0 -248 232 -382q146 -83 336 -86h7l6 -1q297 0 488 182
l129 -152q-242 -216 -635 -216z" />
    <glyph glyph-name="uniFB7C" unicode="&#x686;" horiz-adv-x="1559" arabic-form="initial" 
d="M-1 0q-43 0 -71 28q-29 27 -29 70q0 42 29 70t71 28h198q242 0 528 93q222 73 489 207q-87 31 -219 92l-53 24l-53 25q-61 28 -108 47q-86 35 -147 35q-63 0 -121 -41q-39 -28 -82 -82q-44 -55 -69 -104q-9 -18 -11 -20l-180 81q1 1 9 17q107 214 270 299q89 47 184 47
q80 0 163 -26q34 -11 72 -27q24 -10 67 -30l56 -26l56 -27q68 -32 113 -52q132 -57 245 -82q59 -13 123 -13l38 -190q-103 -42 -283 -133q-411 -209 -788 -282q-146 -28 -299 -28h-198zM1116 -291l-164 -164l-162 162l164 164zM710 -293l-164 -164l-162 163l164 164z
M904 -583l-149 -149l-148 148l149 149z" />
    <glyph glyph-name="uniFB7D" unicode="&#x686;" horiz-adv-x="1663" arabic-form="medial" 
d="M-70 28q-29 28 -29 69q0 43 29 71q28 28 70 28h183q235 0 497 92q107 38 236 98q51 23 114 54l112 56q-57 20 -129 53l-61 30l-62 30q-154 74 -260 99q-42 10 -69 10q-64 0 -121 -40q-39 -28 -82 -82q-38 -46 -78 -123l-181 82q0 2 7 16q104 206 272 298q89 48 183 48
q82 0 199 -41q62 -22 142 -58l68 -33l69 -32q171 -80 295 -107q59 -13 122 -13l39 -189q-83 -36 -182 -84q24 -85 125 -128q87 -36 215 -36h14q43 0 71 -28q28 -29 28 -71t-29 -69q-28 -28 -70 -28h-14q-195 0 -328 68q-138 70 -191 204q-391 -195 -686 -250
q-122 -23 -265 -23l-183 1q-41 0 -70 28zM1115 -297l-164 -164l-162 162l164 164zM709 -299l-164 -164l-162 163l164 164zM903 -589l-149 -149l-148 148l149 149z" />
    <glyph glyph-name="uniFB89" unicode="&#x688;" horiz-adv-x="1242" arabic-form="final" 
d="M530 0q-225 0 -404 185l113 159q122 -111 235 -135q41 -9 82 -9q78 0 158 35q70 31 116 77l-316 760l182 76q63 -156 149 -362q31 -75 77 -185l40 -95l40 -97l10 -23l9 -23q11 -26 17 -41q25 -66 73 -95q49 -31 138 -31q41 0 70 -28q29 -29 29 -70t-29 -70
q-29 -28 -70 -28q-219 0 -322 133q-179 -133 -397 -133zM331 1360q9 14 27 37l14 20l15 19q11 71 11 124q0 45 -5 112l-5 55q-3 36 -4 53q-7 80 -15 131l84 16l3 -24q6 -43 13 -136l6 -70q3 -38 7 -67q1 -8 1 -32v-23q0 -17 1 -35q103 97 197 112l14 1l14 1q73 0 121 -38
q52 -41 52 -109q0 -19 -4 -36q-13 -64 -58 -109l-1 -2q-114 -106 -301 -106h-28q-10 0 -26 2h-3q-139 7 -272 60l32 79q51 -18 110 -35zM465 1341h2q21 -1 67 -1q133 0 226 81q37 33 37 72q0 16 -7 31q-21 44 -73 44q-54 0 -118 -43q-60 -42 -129 -123l-23 -29l-22 -29
q21 -3 40 -3z" />
    <glyph glyph-name="uniFB8B" unicode="&#x698;" horiz-adv-x="871" arabic-form="final" 
d="M874 0q-126 0 -199 73v-4q0 -162 -97 -327q-81 -137 -244 -274q-137 -115 -320 -206l-86 177q254 133 393 284q110 119 144 248q13 46 13 98q0 13 -2 37q-14 109 -49 240q-23 87 -67 222l188 58q75 -231 150 -330q37 -49 70 -71q44 -29 102 -29h5q43 0 71 -28
q28 -29 28 -71t-29 -69q-28 -28 -70 -28h-1zM643 1129l164 -164l-162 -162l-164 164zM237 1131l164 -164l-162 -163l-164 164zM446 1406l149 -149l-148 -148l-149 149z" />
    <glyph glyph-name="uniFB8D" unicode="&#x691;" horiz-adv-x="822" arabic-form="final" 
d="M824 0q-126 0 -199 73v-4q0 -162 -97 -327q-81 -137 -244 -274q-137 -115 -320 -206l-86 177q254 133 393 284q110 119 144 248q13 46 13 98q0 13 -2 37q-14 109 -49 240q-23 87 -67 222l188 58q75 -231 150 -330q37 -49 70 -71q44 -29 102 -29h5q43 0 71 -28
q28 -29 28 -71t-29 -69q-28 -28 -70 -28h-1zM214 983q9 14 27 37l14 20l15 19q11 71 11 124q0 45 -5 112l-5 55q-3 36 -4 53q-7 80 -15 131l84 16l3 -24q6 -43 13 -136l6 -70q3 -38 7 -67q1 -8 1 -32v-23q0 -17 1 -35q103 97 197 112l14 1l14 1q73 0 121 -38q52 -41 52 -109
q0 -19 -4 -36q-13 -64 -58 -109l-1 -2q-114 -106 -301 -106h-28q-10 0 -26 2h-3q-139 7 -272 60l32 79q51 -18 110 -35zM348 964h2q21 -1 67 -1q133 0 226 81q37 33 37 72q0 16 -7 31q-21 44 -73 44q-54 0 -118 -43q-60 -42 -129 -123l-23 -29l-22 -29q21 -3 40 -3z" />
    <glyph glyph-name="uniFB8F" unicode="&#x6a9;" horiz-adv-x="2321" arabic-form="final" 
d="M287 625q-29 -72 -29 -134q0 -49 20 -89q57 -118 273 -167q159 -36 415 -36q60 -2 87 -2q274 0 440 68q179 68 179 202q0 44 -18 89q-36 93 -118 190q-54 63 -155 156q-86 80 -205 171l22 206l897 386l75 -182l-792 -334q265 -184 405 -415q22 -37 43 -85l18 -44l18 -44
q44 -117 78 -172q117 -190 372 -193h8q42 0 70 -28t28 -70q0 -41 -28 -70q-28 -28 -70 -28q-176 0 -315 69q-130 64 -213 181q-55 -90 -194 -156q-207 -94 -549 -94h-92q-351 0 -568 82q-7 3 -19 7l-20 7q-25 9 -35 15q-146 75 -214 202q-1 1 -1 4q-38 84 -41 167v17
q0 97 45 200q16 39 41 83q10 17 22 38l11 17l10 17l158 -118q-37 -57 -59 -113z" />
    <glyph glyph-name="uniFB90" unicode="&#x6a9;" horiz-adv-x="936" arabic-form="initial" 
d="M-88 27q-32 27 -32 70q0 44 31 72q31 27 77 27h86q11 -1 19 0q231 0 327 35q147 53 147 213q0 105 -69 204q-152 220 -411 427l23 205l822 352l77 -182l-716 -301q152 -128 242 -230q126 -143 181 -285q42 -107 42 -206q0 -119 -59 -224q-90 -159 -301 -198
q-35 -7 -87 -7l-323 1q-46 0 -76 27z" />
    <glyph glyph-name="uniFB91" unicode="&#x6a9;" horiz-adv-x="1169" arabic-form="medial" 
d="M1 0q-41 0 -70 28q-29 29 -29 70q0 42 29 70q28 28 70 28h339q67 0 125 37q51 33 82 83q26 43 26 94q0 97 -71 223q-133 237 -388 433l26 221l884 381l77 -182l-793 -333q193 -154 319 -370q37 -63 104 -188l51 -94q29 -52 53 -94q57 -97 122 -145q83 -63 199 -66h42
q42 0 70 -28q28 -29 28 -70q0 -42 -28 -70t-70 -28h-8q-166 0 -284 60q-103 52 -185 159q-112 -209 -394 -219h-326z" />
    <glyph glyph-name="uniFB93" unicode="&#x6af;" horiz-adv-x="2309" arabic-form="final" 
d="M287 625q-29 -72 -29 -134q0 -49 20 -89q57 -118 273 -167q159 -36 415 -36q60 -2 87 -2q274 0 440 68q179 68 179 202q0 44 -18 89q-36 93 -118 190q-54 63 -155 156q-86 80 -205 171l22 206l897 386l75 -182l-792 -334q265 -184 405 -415q22 -37 43 -85l18 -44l18 -44
q44 -117 78 -172q117 -190 372 -193h8q42 0 70 -28t28 -70q0 -41 -28 -70q-28 -28 -70 -28q-176 0 -315 69q-130 64 -213 181q-55 -90 -194 -156q-207 -94 -549 -94h-92q-351 0 -568 82q-7 3 -19 7l-20 7q-25 9 -35 15q-146 75 -214 202q-1 1 -1 4q-38 84 -41 167v17
q0 97 45 200q16 39 41 83q10 17 22 38l11 17l10 17l158 -118q-37 -57 -59 -113zM1174 1414l7 128l819 353l47 -101z" />
    <glyph glyph-name="uniFB94" unicode="&#x6af;" horiz-adv-x="941" arabic-form="initial" 
d="M-72 27q-32 27 -32 70q0 44 31 72q31 27 77 27h86q11 -1 19 0q231 0 327 35q147 53 147 213q0 105 -69 204q-152 220 -411 427l23 205l822 352l77 -182l-716 -301q152 -128 242 -230q126 -143 181 -285q42 -107 42 -206q0 -119 -59 -224q-90 -159 -301 -198
q-35 -7 -87 -7l-323 1q-46 0 -76 27zM110 1420l7 128l750 313l47 -101z" />
    <glyph glyph-name="uniFB95" unicode="&#x6af;" horiz-adv-x="1187" arabic-form="medial" 
d="M1 0q-41 0 -70 28q-29 29 -29 70q0 42 29 70q28 28 70 28h339q67 0 125 37q51 33 82 83q26 43 26 94q0 97 -71 223q-133 237 -388 433l26 221l884 381l77 -182l-793 -333q193 -154 319 -370q37 -63 104 -188l51 -94q29 -52 53 -94q57 -97 122 -145q83 -63 199 -66h42
q42 0 70 -28q28 -29 28 -70q0 -42 -28 -70t-70 -28h-8q-166 0 -284 60q-103 52 -185 159q-112 -209 -394 -219h-326zM150 1449l7 128l750 313l47 -101z" />
    <glyph glyph-name="uniFB9F" unicode="&#x6ba;" horiz-adv-x="1709" arabic-form="final" 
d="M1778 28q-29 -28 -71 -28q-132 0 -239 62l1 -24v-25q0 -338 -201 -516q-186 -166 -534 -184h-41q-200 0 -347 86q-136 80 -212 225q-73 138 -73 319l1 4v3q0 253 116 492q33 69 60 107l160 -116q-50 -68 -99 -229q-33 -107 -39 -230v-15l-1 -14q0 -165 76 -273
q73 -105 209 -144q67 -19 148 -19h29l5 1q536 26 544 471v18q0 195 -94 414q-6 10 -13 27l-12 29q-16 35 -29 52q-3 3 -4 7q-2 2 -2 3l167 106q24 -37 71 -136q101 -188 196 -257q66 -48 157 -48q42 0 71 -28q28 -28 28 -70t-28 -70z" />
    <glyph glyph-name="uniFBA5" unicode="&#x6c0;" horiz-adv-x="1090" arabic-form="final" 
d="M600 684l-44 -19q-50 -23 -85 -44q-94 -54 -131 -121q-17 -31 -17 -61q0 -62 75 -87q52 -18 145 -18h9q65 0 143 14q-20 97 -53 354zM544 140q-258 0 -359 125q-50 61 -53 148v15q0 105 84 210q135 168 403 267q-2 16 -4 35l-1 16l-2 15q-3 31 -4 45q-1 8 -1 16
q-1 6 -2 11v4l-1 3v3l196 41q10 -62 19 -165l8 -85q5 -51 8 -82q32 -308 71 -446q18 -64 61 -92q42 -28 123 -28q41 0 70 -28q29 -29 29 -70q0 -42 -28 -70q-29 -28 -71 -28q-228 0 -327 159q-116 -19 -219 -19zM392 1324q-41 54 -41 123q0 95 68 155q65 57 163 57
q31 0 64 -6l28 -6l28 -7l-28 -92q-48 13 -92 13q-35 0 -62 -12v2q-29 -12 -49 -40q-22 -30 -22 -64q0 -15 8 -36l-1 1q13 -34 48 -57q37 -25 80 -25q37 0 77 18q14 7 32 17l15 9l14 9q24 14 43 29l59 -78q-58 -42 -242 -142l-227 -126l-48 87l179 100q-58 24 -94 71z" />
    <glyph glyph-name="uniFBA6" unicode="&#x6c1;" horiz-adv-x="983" arabic-form="isolated" 
d="M270 48q-93 45 -142 120q-49 76 -49 179q0 181 163 377q53 63 117 122q-30 27 -48 42t-18 16l126 153q10 -10 34 -30l19 -17l21 -19q24 -23 39 -37l40 -39q45 -46 78 -83q124 -142 182 -260q61 -124 61 -225q0 -278 -307 -339q-41 -8 -101 -8q-117 0 -215 48zM510 200
q186 0 186 147q0 64 -50 156q-47 86 -145 197q-1 1 -1 2l-1 1l-2 1q-139 -125 -197 -254q-24 -52 -24 -103q0 -125 188 -147q6 -1 12 -1h14l6 1h14z" />
    <glyph glyph-name="uniFBA8" unicode="&#x6c1;" horiz-adv-x="728" arabic-form="initial" 
d="M527 -269q23 -17 78 -34q-36 -75 -97 -119q-26 -19 -38 -19q-52 5 -86 42q-35 37 -35 90q0 86 40 175q41 90 118 193l73 -45q-86 -119 -86 -215q0 -43 33 -68zM0 0q-41 0 -70 28q-28 28 -28 70t28 70q29 28 70 28h58q16 -1 46 -1q106 0 169 25q70 28 101 94q14 31 14 78
q0 86 -32 194q-22 73 -65 175l-33 75l178 88l3 -5q1 -4 3 -7l4 -8q54 -116 92 -242q47 -157 47 -266q0 -93 -30 -162q-44 -101 -134 -161q-94 -63 -223 -70q-51 -3 -97 -3h-101z" />
    <glyph glyph-name="uniFBA9" unicode="&#x6c1;" horiz-adv-x="1000" arabic-form="medial" 
d="M899 -375q21 -16 78 -35q-36 -74 -97 -118q-26 -19 -39 -19q-52 5 -85 41q-35 37 -35 90q0 90 37 170q40 85 110 176l74 -45q-76 -103 -76 -192q0 -44 33 -68zM1001 0q-18 2 -27 2h-21q-148 0 -197 -68q-103 -149 -103 -382v-14l-149 -84q-318 198 -352 569
q-79 -23 -164 -23v195q126 0 150 53q5 10 10 24l10 27q13 33 22 50l181 -64q-19 -101 -19 -180q0 -225 132 -375q35 188 124 316q105 150 354 150h45l5 -1h13v-195h-14z" />
    <glyph glyph-name="uniFBAB" unicode="&#x6be;" horiz-adv-x="1169" arabic-form="final" 
d="M567 431q-27 -76 -27 -170q0 -35 2 -53l16 4l15 3q20 3 31 6q222 60 222 289v14q-4 82 -52 148q-18 25 -28 33q-113 -83 -179 -274zM64 -56q-28 28 -28 70q0 43 31 67q12 9 31 18l18 7l18 7l211 84q-3 35 -3 69q0 319 242 561q44 44 103 72q28 13 58 15h4q58 0 110 -43
q19 -16 41 -40l17 -20l8 -10l8 -9q91 -127 91 -281q0 -188 -104 -318q-99 -122 -265 -162q-42 -12 -68 -16q46 -116 137 -238q12 71 46 137q42 89 114 158q76 74 168 105q56 19 120 19q41 0 70 -28q29 -29 29 -70t-29 -70q-29 -28 -70 -28h-8q-82 -3 -138 -57
q-38 -37 -78 -115q-30 -62 -33 -132v-5q0 -92 65 -174l-1 -2l25 -21l-125 -152q-191 155 -311 310q-122 158 -177 323l-9 25l-248 -84q-42 0 -70 28z" />
    <glyph glyph-name="uniFBAC" unicode="&#x6be;" horiz-adv-x="1388" arabic-form="initial" 
d="M892 563q-5 -216 -150 -361q68 -12 125 -12q122 0 199 50q86 55 86 157q0 40 -18 82q-58 142 -256 214q14 -59 14 -118v-12zM-10 0q-42 0 -70 29q-28 28 -28 70q0 41 28 69q29 28 70 28h47q14 0 32 1l33 2q45 2 65 2q24 1 57 5l28 3l27 3q-128 121 -128 313
q0 183 117 303q50 52 113 79q-36 14 -75 33q-4 2 -7 3l-3 1h-1l89 179q2 0 30 -11q401 -157 626 -294q150 -92 206 -175q86 -124 86 -259q0 -214 -197 -326q-98 -61 -298 -61q-185 0 -330 66q-190 -63 -508 -63h-9zM643 394q52 83 52 191q0 80 -34 136q-36 59 -99 71
q-5 1 -13 1q-23 0 -48 -14q-18 -10 -38 -29q-85 -74 -109 -188q-5 -19 -5 -44q0 -82 52 -148q39 -49 111 -92q82 37 131 116z" />
    <glyph glyph-name="uniFBAD" unicode="&#x6be;" horiz-adv-x="1003" arabic-form="medial" 
d="M448 670q-22 -23 -44 -62q-98 -170 -98 -356q0 -30 2 -44q22 -2 32 -2q88 0 153 59q53 49 83 130q22 61 22 118q0 129 -86 192q-33 -3 -64 -35zM-1 0q-42 0 -70 28t-28 70q0 41 28 70q28 28 70 28h112v14l-1 15q0 201 94 413q69 157 182 234q57 39 125 42h10
q101 0 175 -114q89 -136 89 -328q0 -99 -30 -156q-42 -123 -150 -202q-104 -76 -252 -99q65 -154 131 -233q31 -38 61 -56q-1 10 -1 30q0 167 137 300q89 86 209 122q59 18 115 18q42 0 71 -28q28 -28 28 -70t-28 -70q-29 -28 -71 -28h-8q-89 -5 -159 -61q-61 -50 -96 -127
q-23 -51 -28 -108v-9l-1 -10q0 -109 82 -191l-125 -152q-381 231 -513 633l-9 25h-149z" />
    <glyph glyph-name="uniFBAF" unicode="&#x6d2;" horiz-adv-x="1276" arabic-form="final" 
d="M865 -291q191 0 387 26q7 1 15 2l10 2l10 1l32 -192q-5 0 -41 -6q-165 -28 -411 -28q-89 0 -200 8q-93 7 -183 18q-242 30 -374 86q-52 22 -74 44l-6 136q1 2 23 24q170 170 395 262q79 33 200 51q45 7 110 13l58 6l58 6q176 18 368 26q8 0 17 1h12q12 1 13 1v-195
q-49 0 -122 -6l-63 -5l-63 -6l-50 -4l-52 -5l-103 -10q-117 -11 -196 -25q-172 -29 -352 -167q247 -64 582 -64z" />
    <glyph glyph-name="uniFBB1" unicode="&#x6d3;" horiz-adv-x="1239" arabic-form="final" 
d="M826 -291q191 0 387 26q7 1 15 2l10 2l10 1l32 -192q-5 0 -41 -6q-165 -28 -411 -28q-89 0 -200 8q-93 7 -183 18q-242 30 -374 86q-52 22 -74 44l-6 136q1 2 23 24q170 170 395 262q79 33 200 51q45 7 110 13l58 6l58 6q176 18 368 26q8 0 17 1h12q12 1 13 1v-195
q-49 0 -122 -6l-63 -5l-63 -6l-50 -4l-52 -5l-103 -10q-117 -11 -196 -25q-172 -29 -352 -167q247 -64 582 -64zM318 416q-41 54 -41 123q0 95 68 155q65 57 163 57q31 0 64 -6l28 -6l28 -7l-28 -92q-48 13 -92 13q-35 0 -62 -12v2q-29 -12 -49 -40q-22 -30 -22 -64
q0 -15 8 -36l-1 1q13 -34 48 -57q37 -25 80 -25q37 0 77 18q14 7 32 17l15 9l14 9q24 14 43 29l59 -78q-58 -42 -242 -142l-227 -126l-48 87l179 100q-58 24 -94 71z" />
    <glyph glyph-name="uniFBE6" unicode="&#x6d0;" horiz-adv-x="788" arabic-form="initial" 
d="M0 0q-41 0 -70 28q-28 28 -28 70t28 70q29 28 70 28h135l25 -1l14 1h13q124 0 205 23q103 29 134 95q14 31 14 78q0 86 -32 194q-22 73 -65 175l-33 75l178 88l3 -5q1 -4 3 -7l4 -8q54 -116 92 -242q47 -157 47 -266q0 -93 -30 -162q-88 -199 -321 -224q-88 -10 -170 -10
h-216zM330 -523l-164 164l163 163l164 -164zM339 -922l-164 164l163 163l164 -164z" />
    <glyph glyph-name="uniFBE7" unicode="&#x6d0;" horiz-adv-x="859" arabic-form="medial" 
d="M-7 0q-42 0 -70 28t-28 70q0 41 28 70q29 29 70 29h76q299 0 389 121q31 41 31 107v12q-9 160 -46 297l187 53q55 -191 55 -350v-6q0 -104 36 -164q43 -71 130 -71q42 0 71 -28t29 -70t-28 -70t-70 -28q-178 0 -275 128q-133 -128 -509 -128h-76zM375 -464l-164 164
l163 163l164 -164zM384 -863l-164 164l163 163l164 -164z" />
    <glyph glyph-name="uniFBE8" unicode="&#x649;" horiz-adv-x="708" arabic-form="initial" 
d="M-7 0q-40 0 -69 29t-29 69q0 41 29 69q29 29 69 29h103q16 -1 46 -1q106 0 169 25q70 28 101 94q14 31 14 78q0 86 -32 194q-22 73 -65 175l-33 75l178 88l3 -5q1 -4 3 -7l4 -8q54 -116 92 -242q47 -157 47 -266q0 -93 -30 -162q-44 -101 -134 -161q-94 -63 -223 -70
q-51 -3 -97 -3h-146z" />
    <glyph glyph-name="uniFBE9" unicode="&#x649;" horiz-adv-x="705" arabic-form="medial" 
d="M4 0q-42 0 -70 28t-28 70q0 41 28 70q28 28 70 28h17q157 0 234 52q86 58 86 188q0 135 -46 297l188 53q54 -179 54 -350v-5q0 -103 37 -164q43 -71 130 -71q42 0 71 -28q28 -28 28 -70t-28 -70t-70 -28q-178 0 -274 124q-127 -124 -410 -124h-17z" />
    <glyph glyph-name="uniFBFD" unicode="&#x6cc;" horiz-adv-x="1686" arabic-form="final" 
d="M1477 0q109 -91 109 -210q-2 -155 -139 -266q-219 -176 -617 -176q-490 0 -635 242q-97 142 -97 361q0 154 50 348q43 166 121 353l183 -74q-128 -315 -152 -535q-5 -41 -5 -94q0 -392 421 -402l31 -1h30q31 -1 53 -1q255 0 440 95q53 27 81 57q38 41 38 93q0 18 -16 36
q-6 7 -15 15l-16 13q-56 45 -159 82q-75 27 -189 54q-29 7 -41 9l-22 4l15 194l770 -1q41 0 70 -28q29 -29 29 -70t-29 -70q-29 -28 -70 -28h-239z" />
    <glyph glyph-name="uniFBFE" unicode="&#x6cc;" horiz-adv-x="799" arabic-form="initial" 
d="M188 -507l-164 163l162 163l164 -164zM566 -509l-164 164l162 162l164 -163zM-51 0q-41 0 -70 28q-28 28 -28 70t28 70q29 28 70 28h135l25 -1l14 1h13q124 0 205 23q103 29 134 95q14 31 14 78q0 86 -32 194q-22 73 -65 175l-33 75l178 88l3 -5q1 -4 3 -7l4 -8
q54 -116 92 -242q47 -157 47 -266q0 -93 -30 -162q-88 -199 -321 -224q-88 -10 -170 -10h-216z" />
    <glyph glyph-name="uniFBFF" unicode="&#x6cc;" horiz-adv-x="860" arabic-form="medial" 
d="M-7 0q-42 0 -70 28t-28 70q0 41 28 70q29 29 70 29h76q299 0 389 121q31 41 31 107v12q-9 160 -46 297l187 53q55 -191 55 -350v-6q0 -104 36 -164q43 -71 130 -71q42 0 71 -28t29 -70t-28 -70t-70 -28q-178 0 -275 128q-133 -128 -509 -128h-76zM166 -542l-164 163
l162 163l164 -164zM544 -544l-164 164l162 162l164 -163z" />
    <glyph glyph-name="uniFC5E" unicode="&#xfc5e;" arabic-form="isolated" 
d="M136 1153h-6q-68 3 -108 36q-43 34 -46 95v16q0 77 33 134l77 -36q-24 -54 -24 -104q0 -25 20 -41q18 -15 46 -15q15 0 27 4q33 9 47 54q10 34 10 91v36q1 0 12 2l10 1l11 1q29 4 39 4q5 0 5 -1q14 -113 40 -152q18 -26 45 -26q63 4 63 77q0 43 -21 90q-16 38 -42 70
l71 49q8 -12 13 -19l14 -22q15 -26 26 -49q28 -60 28 -115q0 -85 -72 -137q-40 -28 -84 -28q-67 0 -109 52q-48 -67 -125 -67zM395 1681l-12 4l-12 4q-52 -52 -147 -92q-61 -26 -177 -59l-18 -4l-6 -1l-5 -1l-46 65q9 16 17 44q9 33 9 60q0 53 -38 57q-21 0 -43 -12
q-16 -10 -31 -25l-61 61q25 25 58 41q40 20 77 20q35 0 63 -17q60 -36 60 -120q0 -33 -8 -70q133 40 203 88l-5 4q-119 40 -148 126q-8 26 -8 44q0 47 35 88q28 33 71 54q38 18 70 18q61 0 101 -52q39 -51 39 -124q0 -11 -2 -31q-6 -45 -16 -85q5 -1 14 -4l8 -2l6 -2
l-25 -83q-9 2 -23 6zM241 1951q-22 -17 -34 -38q-2 -6 -2 -18q0 -32 38 -55l17 -10l17 -8q23 -11 33 -17l24 -11q12 48 12 87q0 27 -6 49q-10 25 -32 38l-8 2l-9 1q-24 0 -50 -20z" />
    <glyph glyph-name="uniFC5F" unicode="&#xfc5f;" arabic-form="isolated" 
d="M144 1137h-6q-68 3 -108 36q-43 34 -46 95v16q0 77 33 134l77 -36q-24 -54 -24 -104q0 -25 20 -41q18 -15 46 -15q15 0 27 4q33 9 47 54q10 34 10 91v36q1 0 12 2l10 1l11 1q29 4 39 4q5 0 5 -1q14 -113 40 -152q18 -26 45 -26q63 4 63 77q0 43 -21 90q-16 38 -42 70
l71 49q8 -12 13 -19l14 -22q15 -26 26 -49q28 -60 28 -115q0 -85 -72 -137q-40 -28 -84 -28q-67 0 -109 52q-48 -67 -125 -67zM68 591v111l422 167v-104zM68 850v111l422 167v-104z" />
    <glyph glyph-name="uniFC60" unicode="&#xfc60;" arabic-form="isolated" 
d="M112 1332h-6q-68 3 -108 36q-43 34 -46 95v16q0 77 33 134l77 -36q-24 -54 -24 -104q0 -25 20 -41q18 -15 46 -15q15 0 27 4q33 9 47 54q10 34 10 91v36q1 0 12 2l10 1l11 1q29 4 39 4q5 0 5 -1q14 -113 40 -152q18 -26 45 -26q63 4 63 77q0 43 -21 90q-16 38 -42 70
l71 49q8 -12 13 -19l14 -22q15 -26 26 -49q28 -60 28 -115q0 -85 -72 -137q-40 -28 -84 -28q-67 0 -109 52q-48 -67 -125 -67zM-33 1693v111l422 167v-104z" />
    <glyph glyph-name="uniFC61" unicode="&#xfc61;" arabic-form="isolated" 
d="M132 1162h-6q-68 3 -108 36q-43 34 -46 95v16q0 77 33 134l77 -36q-24 -54 -24 -104q0 -25 20 -41q18 -15 46 -15q15 0 27 4q33 9 47 54q10 34 10 91v36q1 0 12 2l10 1l11 1q29 4 39 4q5 0 5 -1q14 -113 40 -152q18 -26 45 -26q63 4 63 77q0 43 -21 90q-16 38 -42 70
l71 49q8 -12 13 -19l14 -22q15 -26 26 -49q28 -60 28 -115q0 -85 -72 -137q-40 -28 -84 -28q-67 0 -109 52q-48 -67 -125 -67zM337 1737l-13 5l-11 4q-119 -119 -337 -173l-24 84q175 49 272 122q-66 30 -95 50q-47 34 -62 80q-7 21 -7 42q0 31 16 61q13 24 35 46
q54 54 122 54q31 0 55 -12q88 -42 88 -165q0 -56 -18 -114q5 -1 14 -4l8 -2l6 -2l-25 -83q-9 2 -24 7zM183 2007q-21 -16 -32 -39q-3 0 -5 -11q-1 -10 1 -17q7 -28 43 -49q11 -6 32 -16l16 -7l15 -8l24 -11q5 21 7 41q4 27 4 49q0 88 -55 88q-26 0 -50 -20z" />
    <glyph glyph-name="uniFC62" unicode="&#xfc62;" arabic-form="isolated" 
d="M139 1170h-6q-68 3 -108 36q-43 34 -46 95v16q0 77 33 134l77 -36q-24 -54 -24 -104q0 -25 20 -41q18 -15 46 -15q15 0 27 4q33 9 47 54q10 34 10 91v36q1 0 5 1l7 1q12 1 21 2q29 4 39 4q5 0 5 -1q14 -113 40 -152q18 -26 45 -26q63 4 63 77q0 43 -21 90q-16 38 -42 70
l71 49q8 -12 13 -19l14 -22q15 -26 26 -49q28 -60 28 -115q0 -85 -72 -137q-40 -28 -84 -28q-67 0 -109 52q-48 -67 -125 -67zM54 865v111l422 167v-104z" />
    <glyph glyph-name="uniFC63" unicode="&#xfc63;" arabic-form="isolated" 
d="M144 1137h-6q-68 3 -108 36q-43 34 -46 95v16q0 77 33 134l77 -36q-24 -54 -24 -104q0 -25 20 -41q18 -15 46 -15q15 0 27 4q33 9 47 54q10 34 10 91v36q1 0 12 2l10 1l11 1q29 4 39 4q5 0 5 -1q14 -113 40 -152q18 -26 45 -26q63 4 63 77q0 43 -21 90q-16 38 -42 70
l71 49q8 -12 13 -19l14 -22q15 -26 26 -49q28 -60 28 -115q0 -85 -72 -137q-40 -28 -84 -28q-67 0 -109 52q-48 -67 -125 -67zM229 1556q18 68 18 139v7q-1 75 -18 141l72 22q16 -58 19 -143v-17q0 -74 -20 -171z" />
    <glyph glyph-name="uniFE70" unicode="&#xfe70;" arabic-form="isolated" 
d="M4 1114v111l422 167v-104zM4 1373v111l422 167v-104z" />
    <glyph glyph-name="uniFE72" unicode="&#xfe72;" arabic-form="isolated" 
d="M448 1257l-12 4l-12 4q-52 -52 -147 -92q-61 -26 -177 -59l-18 -4l-6 -1l-5 -1l-46 65q9 16 17 44q9 33 9 60q0 53 -38 57q-21 0 -43 -12q-16 -10 -31 -25l-61 61q25 25 58 41q40 20 77 20q35 0 63 -17q60 -36 60 -120q0 -33 -8 -70q133 40 203 88l-5 4q-119 40 -148 126
q-8 26 -8 44q0 47 35 88q28 33 71 54q38 18 70 18q61 0 101 -52q39 -51 39 -124q0 -11 -2 -31q-6 -45 -16 -85q5 -1 14 -4l8 -2l6 -2l-25 -83q-9 2 -23 6zM294 1527q-22 -17 -34 -38q-2 -6 -2 -18q0 -32 38 -55l17 -10l17 -8q23 -11 33 -17l24 -11q12 48 12 87q0 27 -6 49
q-10 25 -32 38l-8 2l-9 1q-24 0 -50 -20z" />
    <glyph glyph-name="uniFE74" unicode="&#xfe74;" arabic-form="isolated" 
d="M6 -688v111l422 167v-104zM6 -429v111l422 167v-104z" />
    <glyph glyph-name="uniFE76" unicode="&#xfe76;" arabic-form="isolated" 
d="M-15 1250v111l422 167v-104z" />
    <glyph glyph-name="uniFE78" unicode="&#xfe78;" arabic-form="isolated" 
d="M338 1241l-13 5l-11 4q-119 -119 -337 -173l-24 84q175 49 272 122q-66 30 -95 50q-47 34 -62 80q-7 21 -7 42q0 31 16 61q13 24 35 46q54 54 122 54q31 0 55 -12q88 -42 88 -165q0 -56 -18 -114q5 -1 14 -4l8 -2l6 -2l-25 -83q-9 2 -24 7zM184 1511q-21 -16 -32 -39
q-3 0 -5 -11q-1 -10 1 -17q7 -28 43 -49q11 -6 32 -16l16 -7l15 -8l24 -11q5 21 7 41q4 27 4 49q0 88 -55 88q-26 0 -50 -20z" />
    <glyph glyph-name="uniFE7A" unicode="&#xfe7a;" arabic-form="isolated" 
d="M9 -531v111l422 167v-104z" />
    <glyph glyph-name="uniFE7C" unicode="&#xfe7c;" arabic-form="isolated" 
d="M144 1137h-6q-68 3 -108 36q-43 34 -46 95v16q0 77 33 134l77 -36q-24 -54 -24 -104q0 -25 20 -41q18 -15 46 -15q15 0 27 4q33 9 47 54q10 34 10 91v36q1 0 12 2l10 1l11 1q29 4 39 4q5 0 5 -1q14 -113 40 -152q18 -26 45 -26q63 4 63 77q0 43 -21 90q-16 38 -42 70
l71 49q8 -12 13 -19l14 -22q15 -26 26 -49q28 -60 28 -115q0 -85 -72 -137q-40 -28 -84 -28q-67 0 -109 52q-48 -67 -125 -67z" />
    <glyph glyph-name="uniFE7E" unicode="&#xfe7e;" arabic-form="isolated" 
d="M314 1253q27 34 27 77t-27 77q-29 35 -68 35q-40 0 -69 -36q-27 -34 -27 -76q0 -65 59 -102q17 -11 37 -11q40 0 68 36zM365 1505q43 -38 67 -98q15 -37 15 -77q0 -67 -37 -123q-34 -51 -86 -78q-37 -19 -78 -19q-68 0 -120 45q-44 38 -68 99q-14 36 -14 76q0 68 37 124
q33 48 86 76q37 19 79 19q67 0 119 -44z" />
    <glyph glyph-name="uniFE82" unicode="&#x622;" horiz-adv-x="684" arabic-form="final" 
d="M735 28q-29 -28 -70 -28q-337 0 -397 252q-11 45 -11 128v48l1 15l1 17q1 44 1 72v220q0 47 -1 86v82l-1 83q0 94 -3 167q-8 187 -31 308l196 36q36 -206 36 -652q1 -39 1 -86v-285q-1 -34 -1 -46v-84q0 -69 20 -102q21 -33 74 -49q44 -13 106 -14h9q42 0 71 -28
q28 -28 28 -70q0 -41 -29 -70zM3 1650l4 11q2 7 3 10q67 165 191 185l11 2q6 1 11 1h21q56 0 131 -30l29 -11q16 -6 30 -10q34 -10 67 -12h6q40 0 81 34q15 13 31 31l13 16l6 7l5 7l114 -74q-6 -6 -16 -21l-9 -13l-10 -12q-46 -51 -90 -78q-61 -37 -130 -37h-6
q-52 2 -114 23l-26 9l-25 9q-30 11 -50 17q-16 5 -35 5q-46 0 -77 -42q-13 -17 -24 -42q-7 -16 -18 -45l-132 41q4 4 8 19z" />
    <glyph glyph-name="uniFE84" unicode="&#x623;" horiz-adv-x="673" arabic-form="final" 
d="M735 28q-29 -28 -70 -28q-337 0 -397 252q-11 45 -11 128v48l1 15l1 17q1 44 1 72v220q0 47 -1 86v82l-1 83q0 94 -3 167q-8 187 -31 308l196 36q36 -206 36 -652q1 -39 1 -86v-285q-1 -34 -1 -46v-84q0 -69 20 -102q21 -33 74 -49q44 -13 106 -14h9q42 0 71 -28
q28 -28 28 -70q0 -41 -29 -70zM211 1791q37 -25 79 -25q37 0 77 18q14 7 32 17l15 9l14 9q24 14 43 29l59 -78q-58 -42 -242 -142l-227 -126l-48 87l179 100q-57 24 -94 72q-41 54 -41 122q0 95 68 154q65 58 163 58q31 0 64 -6l28 -6l28 -7l-28 -92q-48 13 -92 13
q-35 0 -62 -12v2q-71 -31 -71 -104q0 -15 8 -36l-1 1q13 -33 49 -57z" />
    <glyph glyph-name="uniFE86" unicode="&#x624;" horiz-adv-x="1058" arabic-form="final" 
d="M1114 28q-29 -28 -71 -28h-90q-58 -285 -299 -476q-224 -179 -530 -226l-46 193q295 60 485 210q85 67 137 147q52 79 62 152h-30q-21 -1 -33 -1l-18 1h-19q-314 0 -433 147q-65 82 -65 214q0 202 121 358q101 128 234 128q142 0 261 -128q182 -201 188 -523h75
q44 0 72 -28t28 -71q0 -42 -29 -69zM458 623q-11 -10 -22 -26q-8 -11 -18 -27q-57 -96 -57 -207q0 -105 90 -141q61 -24 206 -24h21q64 2 92 4q-12 243 -137 384l-11 11l-11 10q-13 13 -26 21q-32 22 -66 22q-33 0 -61 -27zM280 1150q-41 54 -41 123q0 95 68 155
q65 57 163 57q31 0 64 -6l28 -6l28 -7l-28 -92q-48 13 -92 13q-35 0 -62 -12v2q-29 -12 -49 -40q-22 -30 -22 -64q0 -15 8 -36l-1 1q13 -34 48 -57q37 -25 80 -25q37 0 77 18q14 7 32 17l15 9l14 9q24 14 43 29l59 -78q-58 -42 -242 -142l-227 -126l-48 87l179 100
q-58 24 -94 71z" />
    <glyph glyph-name="uniFE88" unicode="&#x625;" horiz-adv-x="673" arabic-form="final" 
d="M735 28q-29 -28 -70 -28q-337 0 -397 252q-11 45 -11 128v48l1 15l1 17q1 44 1 72v220q0 47 -1 86v82l-1 83q0 94 -3 167q-8 187 -31 308l196 36q36 -206 36 -652q1 -39 1 -86v-285q-1 -34 -1 -46v-84q0 -69 20 -102q21 -33 74 -49q44 -13 106 -14h9q42 0 71 -28
q28 -28 28 -70q0 -41 -29 -70zM325 -394q37 -25 79 -25q37 0 77 18q14 7 32 17l15 9l14 9q24 14 43 29l59 -78q-58 -42 -242 -142l-227 -126l-48 87l179 100q-57 24 -94 72q-41 54 -41 122q0 95 68 154q65 58 163 58q31 0 64 -6l28 -6l28 -7l-28 -92q-48 13 -92 13
q-35 0 -62 -12v2q-71 -31 -71 -104q0 -15 8 -36l-1 1q13 -33 49 -57z" />
    <glyph glyph-name="uniFE8A" unicode="&#x626;" horiz-adv-x="1683" arabic-form="final" 
d="M1477 0q109 -91 109 -210q-2 -155 -139 -266q-219 -176 -617 -176q-490 0 -635 242q-97 142 -97 361q0 154 50 348q43 166 121 353l183 -74q-128 -315 -152 -535q-5 -41 -5 -94q0 -392 421 -402l31 -1h30q31 -1 53 -1q255 0 440 95q53 27 81 57q38 41 38 93q0 18 -16 36
q-6 7 -15 15l-16 13q-56 45 -159 82q-75 27 -189 54q-29 7 -41 9l-22 4l15 194l770 -1q41 0 70 -28q29 -29 29 -70t-29 -70q-29 -28 -70 -28h-239zM626 382q-41 54 -41 123q0 95 68 155q65 57 163 57q31 0 64 -6l28 -6l28 -7l-28 -92q-48 13 -92 13q-35 0 -62 -12v2
q-29 -12 -49 -40q-22 -30 -22 -64q0 -15 8 -36l-1 1q13 -34 48 -57q37 -25 80 -25q37 0 77 18q14 7 32 17l15 9l14 9q24 14 43 29l59 -78q-58 -42 -242 -142l-227 -126l-48 87l179 100q-58 24 -94 71z" />
    <glyph glyph-name="uniFE8B" unicode="&#x626;" horiz-adv-x="711" arabic-form="initial" 
d="M-7 0q-40 0 -69 29t-29 69q0 41 29 69q29 29 69 29h103q16 -1 46 -1q106 0 169 25q70 28 101 94q14 31 14 78q0 86 -32 194q-22 73 -65 175l-33 75l178 88l3 -5q1 -4 3 -7l4 -8q54 -116 92 -242q47 -157 47 -266q0 -93 -30 -162q-44 -101 -134 -161q-94 -63 -223 -70
q-51 -3 -97 -3h-146zM205 1201q-41 54 -41 123q0 95 68 155q65 57 163 57q31 0 64 -6l28 -6l28 -7l-28 -92q-48 13 -92 13q-35 0 -62 -12v2q-29 -12 -49 -40q-22 -30 -22 -64q0 -15 8 -36l-1 1q13 -34 48 -57q37 -25 80 -25q37 0 77 18q14 7 32 17l15 9l14 9q24 14 43 29
l59 -78q-58 -42 -242 -142l-227 -126l-48 87l179 100q-58 24 -94 71z" />
    <glyph glyph-name="uniFE8C" unicode="&#x626;" horiz-adv-x="715" arabic-form="medial" 
d="M4 0q-42 0 -70 28t-28 70q0 41 28 70q28 28 70 28h17q157 0 234 52q86 58 86 188q0 135 -46 297l188 53q54 -179 54 -350v-5q0 -103 37 -164q43 -71 130 -71q42 0 71 -28q28 -28 28 -70t-28 -70t-70 -28q-178 0 -274 124q-127 -124 -410 -124h-17zM193 1084
q-41 54 -41 123q0 95 68 155q65 57 163 57q31 0 64 -6l28 -6l28 -7l-28 -92q-48 13 -92 13q-35 0 -62 -12v2q-29 -12 -49 -40q-22 -30 -22 -64q0 -15 8 -36l-1 1q13 -34 48 -57q37 -25 80 -25q37 0 77 18q14 7 32 17l15 9l14 9q24 14 43 29l59 -78q-58 -42 -242 -142
l-227 -126l-48 87l179 100q-58 24 -94 71z" />
    <glyph glyph-name="uniFE8E" unicode="&#x627;" horiz-adv-x="624" arabic-form="final" 
d="M696 28q-29 -28 -70 -28q-393 0 -407 322q-1 15 -1 31v46q0 15 1 60t1 73q0 18 1 65v155q0 47 -1 86v82l-1 83q0 94 -3 167q-8 187 -31 308l196 36q22 -128 30 -314q6 -129 6 -338q1 -39 1 -86v-364l-1 -5v-46q0 -86 30 -116q45 -46 170 -48h9q42 0 71 -28q28 -29 28 -71
q0 -41 -29 -70z" />
    <glyph glyph-name="uniFE90" unicode="&#x628;" horiz-adv-x="2245" arabic-form="final" 
d="M2306 28q-29 -28 -70 -28h-8q-260 3 -385 164q-40 48 -62 109q-264 -276 -833 -276q-620 3 -793 295q-67 116 -67 256q0 166 96 358l173 -95l-9 -20q-47 -102 -54 -208v-11l-1 -11q0 -94 39 -159q119 -202 616 -206q436 0 634 161q129 100 205 353l190 -52q-2 -8 -5 -21
l-5 -22q-7 -29 -11 -50q-13 -61 -13 -99v-6q9 -263 293 -263q41 0 70 -29t29 -70t-29 -70zM991 -525l-164 164l163 163l164 -164z" />
    <glyph glyph-name="uniFE91" unicode="&#x628;" horiz-adv-x="664" arabic-form="initial" 
d="M-7 0q-40 0 -69 29t-29 69q0 41 29 69q29 29 69 29h103q16 -1 46 -1q106 0 169 25q70 28 101 94q14 31 14 78q0 86 -32 194q-22 73 -65 175l-33 75l178 88l3 -5q1 -4 3 -7l4 -8q54 -116 92 -242q47 -157 47 -266q0 -93 -30 -162q-44 -101 -134 -161q-94 -63 -223 -70
q-51 -3 -97 -3h-146zM294 -539l-164 164l163 163l164 -164z" />
    <glyph glyph-name="uniFE92" unicode="&#x628;" horiz-adv-x="718" arabic-form="medial" 
d="M4 0q-42 0 -70 28t-28 70q0 41 28 70q28 28 70 28h17q157 0 234 52q86 58 86 188q0 135 -46 297l188 53q54 -179 54 -350v-5q0 -103 37 -164q43 -71 130 -71q42 0 71 -28q28 -28 28 -70t-28 -70t-70 -28q-178 0 -274 124q-127 -124 -410 -124h-17zM389 -524l-164 164
l163 163l164 -164z" />
    <glyph glyph-name="uniFE94" unicode="&#x629;" horiz-adv-x="1126" arabic-form="final" 
d="M637 684l-44 -19q-50 -23 -85 -44q-94 -54 -131 -121q-17 -31 -17 -61q0 -62 75 -87q52 -18 145 -18h9q65 0 143 14q-20 97 -53 354zM581 140q-258 0 -359 125q-50 61 -53 148v15q0 105 84 210q135 168 403 267q-2 16 -4 35l-1 16l-2 15q-3 31 -4 45q-1 8 -1 16
q-1 6 -2 11v4l-1 3v3l196 41q10 -62 19 -165l8 -85q5 -51 8 -82q32 -308 71 -446q18 -64 61 -92q42 -28 123 -28q41 0 70 -28q29 -29 29 -70q0 -42 -28 -70q-29 -28 -71 -28q-228 0 -327 159q-116 -19 -219 -19zM441 1264l-164 163l162 163l164 -164zM819 1262l-164 164
l162 162l164 -163z" />
    <glyph glyph-name="uniFE96" unicode="&#x62a;" horiz-adv-x="2253" arabic-form="final" 
d="M2306 28q-29 -28 -70 -28h-8q-260 3 -385 164q-40 48 -62 109q-264 -276 -833 -276q-620 3 -793 295q-67 116 -67 256q0 166 96 358l173 -95l-9 -20q-47 -102 -54 -208v-11l-1 -11q0 -94 39 -159q119 -202 616 -206q436 0 634 161q129 100 205 353l190 -52q-2 -8 -5 -21
l-5 -22q-7 -29 -11 -50q-13 -61 -13 -99v-6q9 -263 293 -263q41 0 70 -29t29 -70t-29 -70zM840 822l-164 163l162 163l164 -164zM1218 820l-164 164l162 162l164 -163z" />
    <glyph glyph-name="uniFE97" unicode="&#x62a;" horiz-adv-x="788" arabic-form="initial" 
d="M236 1084l-164 163l162 163l164 -164zM614 1082l-164 164l162 162l164 -163zM-37 0q-41 0 -70 28q-28 28 -28 70t28 70q29 28 70 28h135l25 -1l14 1h13q124 0 205 23q103 29 134 95q14 31 14 78q0 86 -32 194q-22 73 -65 175l-33 75l178 88l3 -5q1 -4 3 -7l4 -8
q54 -116 92 -242q47 -157 47 -266q0 -93 -30 -162q-88 -199 -321 -224q-88 -10 -170 -10h-216z" />
    <glyph glyph-name="uniFE98" unicode="&#x62a;" horiz-adv-x="870" arabic-form="medial" 
d="M-7 0q-42 0 -70 28t-28 70q0 41 28 70q29 29 70 29h76q299 0 389 121q31 41 31 107v12q-9 160 -46 297l187 53q55 -191 55 -350v-6q0 -104 36 -164q43 -71 130 -71q42 0 71 -28t29 -70t-28 -70t-70 -28q-178 0 -275 128q-133 -128 -509 -128h-76zM257 926l-164 163
l162 163l164 -164zM635 924l-164 164l162 162l164 -163z" />
    <glyph glyph-name="uniFE9A" unicode="&#x62b;" horiz-adv-x="2233" arabic-form="final" 
d="M2306 28q-29 -28 -70 -28h-8q-260 3 -385 164q-40 48 -62 109q-264 -276 -833 -276q-620 3 -793 295q-67 116 -67 256q0 166 96 358l173 -95l-9 -20q-47 -102 -54 -208v-11l-1 -11q0 -94 39 -159q119 -202 616 -206q436 0 634 161q129 100 205 353l190 -52q-2 -8 -5 -21
l-5 -22q-7 -29 -11 -50q-13 -61 -13 -99v-6q9 -263 293 -263q41 0 70 -29t29 -70t-29 -70zM1252 1130l164 -164l-162 -162l-164 164zM846 1132l164 -164l-162 -163l-164 164zM1055 1407l149 -149l-148 -148l-149 149z" />
    <glyph glyph-name="uniFE9B" unicode="&#x62b;" horiz-adv-x="799" arabic-form="initial" 
d="M656 1404l164 -164l-162 -162l-164 164zM250 1406l164 -164l-162 -163l-164 164zM459 1681l149 -149l-148 -148l-149 149zM0 0q-41 0 -70 28q-28 28 -28 70t28 70q29 28 70 28h135l25 -1l14 1h13q124 0 205 23q103 29 134 95q14 31 14 78q0 86 -32 194q-22 73 -65 175
l-33 75l178 88l3 -5q1 -4 3 -7l4 -8q54 -116 92 -242q47 -157 47 -266q0 -93 -30 -162q-88 -199 -321 -224q-88 -10 -170 -10h-216z" />
    <glyph glyph-name="uniFE9C" unicode="&#x62b;" horiz-adv-x="864" arabic-form="medial" 
d="M-7 0q-42 0 -70 28t-28 70q0 41 28 70q29 29 70 29h76q299 0 389 121q31 41 31 107v12q-9 160 -46 297l187 53q55 -191 55 -350v-6q0 -104 36 -164q43 -71 130 -71q42 0 71 -28t29 -70t-28 -70t-70 -28q-178 0 -275 128q-133 -128 -509 -128h-76zM617 1254l164 -164
l-162 -162l-164 164zM211 1256l164 -164l-162 -163l-164 164zM420 1531l149 -149l-148 -148l-149 149z" />
    <glyph glyph-name="uniFE9E" unicode="&#x62c;" horiz-adv-x="1696" arabic-form="final" 
d="M912 -791q-289 0 -498 154q-261 192 -261 482q0 77 21 161q33 134 132 272q252 293 811 360l-108 52q-115 57 -192 92q-110 49 -183 49q-117 0 -213 -102q-62 -69 -88 -132l-184 76q9 28 32 64l21 31l11 15l10 15q103 146 249 202q78 29 159 29q113 0 247 -59
q69 -30 173 -80l87 -43l89 -42q215 -102 369 -153l-38 -192h-27l-11 1q-15 1 -26 1h-44q-17 -1 -26 -1l-21 -1l-22 -1q-26 -1 -47 -2q-2 -14 -2 -31q0 -137 108 -190q82 -40 260 -40q42 0 71 -29q28 -29 28 -71q0 -40 -29 -68t-70 -28q-218 0 -347 62q-141 67 -194 214
q-21 59 -24 125q-3 21 0 38q-261 -31 -447 -116q-235 -118 -312 -311q-27 -66 -27 -148q0 -248 232 -382q146 -83 336 -86h7l6 -1q297 0 488 182l129 -152q-242 -216 -635 -216zM899 -285l-164 164l163 163l164 -164z" />
    <glyph glyph-name="uniFE9F" unicode="&#x62c;" horiz-adv-x="1548" arabic-form="initial" 
d="M-1 0q-43 0 -71 28q-29 27 -29 70q0 42 29 70t71 28h198q242 0 528 93q222 73 489 207q-87 31 -219 92l-53 24l-53 25q-61 28 -108 47q-86 35 -147 35q-63 0 -121 -41q-39 -28 -82 -82q-44 -55 -69 -104q-9 -18 -11 -20l-180 81q1 1 9 17q107 214 270 299q89 47 184 47
q80 0 163 -26q34 -11 72 -27q24 -10 67 -30l56 -26l56 -27q68 -32 113 -52q132 -57 245 -82q59 -13 123 -13l38 -190q-103 -42 -283 -133q-411 -209 -788 -282q-146 -28 -299 -28h-198zM765 -528l-164 164l163 163l164 -164z" />
    <glyph glyph-name="uniFEA0" unicode="&#x62c;" horiz-adv-x="1663" arabic-form="medial" 
d="M-70 28q-29 28 -29 69q0 43 29 71q28 28 70 28h183q235 0 497 92q107 38 236 98q51 23 114 54l112 56q-57 20 -129 53l-61 30l-62 30q-154 74 -260 99q-42 10 -69 10q-64 0 -121 -40q-39 -28 -82 -82q-38 -46 -78 -123l-181 82q0 2 7 16q104 206 272 298q89 48 183 48
q82 0 199 -41q62 -22 142 -58l68 -33l69 -32q171 -80 295 -107q59 -13 122 -13l39 -189q-83 -36 -182 -84q24 -85 125 -128q87 -36 215 -36h14q43 0 71 -28q28 -29 28 -71t-29 -69q-28 -28 -70 -28h-14q-195 0 -328 68q-138 70 -191 204q-391 -195 -686 -250
q-122 -23 -265 -23l-183 1q-41 0 -70 28zM789 -526l-164 164l163 163l164 -164z" />
    <glyph glyph-name="uniFEA2" unicode="&#x62d;" horiz-adv-x="1702" arabic-form="final" 
d="M912 -791q-289 0 -498 154q-261 192 -261 482q0 77 21 161q33 134 132 272q252 293 811 360l-108 52q-115 57 -192 92q-110 49 -183 49q-117 0 -213 -102q-62 -69 -88 -132l-184 76q9 28 32 64l21 31l11 15l10 15q103 146 249 202q78 29 159 29q113 0 247 -59
q69 -30 173 -80l87 -43l89 -42q215 -102 369 -153l-38 -192h-27l-11 1q-15 1 -26 1h-44q-17 -1 -26 -1l-21 -1l-22 -1q-26 -1 -47 -2q-2 -14 -2 -31q0 -137 108 -190q82 -40 260 -40q42 0 71 -29q28 -29 28 -71q0 -40 -29 -68t-70 -28q-218 0 -347 62q-141 67 -194 214
q-21 59 -24 125q-3 21 0 38q-261 -31 -447 -116q-235 -118 -312 -311q-27 -66 -27 -148q0 -248 232 -382q146 -83 336 -86h7l6 -1q297 0 488 182l129 -152q-242 -216 -635 -216z" />
    <glyph glyph-name="uniFEA3" unicode="&#x62d;" horiz-adv-x="1548" arabic-form="initial" 
d="M-1 0q-43 0 -71 28q-29 27 -29 70q0 42 29 70t71 28h198q242 0 528 93q222 73 489 207q-87 31 -219 92l-53 24l-53 25q-61 28 -108 47q-86 35 -147 35q-63 0 -121 -41q-39 -28 -82 -82q-44 -55 -69 -104q-9 -18 -11 -20l-180 81q1 1 9 17q107 214 270 299q89 47 184 47
q80 0 163 -26q34 -11 72 -27q24 -10 67 -30l56 -26l56 -27q68 -32 113 -52q132 -57 245 -82q59 -13 123 -13l38 -190q-103 -42 -283 -133q-411 -209 -788 -282q-146 -28 -299 -28h-198z" />
    <glyph glyph-name="uniFEA4" unicode="&#x62d;" horiz-adv-x="1667" arabic-form="medial" 
d="M-70 28q-29 28 -29 69q0 43 29 71q28 28 70 28h183q235 0 497 92q107 38 236 98q51 23 114 54l112 56q-57 20 -129 53l-61 30l-62 30q-154 74 -260 99q-42 10 -69 10q-64 0 -121 -40q-39 -28 -82 -82q-38 -46 -78 -123l-181 82q0 2 7 16q104 206 272 298q89 48 183 48
q82 0 199 -41q62 -22 142 -58l68 -33l69 -32q171 -80 295 -107q59 -13 122 -13l39 -189q-83 -36 -182 -84q24 -85 125 -128q87 -36 215 -36h14q43 0 71 -28q28 -29 28 -71t-29 -69q-28 -28 -70 -28h-14q-195 0 -328 68q-138 70 -191 204q-391 -195 -686 -250
q-122 -23 -265 -23l-183 1q-41 0 -70 28z" />
    <glyph glyph-name="uniFEA6" unicode="&#x62e;" horiz-adv-x="1707" arabic-form="final" 
d="M912 -791q-289 0 -498 154q-261 192 -261 482q0 77 21 161q33 134 132 272q252 293 811 360l-108 52q-115 57 -192 92q-110 49 -183 49q-117 0 -213 -102q-62 -69 -88 -132l-184 76q9 28 32 64l21 31l11 15l10 15q103 146 249 202q78 29 159 29q113 0 247 -59
q69 -30 173 -80l87 -43l89 -42q215 -102 369 -153l-38 -192h-27l-11 1q-15 1 -26 1h-44q-17 -1 -26 -1l-21 -1l-22 -1q-26 -1 -47 -2q-2 -14 -2 -31q0 -137 108 -190q82 -40 260 -40q42 0 71 -29q28 -29 28 -71q0 -40 -29 -68t-70 -28q-218 0 -347 62q-141 67 -194 214
q-21 59 -24 125q-3 21 0 38q-261 -31 -447 -116q-235 -118 -312 -311q-27 -66 -27 -148q0 -248 232 -382q146 -83 336 -86h7l6 -1q297 0 488 182l129 -152q-242 -216 -635 -216zM601 1199l-164 164l163 163l164 -164z" />
    <glyph glyph-name="uniFEA7" unicode="&#x62e;" horiz-adv-x="1548" arabic-form="initial" 
d="M-1 0q-43 0 -71 28q-29 27 -29 70q0 42 29 70t71 28h198q242 0 528 93q222 73 489 207q-87 31 -219 92l-53 24l-53 25q-61 28 -108 47q-86 35 -147 35q-63 0 -121 -41q-39 -28 -82 -82q-44 -55 -69 -104q-9 -18 -11 -20l-180 81q1 1 9 17q107 214 270 299q89 47 184 47
q80 0 163 -26q34 -11 72 -27q24 -10 67 -30l56 -26l56 -27q68 -32 113 -52q132 -57 245 -82q59 -13 123 -13l38 -190q-103 -42 -283 -133q-411 -209 -788 -282q-146 -28 -299 -28h-198zM592 1122l-164 164l163 163l164 -164z" />
    <glyph glyph-name="uniFEA8" unicode="&#x62e;" horiz-adv-x="1669" arabic-form="medial" 
d="M-70 28q-29 28 -29 69q0 43 29 71q28 28 70 28h183q235 0 497 92q107 38 236 98q51 23 114 54l112 56q-57 20 -129 53l-61 30l-62 30q-154 74 -260 99q-42 10 -69 10q-64 0 -121 -40q-39 -28 -82 -82q-38 -46 -78 -123l-181 82q0 2 7 16q104 206 272 298q89 48 183 48
q82 0 199 -41q62 -22 142 -58l68 -33l69 -32q171 -80 295 -107q59 -13 122 -13l39 -189q-83 -36 -182 -84q24 -85 125 -128q87 -36 215 -36h14q43 0 71 -28q28 -29 28 -71t-29 -69q-28 -28 -70 -28h-14q-195 0 -328 68q-138 70 -191 204q-391 -195 -686 -250
q-122 -23 -265 -23l-183 1q-41 0 -70 28zM540 1061l-164 164l163 163l164 -164z" />
    <glyph glyph-name="uniFEAA" unicode="&#x62f;" horiz-adv-x="1253" arabic-form="final" 
d="M530 0q-225 0 -404 185l113 159q122 -111 235 -135q41 -9 82 -9q78 0 158 35q70 31 116 77l-316 760l182 76q63 -156 149 -362q31 -75 77 -185l40 -95l40 -97l10 -23l9 -23q11 -26 17 -41q25 -66 73 -95q49 -31 138 -31q41 0 70 -28q29 -29 29 -70t-29 -70
q-29 -28 -70 -28q-219 0 -322 133q-179 -133 -397 -133z" />
    <glyph glyph-name="uniFEAC" unicode="&#x630;" horiz-adv-x="1247" arabic-form="final" 
d="M530 0q-225 0 -404 185l113 159q122 -111 235 -135q41 -9 82 -9q78 0 158 35q70 31 116 77l-316 760l182 76q63 -156 149 -362q31 -75 77 -185l40 -95l40 -97l10 -23l9 -23q11 -26 17 -41q25 -66 73 -95q49 -31 138 -31q41 0 70 -28q29 -29 29 -70t-29 -70
q-29 -28 -70 -28q-219 0 -322 133q-179 -133 -397 -133zM627 1305l-164 164l163 163l164 -164z" />
    <glyph glyph-name="uniFEAE" unicode="&#x631;" horiz-adv-x="816" arabic-form="final" 
d="M824 0q-126 0 -199 73v-4q0 -162 -97 -327q-81 -137 -244 -274q-137 -115 -320 -206l-86 177q254 133 393 284q110 119 144 248q13 46 13 98q0 13 -2 37q-14 109 -49 240q-23 87 -67 222l188 58q75 -231 150 -330q37 -49 70 -71q44 -29 102 -29h5q43 0 71 -28
q28 -29 28 -71t-29 -69q-28 -28 -70 -28h-1z" />
    <glyph glyph-name="uniFEB0" unicode="&#x632;" horiz-adv-x="819" arabic-form="final" 
d="M824 0q-126 0 -199 73v-4q0 -162 -97 -327q-81 -137 -244 -274q-137 -115 -320 -206l-86 177q254 133 393 284q110 119 144 248q13 46 13 98q0 13 -2 37q-14 109 -49 240q-23 87 -67 222l188 58q75 -231 150 -330q37 -49 70 -71q44 -29 102 -29h5q43 0 71 -28
q28 -29 28 -71t-29 -69q-28 -28 -70 -28h-1zM391 831l-164 164l163 163l164 -164z" />
    <glyph glyph-name="uniFEB2" unicode="&#x633;" horiz-adv-x="2889" arabic-form="final" 
d="M2404 655q-2 35 -2 50v12l-1 3v2l196 14q1 0 2 -23l1 -10v-9q1 -10 1 -14q14 -133 49 -241q80 -242 221 -242h20q42 0 71 -29q28 -29 28 -71t-28 -70q-29 -28 -71 -28h-20q-208 0 -333 209q-90 -209 -297 -209q-52 0 -103 24q-39 19 -80 53q-27 22 -49 56
q-104 -123 -296 -133h-16q-105 0 -182 61l1 -17v-17q0 -375 -265 -552q-182 -123 -470 -135l-20 -1l-10 -1h-9q-256 0 -424 141q-165 139 -201 376q-9 56 -9 111v11q7 272 118 492q38 76 61 107l159 -118q-29 -39 -56 -105q-18 -47 -42 -123q-41 -132 -41 -263
q0 -172 99 -296q107 -134 333 -134h34q425 21 516 298q36 119 36 251q0 223 -94 429q-3 5 -5 12l-3 11q-5 12 -9 18l166 108q34 -79 84 -225q50 -148 128 -206q46 -34 114 -34q137 0 181 149q17 57 23 146q2 33 4 78l1 39l1 39l203 -15v-15l-1 -14q-2 -19 -2 -29
q0 -35 -3 -89v-24q0 -193 71 -251q23 -19 61 -19q44 0 79 42q83 90 83 348v8l-1 7q0 22 -2 57z" />
    <glyph glyph-name="uniFEB3" unicode="&#x633;" horiz-adv-x="1609" arabic-form="initial" 
d="M0 -1q-41 3 -66 29q-26 27 -26 69q0 41 27 69q25 27 65 30q120 0 199 90q53 61 103 188q37 96 58 214l198 -42l-11 -35l-12 -36q-13 -44 -22 -78q-24 -93 -24 -168q0 -142 108 -142q53 0 98 32q33 24 65 69q96 138 139 429l192 -35q-2 -14 -5 -34l-6 -36q-9 -48 -13 -76
q-14 -95 -14 -158q0 -180 107 -191q21 -3 39 -3q92 0 124 66h-1q25 43 25 110q0 60 -17 133q-7 28 -18 62q-6 22 -18 57q-41 124 -84 205l175 92q8 -19 21 -47l11 -25l12 -25q29 -63 45 -105q72 -191 72 -344q0 -180 -99 -278q-98 -97 -280 -97h-7q-113 0 -215 92
q-27 25 -51 60q-131 -152 -297 -152q-90 0 -163 42q-71 42 -100 108q-131 -136 -318 -139h-16z" />
    <glyph glyph-name="uniFEB4" unicode="&#x633;" horiz-adv-x="1851" arabic-form="medial" 
d="M-9 0q-42 0 -70 28q-29 28 -29 70q0 41 30 69q28 26 69 29h10q45 0 87 26q30 18 64 54q111 117 198 378l6 17l6 18q7 21 7 32l192 -53q-2 -2 -4 -10l-1 -7l-2 -7q-16 -61 -27 -127q-12 -79 -12 -142q0 -84 16 -124q21 -56 79 -56q39 0 73 25q83 63 141 213q43 109 77 281
q3 15 3 16l195 -37q-4 -4 -7 -24l-2 -17q-1 -10 -2 -15q-15 -88 -15 -192q0 -112 24 -169q32 -77 111 -77q58 0 93 44q25 33 45 101q29 102 29 254q0 21 -2 56q-3 35 -3 50v12l-1 3v2l196 16q1 -3 2 -16q1 -17 2 -40q22 -151 49 -241q79 -244 221 -244h20q42 0 70 -28
t28 -70q0 -41 -28 -70q-28 -28 -70 -28h-20q-205 0 -333 207q-95 -207 -298 -207q-198 0 -287 192q-132 -195 -311 -195q-91 0 -158 45q-64 42 -95 116l-8 19l-8 19q-34 -45 -67 -75q-124 -121 -273 -121h-10z" />
    <glyph glyph-name="uniFEB6" unicode="&#x634;" horiz-adv-x="2889" arabic-form="final" 
d="M2404 655q-2 35 -2 50v12l-1 3v2l196 14q1 0 2 -23l1 -10v-9q1 -10 1 -14q14 -133 49 -241q80 -242 221 -242h20q42 0 71 -29q28 -29 28 -71t-28 -70q-29 -28 -71 -28h-20q-208 0 -333 209q-90 -209 -297 -209q-52 0 -103 24q-39 19 -80 53q-27 22 -49 56
q-104 -123 -296 -133h-16q-105 0 -182 61l1 -17v-17q0 -375 -265 -552q-182 -123 -470 -135l-20 -1l-10 -1h-9q-256 0 -424 141q-165 139 -201 376q-9 56 -9 111v11q7 272 118 492q38 76 61 107l159 -118q-29 -39 -56 -105q-18 -47 -42 -123q-41 -132 -41 -263
q0 -172 99 -296q107 -134 333 -134h34q425 21 516 298q36 119 36 251q0 223 -94 429q-3 5 -5 12l-3 11q-5 12 -9 18l166 108q34 -79 84 -225q50 -148 128 -206q46 -34 114 -34q137 0 181 149q17 57 23 146q2 33 4 78l1 39l1 39l203 -15v-15l-1 -14q-2 -19 -2 -29
q0 -35 -3 -89v-24q0 -193 71 -251q23 -19 61 -19q44 0 79 42q83 90 83 348v8l-1 7q0 22 -2 57zM2196 1212l164 -164l-162 -162l-164 164zM1790 1214l164 -164l-162 -163l-164 164zM1999 1489l149 -149l-148 -148l-149 149z" />
    <glyph glyph-name="uniFEB7" unicode="&#x634;" horiz-adv-x="1609" arabic-form="initial" 
d="M0 -1q-41 3 -66 29q-26 27 -26 69q0 41 27 69q25 27 65 30q120 0 199 90q53 61 103 188q37 96 58 214l198 -42l-11 -35l-12 -36q-13 -44 -22 -78q-24 -93 -24 -168q0 -142 108 -142q53 0 98 32q33 24 65 69q96 138 139 429l192 -35q-2 -14 -5 -34l-6 -36q-9 -48 -13 -76
q-14 -95 -14 -158q0 -180 107 -191q21 -3 39 -3q92 0 124 66h-1q25 43 25 110q0 60 -17 133q-7 28 -18 62q-6 22 -18 57q-41 124 -84 205l175 92q8 -19 21 -47l11 -25l12 -25q29 -63 45 -105q72 -191 72 -344q0 -180 -99 -278q-98 -97 -280 -97h-7q-113 0 -215 92
q-27 25 -51 60q-131 -152 -297 -152q-90 0 -163 42q-71 42 -100 108q-131 -136 -318 -139h-16zM1133 1318l164 -164l-162 -162l-164 164zM727 1320l164 -164l-162 -163l-164 164zM936 1595l149 -149l-148 -148l-149 149z" />
    <glyph glyph-name="uniFEB8" unicode="&#x634;" horiz-adv-x="1876" arabic-form="medial" 
d="M-2 0q-42 0 -70 28q-29 28 -29 70q0 41 30 69q28 26 69 29h10q45 0 87 26q30 18 64 54q111 117 198 378l6 17l6 18q7 21 7 32l192 -53q-2 -2 -4 -10l-1 -7l-2 -7q-16 -61 -27 -127q-12 -79 -12 -142q0 -84 16 -124q21 -56 79 -56q39 0 73 25q83 63 141 213q43 109 77 281
q3 15 3 16l195 -37q-4 -4 -7 -24l-2 -17q-1 -10 -2 -15q-15 -88 -15 -192q0 -112 24 -169q32 -77 111 -77q58 0 93 44q25 33 45 101q29 102 29 254q0 21 -2 56q-3 35 -3 50v12l-1 3v2l196 16q1 -3 2 -16q1 -17 2 -40q22 -151 49 -241q79 -244 221 -244h20q42 0 70 -28
t28 -70q0 -41 -28 -70q-28 -28 -70 -28h-20q-205 0 -333 207q-95 -207 -298 -207q-198 0 -287 192q-132 -195 -311 -195q-91 0 -158 45q-64 42 -95 116l-8 19l-8 19q-34 -45 -67 -75q-124 -121 -273 -121h-10zM1201 1287l164 -164l-162 -162l-164 164zM795 1289l164 -164
l-162 -163l-164 164zM1004 1564l149 -149l-148 -148l-149 149z" />
    <glyph glyph-name="uniFEBA" unicode="&#x635;" horiz-adv-x="2868" arabic-form="final" 
d="M2068 161l17 1h17q193 4 319 71q147 79 157 226v10q0 35 -17 67q-7 12 -18 26l-9 12l-9 11q-72 72 -183 72h-9q-160 -7 -294 -107q-99 -74 -195 -210q-47 -68 -82 -132q136 -47 306 -47zM2938 28q-29 -28 -70 -28q-198 0 -294 96q-213 -131 -518 -131q-346 0 -559 159
l2 -37l2 -35v-18q0 -331 -226 -529q-185 -155 -474 -155q-32 0 -49 1l-51 3q-210 22 -328 97q-245 142 -245 471v10q5 226 110 479q12 30 29 64q12 24 29 55l167 -108q-53 -86 -105 -270q-32 -112 -32 -225q0 -202 128 -295q116 -84 344 -84q355 0 466 275q39 98 39 222
q0 137 -38 285q-16 58 -39 127l-21 60l-21 58q-3 3 -4 9t-3 8l182 75q62 -150 156 -285q34 -50 73 -79q182 333 440 470q157 84 316 84q198 0 322 -134q110 -110 110 -254q0 -120 -66 -232q12 -20 65 -32q41 -9 85 -9h8q42 0 71 -28q28 -29 28 -71q0 -40 -29 -69z" />
    <glyph glyph-name="uniFEBB" unicode="&#x635;" horiz-adv-x="1871" arabic-form="initial" 
d="M967 178q390 0 558 133q81 66 90 171q0 60 -37 108q-30 40 -79 65q-49 27 -116 27h-13q-104 -5 -216 -64q-211 -114 -344 -368q-8 -15 -18 -34l-8 -15l-7 -13q92 -10 190 -10zM0 0q-41 0 -70 28q-29 29 -29 70t29 70q29 28 70 28q131 0 204 52q71 50 98 156q7 29 17 74
l8 39l8 39q21 97 39 151l189 -57q-10 -26 -13 -40l-9 -42h1q-11 -44 -11 -109q0 -129 57 -204q147 312 375 477q149 108 314 137q58 11 109 11q188 0 317 -134q110 -114 110 -254q0 -195 -151 -324q-126 -108 -336 -154q-158 -34 -350 -34q-162 0 -259 16q-187 18 -312 175
q-119 -168 -396 -171h-9z" />
    <glyph glyph-name="uniFEBC" unicode="&#x635;" horiz-adv-x="1933" arabic-form="medial" 
d="M-70 28q-29 29 -29 69q0 41 28 70q29 29 70 29h9q109 3 154 20q45 18 88 74q47 62 80 192l14 57l12 57q16 71 27 111l189 -58q-7 -16 -12 -39l-5 -22l-5 -21h1q-4 -18 -7 -50q-3 -33 -3 -57l1 -15v-16q3 -101 51 -163l6 -11q187 394 475 541q161 83 316 83
q199 0 323 -134q110 -110 110 -253q0 -173 -121 -296h231q42 0 71 -28q29 -29 29 -71q0 -41 -29 -69t-71 -28l-252 -1q-100 0 -177 7q-65 6 -106 24q-183 -49 -412 -49q-60 0 -136 5q-27 2 -63 5l-30 3l-28 2q-190 20 -293 149q-13 11 -24 30q-132 -175 -413 -175
q-41 0 -69 28zM970 178q396 0 566 135q84 68 90 169v11q0 35 -17 67q-13 25 -36 48q-70 73 -180 73h-6l-7 -1q-248 -12 -446 -257q-68 -84 -147 -235q87 -10 183 -10z" />
    <glyph glyph-name="uniFEBE" unicode="&#x636;" horiz-adv-x="2867" arabic-form="final" 
d="M2068 161l17 1h17q193 4 319 71q147 79 157 226v10q0 35 -17 67q-7 12 -18 26l-9 12l-9 11q-72 72 -183 72h-9q-160 -7 -294 -107q-99 -74 -195 -210q-47 -68 -82 -132q136 -47 306 -47zM2938 28q-29 -28 -70 -28q-198 0 -294 96q-213 -131 -518 -131q-346 0 -559 159
l2 -37l2 -35v-18q0 -331 -226 -529q-185 -155 -474 -155q-32 0 -49 1l-51 3q-210 22 -328 97q-245 142 -245 471v10q5 226 110 479q12 30 29 64q12 24 29 55l167 -108q-53 -86 -105 -270q-32 -112 -32 -225q0 -202 128 -295q116 -84 344 -84q355 0 466 275q39 98 39 222
q0 137 -38 285q-16 58 -39 127l-21 60l-21 58q-3 3 -4 9t-3 8l182 75q62 -150 156 -285q34 -50 73 -79q182 333 440 470q157 84 316 84q198 0 322 -134q110 -110 110 -254q0 -120 -66 -232q12 -20 65 -32q41 -9 85 -9h8q42 0 71 -28q28 -29 28 -71q0 -40 -29 -69zM2296 1038
l-164 164l163 163l164 -164z" />
    <glyph glyph-name="uniFEBF" unicode="&#x636;" horiz-adv-x="1894" arabic-form="initial" 
d="M967 178q390 0 558 133q81 66 90 171q0 60 -37 108q-30 40 -79 65q-49 27 -116 27h-13q-104 -5 -216 -64q-211 -114 -344 -368q-8 -15 -18 -34l-8 -15l-7 -13q92 -10 190 -10zM0 0q-41 0 -70 28q-29 29 -29 70t29 70q29 28 70 28q131 0 204 52q71 50 98 156q7 29 17 74
l8 39l8 39q21 97 39 151l189 -57q-10 -26 -13 -40l-9 -42h1q-11 -44 -11 -109q0 -129 57 -204q147 312 375 477q149 108 314 137q58 11 109 11q188 0 317 -134q110 -114 110 -254q0 -195 -151 -324q-126 -108 -336 -154q-158 -34 -350 -34q-162 0 -259 16q-187 18 -312 175
q-119 -168 -396 -171h-9zM1299 1087l-164 164l163 163l164 -164z" />
    <glyph glyph-name="uniFEC0" unicode="&#x636;" horiz-adv-x="1931" arabic-form="medial" 
d="M-70 28q-29 29 -29 69q0 41 28 70q29 29 70 29h9q109 3 154 20q45 18 88 74q47 62 80 192l14 57l12 57q16 71 27 111l189 -58q-7 -16 -12 -39l-5 -22l-5 -21h1q-4 -18 -7 -50q-3 -33 -3 -57l1 -15v-16q3 -101 51 -163l6 -11q187 394 475 541q161 83 316 83
q199 0 323 -134q110 -110 110 -253q0 -173 -121 -296h231q42 0 71 -28q29 -29 29 -71q0 -41 -29 -69t-71 -28l-252 -1q-100 0 -177 7q-65 6 -106 24q-183 -49 -412 -49q-60 0 -136 5q-27 2 -63 5l-30 3l-28 2q-190 20 -293 149q-13 11 -24 30q-132 -175 -413 -175
q-41 0 -69 28zM970 178q396 0 566 135q84 68 90 169v11q0 35 -17 67q-13 25 -36 48q-70 73 -180 73h-6l-7 -1q-248 -12 -446 -257q-68 -84 -147 -235q87 -10 183 -10zM1354 1065l-164 164l163 163l164 -164z" />
    <glyph glyph-name="uniFEC2" unicode="&#x637;" horiz-adv-x="1867" arabic-form="final" 
d="M1433 388q63 68 81 156q4 19 4 39q0 72 -57 113q-54 38 -140 38q-21 0 -41 -3q-101 -17 -222 -100q-120 -83 -255 -233l-151 -191l278 -9q310 15 503 190zM1938 28q-28 -28 -70 -28h-919q-14 -1 -41 -1h-41l-23 1h-26q-27 0 -77 3h-5q-311 16 -634 140l72 185
q126 -50 258 -83q20 30 64 87l35 45q19 26 33 46q22 154 25 289v26q0 142 -16 331q-6 75 -15 164q-6 60 -17 153q-9 77 -13 106q-6 39 -6 40l196 36l3 -26q8 -66 21 -190l10 -98q5 -55 10 -96q6 -57 12 -143l5 -70l5 -71q2 -24 2 -44v-64q0 -14 1 -44l1 -13v-14q1 -16 1 -30
q241 229 461 262q35 6 70 6q190 0 316 -131q81 -84 81 -218q0 -132 -90 -267q-25 -37 -54 -68l-1 -2q-22 -22 -58 -49l346 -2h8q42 0 70 -28t28 -70q0 -41 -28 -70z" />
    <glyph glyph-name="uniFEC3" unicode="&#x637;" horiz-adv-x="1509" arabic-form="initial" 
d="M402 196h72q221 0 330 20q204 38 361 166q94 80 94 180q0 81 -57 127q-54 44 -140 44q-31 0 -51 -5q-103 -22 -223 -105q-160 -110 -302 -284l-42 -51l-66 -92q9 -1 24 0zM-3 0q-42 0 -70 28q-29 28 -29 70q0 41 29 70q29 28 70 28h151l32 53q19 33 33 55q41 63 83 116
q19 121 23 378v36q0 141 -13 320q-9 129 -27 300q-6 57 -6 59l202 36q47 -356 47 -744q0 -47 -2 -143q243 225 460 262q51 8 95 8h5q120 0 211 -59q82 -53 127 -145q31 -65 31 -146q0 -186 -143 -337l-4 -6q-158 -141 -366 -199q-150 -41 -338 -41l-592 1h-9z" />
    <glyph glyph-name="uniFEC4" unicode="&#x637;" horiz-adv-x="1583" arabic-form="medial" 
d="M534 195h39q227 0 355 43q131 44 245 144q63 63 81 156q4 19 4 40q0 74 -61 115q-55 36 -147 36q-20 0 -29 -1q-102 -18 -222 -102q-117 -82 -256 -233l-45 -53q-26 -31 -43 -53l-67 -91q99 0 146 -1zM-8 0q-42 0 -70 28t-28 70t28 70t70 28h152q73 112 154 211
q18 25 24 82q5 41 5 112v128q-6 361 -40 666q-9 81 -14 110l195 36q61 -395 61 -826v-56q245 229 461 262q39 6 77 6q156 0 284 -104q108 -91 108 -243q0 -184 -144 -336q-32 -32 -60 -48h334q41 0 70 -28q28 -28 28 -69q0 -40 -29 -69q-28 -29 -69 -29h-1v-1h-189l-58 -1
q-251 0 -382 43q-144 -42 -354 -42h-613z" />
    <glyph glyph-name="uniFEC6" unicode="&#x638;" horiz-adv-x="1868" arabic-form="final" 
d="M1433 388q63 68 81 156q4 19 4 39q0 72 -57 113q-54 38 -140 38q-21 0 -41 -3q-101 -17 -222 -100q-120 -83 -255 -233l-151 -191l278 -9q310 15 503 190zM1938 28q-28 -28 -70 -28h-919q-14 -1 -41 -1h-41l-23 1h-26q-27 0 -77 3h-5q-311 16 -634 140l72 185
q126 -50 258 -83q20 30 64 87l35 45q19 26 33 46q22 154 25 289v26q0 142 -16 331q-6 75 -15 164q-6 60 -17 153q-9 77 -13 106q-6 39 -6 40l196 36l3 -26q8 -66 21 -190l10 -98q5 -55 10 -96q6 -57 12 -143l5 -70l5 -71q2 -24 2 -44v-64q0 -14 1 -44l1 -13v-14q1 -16 1 -30
q241 229 461 262q35 6 70 6q190 0 316 -131q81 -84 81 -218q0 -132 -90 -267q-25 -37 -54 -68l-1 -2q-22 -22 -58 -49l346 -2h8q42 0 70 -28t28 -70q0 -41 -28 -70zM1283 1192l-164 164l163 163l164 -164z" />
    <glyph glyph-name="uniFEC7" unicode="&#x638;" horiz-adv-x="1520" arabic-form="initial" 
d="M402 196h72q221 0 330 20q204 38 361 166q94 80 94 180q0 81 -57 127q-54 44 -140 44q-31 0 -51 -5q-103 -22 -223 -105q-160 -110 -302 -284l-42 -51l-66 -92q9 -1 24 0zM-3 0q-42 0 -70 28q-29 28 -29 70q0 41 29 70q29 28 70 28h151l32 53q19 33 33 55q41 63 83 116
q19 121 23 378v36q0 141 -13 320q-9 129 -27 300q-6 57 -6 59l202 36q47 -356 47 -744q0 -47 -2 -143q243 225 460 262q51 8 95 8h5q120 0 211 -59q82 -53 127 -145q31 -65 31 -146q0 -186 -143 -337l-4 -6q-158 -141 -366 -199q-150 -41 -338 -41l-592 1h-9zM1048 1180
l-164 164l163 163l164 -164z" />
    <glyph glyph-name="uniFEC8" unicode="&#x638;" horiz-adv-x="1570" arabic-form="medial" 
d="M534 195h39q227 0 355 43q131 44 245 144q63 63 81 156q4 19 4 40q0 74 -61 115q-55 36 -147 36q-20 0 -29 -1q-102 -18 -222 -102q-117 -82 -256 -233l-45 -53q-26 -31 -43 -53l-67 -91q99 0 146 -1zM-8 0q-42 0 -70 28t-28 70t28 70t70 28h152q73 112 154 211
q18 25 24 82q5 41 5 112v128q-6 361 -40 666q-9 81 -14 110l195 36q61 -395 61 -826v-56q245 229 461 262q39 6 77 6q156 0 284 -104q108 -91 108 -243q0 -184 -144 -336q-32 -32 -60 -48h334q41 0 70 -28q28 -28 28 -69q0 -40 -29 -69q-28 -29 -69 -29h-1v-1h-189l-58 -1
q-251 0 -382 43q-144 -42 -354 -42h-613zM1057 1191l-164 164l163 163l164 -164z" />
    <glyph glyph-name="uniFECA" unicode="&#x639;" horiz-adv-x="1357" arabic-form="final" 
d="M1423 28q-27 -27 -68 -29q-151 0 -317 67q-141 57 -308 175q-299 -117 -399 -287q-40 -68 -40 -160q0 -81 43 -152q32 -53 93 -106q120 -107 242 -123q60 -9 135 -9q276 0 451 127l102 -170q-218 -128 -388 -147q-63 -7 -150 -7q-232 0 -404 85q-167 82 -258 234
q-62 105 -62 256v8q3 158 71 276q54 93 164 182q103 81 229 133q-112 101 -237 239l-26 30l-12 122q92 144 355 210q118 25 213 25h4l4 -1q115 0 209 -33t145 -93q52 -61 52 -144v-9q-5 -173 -156 -293q-77 -60 -166 -101q106 -63 186 -94q114 -43 225 -43q41 0 69 -29
t28 -70t-29 -69zM760 468q170 74 227 120q79 64 81 144q0 23 -26 38q-10 6 -24 12l-11 4l-11 4q-59 18 -123 19h-21q-214 0 -348 -93q147 -157 256 -248z" />
    <glyph glyph-name="uniFECB" unicode="&#x639;" horiz-adv-x="1072" arabic-form="initial" 
d="M152 503q0 143 76 251q68 95 184 146q79 35 171 35q153 0 301 -90q63 -40 115 -90l-123 -151q-68 74 -171 114q-54 21 -122 21q-108 0 -171 -65q-64 -64 -64 -171q0 -98 64 -168q56 -61 146 -87q50 -15 104 -15l12 1h12q176 13 302 43l24 -190q-313 -85 -794 -85l-218 -2
q-42 0 -71 28t-29 70t29 70t71 28l284 3q-132 119 -132 304z" />
    <glyph glyph-name="uniFECC" unicode="&#x639;" horiz-adv-x="1138" arabic-form="medial" 
d="M1146 196q42 0 71 -29q28 -29 28 -71q0 -40 -29 -69q-29 -28 -70 -28q-336 0 -544 123q-259 -123 -601 -123q-41 0 -70 28q-29 29 -29 69q0 42 29 71q28 29 70 29q258 0 415 63q-72 66 -167 178l-79 94q-48 58 -79 93l10 139q195 177 506 177q239 0 370 -106
q82 -67 82 -150q1 -7 1 -20q0 -39 -18 -86q-75 -196 -254 -330q137 -52 358 -52zM604 357q77 40 170 155q50 62 76 118q11 23 11 43q-106 70 -262 70q-164 0 -288 -73q183 -224 293 -313z" />
    </font>
</defs>
</svg>
